<?xml version="1.0" standalone="no"?>
<!DOCTYPE svg PUBLIC "-//W3C//DTD SVG 20010904//EN"
 "http://www.w3.org/TR/2001/REC-SVG-20010904/DTD/svg10.dtd">
<svg version="1.0" xmlns="http://www.w3.org/2000/svg"
 width="852.000000pt" height="1143.000000pt" viewBox="0 0 852.000000 1143.000000"
 preserveAspectRatio="xMidYMid meet">

<g transform="translate(0.000000,1143.000000) scale(0.100000,-0.100000)"
fill="#000000" stroke="none">
<path fill="white" d="M2337 11343 c-9 -8 -9 -1155 -1 -1177 5 -14 61 -16 520 -16 497 0
514 -1 524 -19 13 -26 14 -1469 0 -1505 l-10 -26 -1437 0 -1438 0 0 -740 0
-740 1452 0 1453 0 5 -22 c3 -13 4 -918 3 -2013 l-3 -1990 -485 -5 c-267 -3
-471 -8 -455 -11 19 -4 4 -7 -42 -8 -61 -1 -74 -4 -83 -20 -7 -14 -9 -211 -8
-598 l3 -578 529 -3 c409 -2 532 -5 538 -15 4 -6 8 -375 8 -819 l0 -808 234 0
c148 0 245 4 266 11 24 9 34 9 40 0 5 -9 35 -11 111 -6 120 7 282 7 827 0
l392 -5 0 40 c0 22 -4 40 -10 40 -7 0 -10 262 -10 766 0 648 2 768 14 780 12
11 105 14 563 16 l548 3 0 580 c0 564 -1 581 -20 607 l-20 27 -546 1 c-489 0
-547 2 -553 16 -8 20 -8 3978 0 3998 6 15 142 16 1440 16 l1434 0 0 740 0 740
-1396 0 c-943 0 -1402 3 -1415 10 -19 10 -19 29 -19 763 l0 752 545 -3 544 -2
6 22 c3 13 4 289 3 613 l-3 590 -2021 3 c-1111 1 -2024 -1 -2027 -5z m3991
-55 c19 -19 17 -1061 -1 -1077 -10 -7 -175 -12 -553 -13 l-539 -3 0 -825 0
-825 1412 -5 c1140 -4 1415 -8 1425 -18 17 -17 25 -1263 9 -1306 l-11 -26
-1427 0 c-786 0 -1434 -4 -1441 -8 -10 -7 -12 -431 -10 -2088 l3 -2079 558 -5
c481 -4 559 -7 567 -20 6 -9 10 -224 10 -532 0 -501 -1 -518 -19 -528 -13 -6
-205 -10 -555 -10 -295 0 -537 -1 -538 -2 -2 -2 -5 -361 -8 -798 l-5 -795
-855 -3 c-470 -1 -865 0 -877 3 l-23 5 -2 793 -3 792 -535 5 -535 5 -3 523
c-1 349 1 529 8 542 10 19 25 20 528 20 284 0 523 4 530 8 10 7 12 430 10
2083 l-3 2074 -1444 3 c-1060 1 -1448 5 -1458 13 -11 10 -13 123 -11 671 3
573 5 660 18 668 9 6 562 10 1448 10 l1432 0 -2 833 -3 832 -515 3 c-470 2
-516 4 -527 19 -10 13 -13 134 -13 527 0 460 2 511 17 528 15 17 90 18 1973
18 1508 0 1959 -3 1968 -12z"/>
<path fill="white" d="M2443 11213 c-18 -38 -19 -913 -1 -931 9 -9 447 -12 1909 -12 1720 0
1897 1 1903 16 8 20 8 918 0 938 -6 15 -182 16 -1903 16 l-1896 0 -12 -27z
m861 -66 c21 -32 22 -779 1 -800 -20 -21 -790 -21 -810 0 -12 11 -14 83 -14
403 0 382 0 390 20 404 18 12 86 14 405 15 l384 0 14 -22z m957 13 c18 -10 19
-25 19 -410 0 -370 -1 -400 -17 -408 -10 -6 -190 -10 -405 -10 -366 0 -388 1
-404 19 -15 17 -16 49 -9 406 4 240 11 393 17 401 13 16 769 18 799 2z m973
-12 c11 -19 14 -94 14 -401 0 -357 -1 -380 -18 -397 -18 -18 -40 -19 -402 -18
-214 0 -391 4 -400 9 -17 9 -18 39 -18 409 0 369 1 400 18 409 11 7 160 11
404 11 l388 0 14 -22z m954 9 c17 -14 18 -797 0 -815 -19 -19 -782 -17 -801 2
-30 31 -30 796 1 815 19 12 784 10 800 -2z"/>
<path fill="white" d="M2871 11118 c-6 -7 -26 -13 -44 -13 -39 0 -46 -22 -18 -54 45 -51 73
-213 44 -242 -32 -32 -204 -6 -254 37 -25 22 -42 17 -37 -10 4 -18 -2 -31 -18
-45 -29 -26 -30 -41 -3 -74 16 -21 18 -31 10 -46 -6 -11 -11 -24 -11 -29 0
-15 48 -7 68 10 24 22 91 42 131 39 18 -1 39 3 47 10 25 20 73 -10 81 -51 8
-45 -19 -149 -51 -197 -28 -40 -26 -53 6 -53 12 0 37 -5 55 -12 27 -10 38 -10
53 0 11 7 33 12 50 12 35 0 40 22 12 54 -40 45 -65 182 -42 226 8 15 20 18 77
15 85 -3 143 -20 178 -53 25 -23 28 -24 43 -7 13 13 14 19 5 22 -18 6 -16 48
2 63 17 14 20 56 5 65 -5 3 -10 15 -10 26 0 10 5 19 10 19 6 0 10 9 10 21 0
18 -4 20 -27 14 -16 -3 -35 -12 -43 -19 -25 -20 -62 -35 -125 -51 -72 -18
-111 -19 -121 -3 -23 36 10 248 39 248 4 0 7 7 7 15 0 8 5 15 10 15 6 0 10 7
10 15 0 14 -14 20 -35 15 -20 -5 -48 -1 -54 8 -11 17 -47 22 -60 10z m54 -348
c8 -26 -4 -63 -18 -56 -7 3 -20 9 -29 12 -10 4 -18 10 -18 15 0 12 37 49 49
49 5 0 13 -9 16 -20z"/>
<path fill="white" d="M3835 11113 c-9 -9 -30 -16 -46 -16 -35 0 -36 -4 -4 -64 18 -33 24
-56 20 -75 -5 -20 -2 -30 9 -34 9 -3 14 -10 11 -14 -3 -5 -1 -20 5 -35 8 -22
6 -32 -11 -57 -21 -29 -22 -29 -88 -23 -71 7 -146 29 -172 51 -21 19 -39 18
-39 -2 0 -8 -4 -12 -10 -9 -11 7 -14 -8 -3 -19 12 -12 10 -45 -4 -50 -18 -7
-17 -41 2 -56 11 -9 13 -16 5 -24 -15 -15 -12 -26 5 -20 11 4 13 2 9 -9 -9
-24 11 -28 37 -9 42 32 102 47 183 47 l80 0 -3 -60 c-3 -59 -18 -119 -47 -183
-20 -44 -13 -60 24 -54 16 2 33 -1 36 -7 11 -16 56 -14 56 3 0 21 20 30 33 17
13 -13 44 -15 51 -2 3 5 -4 20 -15 35 -11 14 -23 47 -25 73 -3 27 -12 67 -20
91 -19 58 -18 79 6 87 25 8 159 -5 166 -16 3 -5 15 -9 27 -9 12 0 33 -9 47
-20 40 -31 50 -26 44 24 -6 38 -4 44 15 49 30 7 30 57 0 57 -20 0 -21 4 -16
45 5 36 4 45 -8 45 -8 0 -15 -4 -15 -8 0 -11 -68 -48 -103 -56 -66 -16 -154
-17 -166 -2 -12 14 -11 72 2 93 4 6 5 18 2 26 -7 16 32 127 45 127 9 0 20 36
13 44 -2 2 -19 0 -36 -5 -28 -8 -34 -6 -50 16 -22 29 -30 31 -52 8z m63 -355
c26 -28 26 -28 4 -28 -15 0 -26 -9 -33 -27 l-11 -28 -10 28 c-6 17 -17 27 -29
27 -19 0 -19 0 1 20 11 11 22 31 26 46 6 24 8 25 17 8 5 -11 21 -31 35 -46z"/>
<path fill="white" d="M4797 11109 c-4 -15 -11 -20 -22 -15 -49 18 -65 18 -65 0 0 -11 11
-31 24 -47 31 -36 66 -140 66 -195 0 -36 -24 -71 -45 -67 -11 2 -52 9 -91 14
-73 11 -138 33 -149 51 -3 5 -12 10 -20 10 -10 0 -12 -9 -9 -32 3 -20 0 -40
-9 -52 -13 -17 -12 -23 5 -52 14 -24 18 -42 13 -64 -8 -35 0 -38 30 -10 12 11
34 22 51 25 16 2 56 11 89 19 87 23 113 21 127 -8 13 -30 -13 -146 -49 -215
-29 -56 -29 -73 0 -70 12 2 28 0 34 -4 7 -4 26 -10 43 -12 25 -3 33 1 40 21
11 28 13 29 45 8 41 -27 48 -7 15 40 -24 33 -35 65 -47 134 -21 118 -17 125
76 116 36 -3 79 -13 95 -20 16 -8 36 -14 44 -14 9 0 26 -10 39 -22 28 -26 52
-13 34 19 -7 14 -6 27 5 47 16 32 18 62 5 71 -5 3 -7 21 -4 40 4 27 2 35 -9
35 -9 0 -21 -7 -28 -15 -7 -8 -18 -15 -25 -15 -6 0 -25 -7 -41 -15 -17 -8 -61
-17 -99 -21 -39 -3 -73 -8 -77 -10 -5 -3 -13 7 -19 23 -9 25 -5 70 17 166 1 4
2 14 3 22 0 8 15 30 31 48 17 19 30 40 30 46 0 15 -43 14 -58 -1 -8 -8 -15 -8
-25 0 -8 7 -16 9 -19 6 -3 -3 -5 3 -4 13 2 28 -40 30 -47 2z m49 -391 c-10
-54 -30 -63 -39 -19 -5 24 -10 28 -27 24 -22 -6 -23 -3 -14 21 3 9 10 14 15
11 4 -3 13 4 19 15 6 11 8 20 5 20 -2 0 3 9 12 20 17 19 17 19 28 -13 7 -21 7
-48 1 -79z"/>
<path fill="white" d="M5680 11106 c0 -14 4 -28 10 -31 19 -12 49 -97 55 -156 3 -34 8 -72
11 -84 5 -20 1 -24 -35 -30 -42 -7 -118 1 -136 15 -5 4 -23 10 -40 14 -16 4
-45 19 -62 32 l-33 25 0 -40 c0 -22 -4 -43 -10 -46 -16 -10 -12 -72 5 -79 12
-4 14 -15 9 -46 -4 -22 -3 -40 0 -40 4 0 22 11 41 25 18 14 56 30 86 35 30 5
72 14 93 19 68 17 77 4 71 -90 -4 -62 -12 -94 -35 -141 -38 -76 -39 -92 -3
-84 14 4 39 2 55 -5 24 -10 32 -9 48 6 14 13 29 16 55 12 43 -7 54 7 27 36
-22 23 -54 106 -46 118 2 4 0 9 -5 11 -4 1 -6 35 -2 73 l6 70 35 -4 c19 -2 49
-4 65 -5 17 0 34 -7 38 -13 4 -7 20 -13 34 -13 14 0 41 -11 59 -25 18 -14 37
-25 43 -25 18 0 23 22 10 46 -11 21 -10 27 9 47 24 25 29 43 10 31 -7 -5 -9 0
-6 14 3 12 1 23 -4 24 -6 2 -11 19 -13 38 -2 19 -3 36 -4 38 -1 2 -15 -6 -31
-18 -54 -39 -190 -73 -231 -58 -32 11 -49 52 -30 71 6 6 11 26 11 45 0 19 7
50 16 70 9 21 23 51 30 69 8 17 14 40 14 52 0 24 -25 28 -37 6 -8 -13 -12 -13
-37 0 -34 18 -58 19 -74 3 -10 -10 -17 -10 -32 0 -29 18 -40 15 -40 -12z m136
-298 c-1 -17 5 -24 22 -26 28 -4 29 -32 1 -32 -12 0 -23 -8 -26 -20 -3 -11 -7
-20 -10 -20 -3 0 -16 9 -30 20 -14 11 -34 20 -44 20 -29 0 -22 20 10 31 16 6
31 19 34 30 7 28 44 25 43 -3z"/>
<path fill="white" d="M3592 10198 c-9 -9 -12 -218 -12 -879 0 -781 -2 -867 -16 -873 -9 -3
-402 -6 -874 -6 -842 0 -860 0 -870 -20 -7 -13 -9 -199 -8 -562 l3 -543 880
-2 c813 -3 881 -4 893 -20 9 -13 12 -452 12 -2112 0 -1153 3 -2106 6 -2118 l6
-23 699 0 699 0 0 2108 c0 1159 3 2117 6 2129 3 12 16 24 27 26 12 3 416 9
897 13 627 5 877 10 882 18 4 6 8 250 8 543 0 516 -1 533 -19 543 -13 7 -303
10 -870 10 -467 0 -856 3 -865 6 -14 6 -16 92 -16 880 0 770 -2 874 -15 874
-8 0 -15 5 -15 10 0 16 -1422 14 -1438 -2z m1395 -345 l-2 -287 -170 3 c-114
2 -176 7 -189 15 -16 10 -23 9 -38 -6 -17 -17 -46 -18 -470 -18 -249 0 -457 4
-463 8 -6 4 -11 116 -13 290 l-3 282 675 0 675 0 -2 -287z m1 -903 c2 -508 3
-556 19 -567 13 -10 204 -13 876 -13 572 0 865 -3 878 -10 18 -10 19 -26 19
-488 0 -359 -3 -481 -12 -490 -9 -9 -218 -12 -879 -12 -476 0 -881 -3 -898 -6
l-31 -6 -2 -2127 -3 -2126 -643 -3 -642 -2 -10 26 c-6 16 -10 781 -10 2125 0
1154 -1 2100 -2 2101 -2 2 -406 5 -898 8 l-895 5 -3 489 c-2 445 -1 491 14
508 16 17 55 18 890 18 l873 0 1 552 c0 386 4 556 12 565 9 11 133 13 677 11
l666 -3 3 -555z"/>
<path fill="white" d="M3773 9989 c-6 -8 -13 -38 -14 -67 -3 -56 -4 -57 -45 -42 -19 8 -30
8 -38 0 -14 -14 3 -29 37 -32 15 -1 27 -8 27 -15 0 -8 7 -6 20 7 22 22 40 26
40 10 0 -5 11 -10 25 -10 23 0 25 -4 25 -42 0 -28 -3 -38 -9 -30 -6 11 -9 9
-13 -6 -3 -11 -1 -26 6 -33 8 -9 8 -10 -3 -4 -11 6 -13 2 -9 -18 3 -15 2 -24
-3 -22 -4 3 -10 1 -13 -3 -3 -5 -16 -7 -29 -5 -18 4 -26 0 -30 -16 -3 -12 -1
-21 4 -21 5 0 9 7 9 15 0 28 17 15 24 -17 6 -29 8 -30 22 -16 8 8 16 22 18 30
1 8 10 27 20 42 9 15 15 34 12 42 -3 9 -1 12 4 9 6 -3 10 -2 10 3 0 5 9 12 20
15 28 7 50 -28 50 -80 0 -23 5 -45 12 -49 7 -4 8 -3 4 4 -4 7 -2 12 3 12 7 0
11 24 11 60 0 52 -3 61 -25 76 -24 16 -34 48 -17 57 4 3 19 3 33 0 41 -8 59
-50 59 -137 0 -62 3 -78 17 -83 10 -4 23 2 35 16 14 19 18 41 18 112 0 73 3
91 16 96 24 9 34 -15 34 -83 0 -72 9 -124 21 -124 15 0 10 129 -7 181 -9 27
-20 49 -24 49 -4 0 -10 9 -13 20 -8 30 -40 24 -72 -12 -17 -19 -30 -27 -33
-20 -7 22 -62 45 -77 32 -8 -6 -34 -13 -59 -14 -39 -2 -47 1 -52 18 -4 12 -11
24 -17 27 -5 4 -13 24 -16 44 -5 31 -8 35 -18 24z m289 -226 c-2 -57 -7 -82
-13 -72 -10 16 -12 142 -2 152 15 16 18 2 15 -80z"/>
<path fill="white" d="M4624 9978 c-4 -6 -7 -31 -6 -55 0 -23 -4 -43 -9 -43 -4 0 -5 -8 -2
-17 5 -12 0 -10 -16 6 -24 24 -44 24 -49 -2 -2 -11 3 -17 15 -17 33 0 43 -22
44 -94 l2 -71 7 89 c7 91 25 127 44 86 5 -11 17 -20 26 -20 22 0 33 -40 21
-73 -11 -28 -4 -70 10 -61 5 3 9 0 9 -5 0 -6 7 -11 16 -11 13 0 15 -7 11 -35
-3 -19 -2 -35 4 -35 5 0 9 7 9 16 0 11 5 14 18 9 30 -13 46 -10 50 8 3 13 -3
17 -22 17 -23 0 -26 4 -27 38 -4 106 9 154 35 133 8 -7 12 -4 13 9 1 14 -10
23 -42 33 -40 14 -45 14 -63 -3 -18 -17 -22 -17 -32 -5 -7 8 -9 15 -4 15 5 0
1 7 -10 15 -10 7 -15 18 -12 24 4 5 4 22 0 36 -6 26 -28 33 -40 13z"/>
<path fill="white" d="M4240 9907 c0 -52 2 -57 23 -57 12 0 29 -4 37 -10 20 -12 14 -76 -10
-111 -11 -15 -20 -32 -20 -38 0 -5 -7 -14 -17 -19 -10 -6 -14 -16 -10 -27 6
-15 10 -14 36 7 17 13 28 29 25 36 -2 8 4 24 14 37 18 22 19 22 30 4 6 -10 15
-36 18 -59 7 -42 18 -48 47 -26 24 18 21 33 -5 32 -18 -1 -23 5 -24 24 -1 14
3 34 7 45 4 11 8 14 8 7 1 -7 6 -10 11 -7 6 3 10 33 10 65 0 32 -4 62 -10 65
-5 3 -10 -1 -10 -9 0 -21 -21 -66 -32 -66 -4 0 -8 12 -8 28 0 40 -13 54 -46
50 -21 -2 -29 1 -29 12 0 8 -3 17 -6 20 -3 3 -13 16 -22 30 -17 24 -17 24 -17
-33z"/>
<path fill="white" d="M4900 9876 c0 -15 37 -32 47 -22 9 8 -17 36 -33 36 -8 0 -14 -6 -14
-14z"/>
<path fill="white" d="M4434 9790 c3 -53 0 -81 -8 -84 -7 -3 -6 -8 4 -15 10 -7 17 -7 21 2
9 17 -2 177 -12 177 -5 0 -7 -36 -5 -80z"/>
<path fill="white" d="M4666 9686 c-21 -39 -15 -59 10 -34 9 8 14 27 12 42 l-3 27 -19 -35z"/>
<path fill="white" d="M4390 9690 c0 -5 5 -10 10 -10 6 0 10 5 10 10 0 6 -4 10 -10 10 -5 0
-10 -4 -10 -10z"/>
<path fill="white" d="M4630 9648 c0 -9 5 -20 10 -23 13 -8 13 5 0 25 -8 13 -10 13 -10 -2z"/>
<path fill="white" d="M3720 8866 c0 -496 -2 -554 -16 -560 -9 -3 -404 -6 -878 -6 l-863 0
-9 -222 c-5 -123 -9 -320 -9 -438 l0 -215 886 -3 887 -2 6 -23 c3 -12 6 -964
6 -2115 l0 -2094 569 4 c313 1 573 7 578 11 4 5 9 958 11 2118 l2 2110 23 7
c12 4 409 5 883 2 473 -3 868 -4 878 -2 12 3 15 10 11 23 -4 11 -2 25 3 32 9
12 23 759 15 785 -4 9 -189 12 -883 12 -692 0 -881 3 -887 13 -4 6 -10 255
-11 552 -3 352 -7 544 -14 553 -8 9 -140 12 -599 12 l-589 0 0 -554z m1140
479 c10 -13 12 -124 8 -544 -3 -290 -2 -534 3 -542 7 -12 150 -15 889 -19 958
-5 891 -1 907 -60 3 -14 1 -117 -5 -230 -7 -113 -12 -258 -12 -322 0 -100 -2
-118 -17 -127 -11 -6 -343 -7 -899 -4 l-881 6 -6 -24 c-4 -13 -7 -964 -7
-2114 l0 -2090 -132 -6 c-73 -4 -311 -8 -527 -10 l-395 -4 -7 25 c-4 14 -7
964 -8 2113 l-1 2087 -884 0 c-639 0 -887 3 -892 11 -8 13 -6 634 3 702 l6 47
872 0 c757 0 874 2 885 15 9 11 12 139 10 547 -1 293 -2 539 -1 546 1 9 116
12 540 12 472 0 540 -2 551 -15z"/>
<path fill="white" d="M3886 9267 c-10 -7 -16 -22 -14 -33 3 -18 16 -19 443 -19 415 0 440
1 443 18 9 47 6 47 -437 47 -329 0 -421 -3 -435 -13z"/>
<path fill="white" d="M3876 9091 c-3 -5 -5 -21 -4 -35 l2 -26 441 2 440 3 0 30 0 30 -437
3 c-255 1 -439 -2 -442 -7z"/>
<path fill="white" d="M4216 8685 c-11 -8 -28 -15 -38 -15 -45 0 -187 -123 -225 -195 -9
-16 -20 -33 -25 -36 -29 -19 -62 -289 -38 -304 6 -3 10 -17 10 -31 0 -14 6
-35 14 -47 7 -12 16 -34 20 -48 11 -50 -26 -62 -254 -88 -47 -5 -119 -14 -160
-21 -75 -12 -83 -11 -215 18 -22 5 -49 13 -60 19 -47 26 -222 46 -347 40 -94
-4 -131 -2 -157 9 -18 8 -62 14 -97 14 -50 0 -64 3 -64 15 0 8 -7 15 -16 15
-9 0 -27 9 -41 20 -21 17 -41 20 -112 20 -82 0 -111 -9 -111 -33 0 -4 16 -15
35 -23 19 -8 35 -18 35 -22 0 -13 -57 -61 -64 -55 -3 3 -8 -2 -12 -11 -3 -9
-17 -16 -30 -16 -14 0 -27 -7 -30 -15 -4 -8 -12 -15 -20 -15 -10 0 -14 -14
-14 -50 l0 -51 88 3 c72 3 87 6 86 19 -1 11 5 14 23 11 14 -3 28 -1 32 4 3 5
27 24 52 41 34 24 59 33 90 34 76 2 248 -34 344 -72 11 -4 31 -10 45 -13 42
-8 183 -56 211 -71 47 -26 159 -40 294 -36 246 5 390 5 420 -3 17 -4 53 -18
80 -32 43 -21 55 -33 85 -91 37 -72 43 -105 43 -228 0 -117 -25 -262 -59 -343
-8 -18 -14 -45 -14 -60 -1 -15 -7 -38 -15 -52 -8 -14 -14 -37 -15 -52 0 -15
-4 -29 -9 -33 -6 -3 -13 -27 -16 -53 -4 -26 -10 -56 -15 -67 -5 -11 -11 -39
-13 -62 -2 -23 -9 -48 -16 -57 -7 -8 -11 -21 -8 -28 2 -7 -4 -25 -14 -39 -10
-14 -16 -29 -12 -32 3 -4 1 -13 -6 -21 -16 -19 -43 -223 -42 -326 1 -273 3
-334 11 -315 5 11 9 68 9 127 1 104 2 108 26 124 24 16 27 15 45 -1 11 -10 17
-22 14 -27 -4 -5 -10 -64 -14 -131 -11 -160 -29 -247 -51 -247 -5 0 -9 25 -9
55 0 30 -4 55 -10 55 -15 0 11 -254 30 -295 22 -45 29 -75 20 -75 -18 0 -10
-29 12 -44 12 -9 19 -16 16 -16 -4 0 4 -12 17 -26 30 -33 55 -80 55 -106 0
-12 4 -16 12 -12 6 4 8 3 5 -4 -4 -5 -1 -23 7 -39 8 -15 22 -59 31 -98 9 -38
21 -74 26 -80 5 -5 9 -18 9 -30 0 -12 7 -30 15 -41 8 -10 15 -30 15 -43 0 -21
8 -52 28 -111 3 -8 6 -19 7 -25 0 -5 4 -17 7 -25 4 -8 16 -53 28 -99 11 -46
25 -92 30 -102 6 -10 10 -34 10 -54 0 -24 7 -43 20 -53 24 -21 39 -152 20
-187 -16 -30 -143 -165 -155 -165 -20 -1 -63 -56 -73 -93 -13 -45 -1 -87 23
-87 16 0 104 47 115 60 11 14 147 89 170 94 14 3 32 0 40 -7 20 -16 80 -103
80 -115 0 -5 7 -12 15 -16 19 -7 19 5 0 29 -91 116 -95 124 -95 194 0 58 -21
207 -36 253 -2 9 -7 27 -9 40 -9 48 -28 125 -44 178 -8 30 -14 59 -13 64 2 5
-4 39 -12 75 -25 107 -37 188 -47 329 -7 99 -15 143 -29 170 -19 34 -20 52
-15 252 7 275 10 294 40 314 61 40 177 64 284 58 l33 -2 -5 -52 c-6 -53 -17
-107 -36 -183 -24 -94 -23 -101 6 -45 54 104 97 154 160 185 39 19 46 40 34
98 -6 24 -11 155 -13 291 -1 135 -5 251 -10 258 -5 9 -8 6 -8 -8 0 -29 -31
-40 -47 -18 -7 10 -13 26 -13 35 0 19 33 34 51 23 8 -5 10 4 5 32 -4 22 -7 53
-9 71 -1 18 -8 38 -15 45 -6 6 -12 18 -12 25 0 18 -22 56 -37 66 -16 10 -17
37 -2 37 7 0 10 48 8 153 -1 89 3 171 9 197 6 25 12 69 12 98 0 30 4 51 9 48
9 -6 27 50 22 68 -1 5 5 23 13 40 8 17 18 49 21 71 4 22 10 45 14 50 3 6 7 21
9 34 3 26 50 119 69 139 7 8 11 17 8 22 -3 5 -1 11 5 15 5 3 10 11 10 17 0 16
-40 -28 -40 -44 -1 -7 -14 -29 -30 -48 -17 -19 -30 -39 -30 -46 0 -6 -11 -16
-25 -22 -14 -6 -24 -17 -23 -23 4 -15 -58 -22 -82 -9 -13 7 -21 7 -26 -1 -4
-7 -20 -9 -40 -6 -38 6 -43 -2 -16 -26 23 -21 114 -23 134 -4 7 7 23 16 36 19
20 6 22 3 17 -15 -12 -44 -28 -67 -39 -58 -19 16 -152 25 -161 11 -14 -22 14
-33 85 -34 49 -1 71 -5 75 -15 11 -28 -16 -41 -88 -41 -80 0 -80 -8 1 -31 53
-14 57 -18 60 -47 2 -18 -1 -32 -7 -32 -6 0 -11 -8 -11 -17 -1 -17 -1 -17 -11
0 -5 9 -19 17 -29 17 -10 0 -21 4 -25 10 -7 11 -34 2 -53 -17 -12 -11 -22 -7
-62 22 -49 36 -78 43 -97 24 -13 -13 -46 -33 -90 -53 -17 -9 -33 -21 -35 -27
-2 -6 -3 37 -1 95 2 102 -2 117 -23 97 -5 -5 -19 -5 -31 0 -19 7 -23 16 -23
54 0 49 18 67 45 45 11 -9 25 -8 67 6 37 13 47 19 33 22 -11 2 -25 8 -31 13
-6 5 -34 7 -62 4 -40 -3 -52 -1 -52 10 0 8 -20 56 -45 107 -25 51 -45 99 -45
106 0 6 -3 12 -8 12 -4 0 -12 10 -17 22 -6 11 -25 33 -44 47 -35 26 -35 26
-15 -24 8 -20 -32 -20 -66 0 -26 15 -115 21 -106 7 2 -4 -10 -8 -29 -8 -19 0
-32 3 -29 7 2 4 -126 9 -284 11 -265 4 -290 6 -327 25 -45 23 -97 43 -135 50
-14 2 -32 7 -40 9 -8 3 -17 6 -20 6 -3 0 -27 9 -53 19 -26 11 -63 19 -82 19
-19 0 -35 4 -35 8 0 10 -59 29 -115 36 -22 3 -41 10 -43 16 -2 5 -7 8 -11 6
-4 -3 -8 1 -8 9 0 21 22 25 75 14 46 -11 210 -25 380 -33 46 -2 86 -7 89 -10
4 -3 25 -6 47 -6 23 0 54 -7 70 -15 15 -8 39 -15 52 -15 14 0 28 -9 35 -22 7
-13 12 -24 11 -25 -1 -2 -2 -21 -2 -43 0 -31 3 -38 15 -34 8 4 12 11 8 17 -4
6 -8 26 -8 44 -2 41 -3 40 170 47 171 7 231 14 285 32 25 9 84 18 133 21 87 6
99 11 73 32 -23 20 -65 115 -74 167 -13 84 -4 228 18 274 4 8 16 33 26 55 29
61 111 137 186 174 56 28 82 34 156 39 105 6 172 -8 255 -51 82 -43 132 -98
180 -196 42 -85 42 -86 41 -200 0 -76 -4 -116 -12 -119 -6 -2 -9 -9 -6 -16 3
-7 -9 -31 -26 -55 -30 -41 -33 -43 -68 -36 -49 9 -62 21 -62 57 0 16 -9 41
-20 55 -11 15 -18 34 -15 44 3 9 1 20 -5 24 -5 3 -10 17 -10 31 0 14 -6 24
-14 24 -7 0 -22 12 -32 26 -10 14 -36 43 -57 65 l-39 39 -82 0 c-60 0 -92 -5
-118 -18 -31 -16 -33 -20 -19 -29 12 -8 22 -7 34 2 9 6 15 14 13 16 -3 2 37 2
87 -1 97 -5 119 -19 53 -32 -22 -5 -45 -13 -52 -18 -6 -6 -28 -11 -48 -12 -20
-1 -36 -5 -36 -10 0 -5 -4 -6 -10 -3 -5 3 -10 2 -10 -3 0 -6 -23 -12 -50 -14
-35 -2 -50 1 -50 10 0 6 5 12 11 12 7 0 22 11 35 25 21 22 21 25 5 25 -20 0
-45 -23 -35 -33 4 -3 -5 -9 -19 -12 -14 -4 -28 -13 -31 -22 -3 -8 -10 -11 -16
-8 -5 3 -10 -2 -10 -13 0 -10 -3 -22 -6 -25 -7 -6 -16 -65 -16 -102 -1 -36 8
-80 21 -103 15 -29 5 -45 -25 -39 -14 2 -24 -1 -24 -7 0 -6 35 -22 78 -35 126
-38 135 -42 182 -87 97 -91 175 -119 212 -76 42 47 62 135 47 207 -3 14 2 21
17 23 27 4 70 -46 54 -62 -18 -18 -11 -29 15 -24 22 5 25 1 32 -35 7 -35 14
-43 51 -58 35 -15 42 -16 42 -4 0 13 -13 20 -24 13 -14 -9 -42 37 -44 70 l-3
39 51 6 c41 5 59 2 92 -15 37 -20 41 -20 50 -5 7 13 13 15 28 7 10 -5 40 -10
65 -10 25 0 54 -4 63 -9 9 -5 96 -14 192 -21 183 -12 222 -20 244 -52 13 -18
14 -18 18 -1 3 11 23 23 54 32 27 7 68 20 92 27 23 8 52 14 64 14 12 0 29 6
37 14 9 8 43 18 76 21 33 4 70 11 83 16 13 5 40 9 60 9 20 0 50 7 66 15 15 8
42 15 60 15 17 1 42 7 56 15 14 8 36 14 51 15 14 0 29 4 35 9 14 14 117 17
121 4 6 -17 -37 -43 -72 -44 -41 -1 -75 -15 -55 -22 8 -4 29 -7 45 -9 22 -2
31 -9 33 -25 6 -38 32 -28 32 12 0 23 6 38 16 42 20 7 63 -12 71 -32 6 -17
-32 -65 -51 -65 -6 0 -17 -9 -24 -20 -7 -11 -19 -20 -27 -20 -22 0 -87 40
-118 73 -18 19 -31 26 -36 19 -13 -22 -81 -61 -96 -56 -8 4 -23 3 -32 -2 -10
-4 -31 -9 -48 -10 -16 -1 -36 -2 -43 -3 -6 -1 -11 -7 -10 -13 2 -8 -10 -14
-32 -16 -19 -2 -49 -9 -67 -17 -17 -8 -38 -15 -47 -15 -8 0 -19 -6 -23 -13
-10 -16 -93 -53 -111 -49 -7 2 -21 -3 -29 -10 -12 -10 -94 -14 -355 -16 -320
-4 -340 -3 -354 15 -13 17 -15 17 -34 -7 -11 -14 -28 -35 -39 -46 -11 -12 -18
-24 -15 -27 7 -6 74 25 74 35 0 4 164 8 364 8 233 0 367 4 371 10 3 6 19 10
36 10 16 0 29 5 29 11 0 5 4 8 9 4 5 -3 12 -1 15 4 3 5 22 12 41 15 20 4 34
10 31 14 -2 4 11 7 30 8 19 0 40 6 47 14 10 10 9 12 -6 7 -11 -4 -16 -3 -12 3
3 6 18 7 32 4 16 -4 24 -3 20 3 -4 6 3 8 18 5 19 -3 25 0 25 13 0 10 5 15 13
12 7 -3 29 2 48 10 18 9 45 17 58 19 13 2 31 6 40 10 28 12 45 14 84 8 28 -4
41 -12 47 -30 9 -22 20 -29 43 -25 4 0 7 -3 7 -7 0 -10 46 -10 56 1 14 14 26
7 14 -8 -10 -12 -9 -16 6 -20 11 -3 32 -13 47 -21 51 -26 144 -15 169 20 4 6
2 18 -3 27 -6 11 -5 20 1 24 37 23 -54 82 -107 69 -23 -5 -26 -4 -16 7 10 10
8 19 -12 45 -14 18 -25 35 -25 38 0 3 18 6 40 6 22 0 40 4 40 9 0 5 8 8 17 7
12 0 19 7 21 22 3 22 3 22 -130 22 -82 0 -152 -6 -183 -14 -27 -8 -45 -15 -40
-16 23 -4 -105 -33 -229 -51 -39 -5 -75 -14 -81 -19 -11 -9 -64 -20 -175 -36
-19 -3 -42 -8 -50 -11 -8 -3 -24 -8 -35 -10 -11 -1 -40 -9 -65 -17 -47 -14
-166 -10 -325 13 -38 5 -79 8 -90 5 -16 -4 -17 -3 -6 5 11 7 -13 11 -80 14
-139 8 -201 16 -226 33 -12 8 -29 14 -38 14 -24 0 -28 25 -12 62 32 70 41 116
41 203 -1 79 -5 100 -34 169 -53 127 -152 228 -270 276 -52 21 -259 25 -284 5z
m285 -432 c6 -6 9 -19 6 -27 -9 -23 -247 -24 -247 -1 0 10 9 15 28 14 24 0 25
-1 7 -9 -16 -7 -13 -9 18 -9 20 -1 37 4 37 9 0 6 -5 10 -11 10 -8 0 -7 5 2 16
10 13 28 15 81 12 37 -2 73 -9 79 -15z m-274 -59 c-3 -3 -12 -4 -19 -1 -8 3
-5 6 6 6 11 1 17 -2 13 -5z m313 -21 c26 -23 27 -63 1 -63 -10 0 -30 9 -44 20
-14 11 -30 20 -36 20 -12 0 -15 23 -4 33 13 13 63 7 83 -10z m-150 -33 c0 -6
6 -10 13 -10 16 0 50 -57 42 -70 -3 -5 -2 -25 3 -44 8 -26 6 -39 -4 -54 -16
-23 -68 -33 -105 -20 -36 12 -71 63 -67 96 3 24 7 27 42 27 23 0 41 5 43 13 6
17 -61 16 -76 -1 -6 -8 -31 -24 -56 -37 -25 -13 -45 -27 -45 -32 0 -4 -11 -8
-25 -8 -20 0 -25 5 -25 26 0 37 18 64 43 64 16 0 26 11 39 40 16 38 18 39 70
42 53 3 108 -13 108 -32z m-1910 -111 c27 -6 48 -15 44 -20 -3 -5 4 -9 15 -9
28 0 26 -11 -5 -33 -23 -17 -27 -17 -42 -4 -9 8 -38 25 -64 37 -76 35 -48 50
52 29z m1756 -31 c4 -6 -1 -17 -11 -24 -23 -17 -10 -32 14 -17 22 14 32 7 56
-33 17 -31 16 -64 -4 -64 -5 0 -30 15 -57 33 -57 38 -78 82 -48 104 22 16 41
17 50 1z m-1816 -22 c0 -3 -4 -8 -10 -11 -5 -3 -10 -1 -10 4 0 6 5 11 10 11 6
0 10 -2 10 -4z m-36 -41 c-7 -17 -20 -20 -28 -6 -7 10 3 21 20 21 8 0 11 -6 8
-15z m97 -15 c18 -10 18 -12 4 -34 -17 -26 -55 -25 -55 0 0 8 -5 14 -12 14
-13 0 22 29 35 30 5 0 17 -5 28 -10z m1959 -35 c0 -39 -9 -52 -43 -60 -64 -16
-107 28 -52 53 14 7 28 17 30 24 3 7 19 13 35 13 27 0 30 -3 30 -30z m1143
-12 c-7 -2 -21 -2 -30 0 -10 3 -4 5 12 5 17 0 24 -2 18 -5z m-1198 -703 c3 -5
-1 -10 -9 -10 -9 0 -16 5 -16 10 0 6 4 10 9 10 6 0 13 -4 16 -10z m-62 -16 c3
-4 2 -15 -4 -26 -6 -10 -9 -29 -7 -41 3 -19 6 -17 22 16 11 22 25 37 37 37 10
0 21 5 24 10 4 6 17 3 35 -10 37 -26 50 -106 26 -163 -8 -20 -18 -37 -21 -37
-3 0 -4 4 -1 8 2 4 -20 8 -50 8 -30 -1 -54 -4 -54 -8 0 -5 -4 -8 -8 -8 -5 0
-6 28 -4 62 4 57 3 62 -12 49 -9 -7 -16 -25 -16 -40 0 -33 -17 -51 -46 -51
-29 0 -48 25 -50 67 -1 28 8 43 47 84 44 46 67 58 82 43z m259 -46 c12 -9 15
-22 11 -41 -3 -16 -8 -24 -12 -19 -3 6 -7 -89 -7 -209 -2 -252 4 -236 -102
-294 -62 -34 -68 -36 -151 -33 -73 2 -93 -1 -134 -21 -40 -19 -60 -23 -123
-19 -66 3 -79 7 -96 28 -17 21 -19 33 -13 80 4 30 8 63 8 72 1 9 5 16 10 15 5
-1 10 15 11 36 2 21 8 43 14 49 15 15 16 32 2 23 -6 -3 -7 1 -4 9 3 9 11 13
17 9 6 -4 8 0 4 11 -4 9 2 33 12 52 11 20 17 42 15 49 -3 8 -1 22 5 33 5 10
11 40 12 65 3 44 5 47 47 67 24 12 45 20 47 18 17 -20 23 -49 15 -74 -6 -22
-9 -24 -10 -9 -2 11 -6 0 -10 -25 -5 -25 -13 -63 -20 -85 -18 -61 -23 -103
-14 -122 14 -32 12 -52 -4 -45 -10 3 -13 1 -8 -6 3 -6 2 -13 -4 -17 -5 -3 -10
-11 -10 -16 0 -6 5 -7 12 -3 19 12 101 4 125 -12 12 -7 29 -14 38 -14 20 0 30
26 17 43 -10 13 -8 119 3 137 3 5 3 15 0 20 -4 6 -1 9 7 8 7 -2 14 7 16 18 3
20 6 21 49 12 30 -7 53 -7 68 0 32 15 48 -18 41 -87 -3 -37 -1 -51 7 -48 17 5
25 295 10 334 -4 11 -2 14 5 9 7 -4 12 -2 12 3 0 15 63 14 82 -1z m-221 -185
c13 -16 12 -17 -3 -4 -10 7 -18 15 -18 17 0 8 8 3 21 -13z m-99 -15 c3 -7 -1
-28 -8 -47 -15 -42 -18 -93 -5 -106 5 -6 2 -17 -8 -26 -15 -15 -19 -15 -53 7
-36 23 -38 27 -38 78 0 35 5 58 15 66 8 7 12 17 8 23 -3 6 -1 7 5 3 7 -4 12
-2 12 3 0 15 67 14 72 -1z m356 -335 c4 -27 -45 -65 -111 -87 -54 -18 -122
-22 -112 -6 3 6 15 10 26 10 20 0 67 28 134 79 44 34 58 35 63 4z m25 -60 c14
-13 -26 -43 -57 -42 l-31 0 25 12 c14 6 29 17 33 24 9 14 20 17 30 6z m-363
-36 c0 -8 -12 -24 -26 -38 -14 -13 -32 -36 -40 -51 -17 -33 -45 -50 -63 -38
-18 11 0 65 36 107 21 23 37 32 61 32 20 1 32 -4 32 -12z m-319 -115 c-40 -37
-69 -54 -81 -47 -15 9 -12 48 5 71 8 10 15 29 15 42 0 14 8 26 23 31 19 7 25
3 43 -33 l20 -40 -25 -24z m167 57 c5 -26 -37 -68 -79 -79 -22 -6 -44 -10 -48
-8 -4 2 -2 21 5 43 l12 40 1 -32 c1 -42 16 -42 66 2 l40 35 -58 0 c-32 0 -56
3 -54 8 3 4 29 7 59 6 39 0 54 -4 56 -15z m184 -34 c-2 -22 -11 -56 -20 -75
-9 -19 -18 -36 -19 -38 0 -2 -7 -5 -15 -6 -7 -1 -23 -8 -36 -15 -26 -14 -62
-6 -62 13 0 21 27 38 50 31 16 -5 20 -2 20 15 0 12 10 44 21 71 18 40 26 49
43 47 18 -3 21 -9 18 -43z m233 -49 c20 -14 23 -23 32 -107 5 -52 4 -57 -16
-64 -20 -6 -21 -12 -21 -146 0 -76 4 -139 8 -139 16 0 32 25 32 49 0 15 4 32
9 40 7 11 11 4 16 -25 9 -56 14 -66 25 -59 6 4 7 40 3 95 -5 79 -4 90 11 96
10 4 21 3 25 -2 5 -5 11 -75 15 -156 6 -138 5 -149 -13 -167 -11 -11 -17 -21
-15 -24 2 -2 -14 -10 -36 -17 -22 -7 -40 -17 -40 -22 0 -4 -5 -8 -11 -8 -13 0
-5 70 12 101 8 15 17 18 54 12 38 -5 45 -3 45 11 0 9 -8 16 -20 16 -12 0 -35
7 -53 16 -46 24 -287 18 -303 -7 -7 -12 -51 -11 -59 1 -3 6 -2 10 4 10 5 0 12
13 16 30 4 16 11 33 17 36 23 15 39 74 29 112 -5 20 -12 80 -16 133 -6 81 -4
97 9 102 10 4 22 -5 35 -27 20 -32 56 -139 63 -184 2 -12 7 -21 13 -20 11 3 7
71 -5 78 -4 3 -13 25 -20 50 -15 61 -43 130 -52 130 -5 0 -8 7 -8 15 0 8 6 15
13 15 16 0 84 -62 115 -105 17 -24 21 -26 22 -11 0 10 -16 38 -35 62 -43 52
-46 81 -7 87 57 8 89 7 107 -7z m94 -48 c5 -13 18 -32 30 -42 24 -22 27 -54 7
-81 -12 -16 -16 -17 -30 -6 -9 7 -16 24 -16 37 0 12 -4 26 -10 29 -13 8 -13
85 0 85 6 0 14 -10 19 -22z m-513 -28 c13 -13 6 -210 -7 -224 -5 -6 -9 -38 -9
-73 0 -60 1 -64 28 -73 60 -22 74 -40 47 -62 -9 -7 -24 -20 -34 -28 -19 -18
-84 -50 -99 -50 -15 0 -27 43 -14 48 6 2 8 18 5 40 -3 28 -2 33 6 22 9 -12 11
-10 11 10 1 14 2 53 3 88 2 70 -8 84 -16 20 -3 -24 -12 -90 -21 -148 -9 -58
-16 -122 -16 -142 0 -36 2 -38 30 -38 20 0 30 -5 30 -15 0 -22 -138 -157 -156
-153 -8 2 -15 6 -15 11 1 4 1 28 1 53 0 36 3 45 14 41 20 -8 24 18 31 183 3
80 8 156 10 170 3 14 7 67 10 118 5 104 34 188 69 202 30 12 80 12 92 0z
m-206 -20 c0 -5 -6 -10 -14 -10 -8 0 -16 -6 -19 -12 -2 -7 -7 -10 -11 -7 -3 3
-4 14 0 23 7 17 44 23 44 6z m352 -86 c10 -60 12 -127 4 -150 -5 -18 -17 -22
-62 -26 -31 -3 -59 -11 -64 -18 -15 -25 -22 30 -11 93 6 34 13 79 16 99 5 32
11 39 38 46 49 13 71 1 79 -44z m-352 13 c0 -29 -26 -67 -46 -67 -32 0 6 88
39 90 4 0 7 -10 7 -23z m334 -223 c4 -9 -1 -27 -9 -40 l-16 -24 -41 21 -41 21
29 19 c36 23 70 24 78 3z m-79 -286 c-19 -293 -13 -460 18 -480 10 -6 28 -170
30 -280 1 -32 4 -58 7 -58 3 0 6 -28 8 -63 2 -34 8 -64 13 -65 5 -2 6 -8 3
-13 -3 -6 1 -25 10 -44 9 -18 18 -52 20 -74 2 -22 8 -46 12 -53 13 -19 33
-117 33 -163 1 -23 5 -45 9 -50 13 -15 33 -141 33 -214 1 -64 -10 -87 -38 -76
-7 2 -13 0 -13 -5 0 -6 -9 -10 -20 -10 -11 0 -20 -5 -20 -12 0 -6 -3 -8 -6 -5
-4 4 -20 -5 -36 -18 -16 -14 -34 -25 -39 -25 -6 0 -7 -5 -3 -12 4 -7 3 -8 -5
-4 -7 5 -27 -3 -46 -18 -24 -19 -36 -23 -41 -14 -4 6 -2 14 4 16 7 2 12 10 12
18 0 8 4 14 8 14 4 0 17 19 29 43 11 23 39 63 61 88 23 26 38 50 34 54 -4 5
-2 6 3 2 36 -20 97 132 63 157 -8 6 -17 30 -21 54 -3 27 -14 50 -27 62 -17 15
-21 28 -18 62 2 32 0 42 -11 40 -8 -2 -11 3 -8 13 4 8 1 15 -4 15 -7 0 -9 11
-6 28 3 15 0 33 -8 42 -7 8 -16 36 -18 61 -3 26 -10 55 -15 65 -5 11 -15 44
-22 74 -7 30 -19 67 -26 81 -7 15 -15 44 -18 65 -2 22 -9 38 -15 36 -6 -1 -11
7 -11 18 0 22 -26 106 -40 132 -6 10 -10 25 -10 33 0 9 -7 26 -15 38 -10 17
-14 59 -16 171 l-1 149 30 29 c17 15 34 28 38 28 4 0 18 10 31 22 18 17 23 32
23 75 0 61 13 93 37 93 14 0 15 -13 8 -122z m-77 63 c23 -14 10 -46 -21 -49
-21 -3 -27 1 -27 15 0 18 17 43 30 43 3 0 11 -4 18 -9z m-132 -295 c6 -16 -12
-56 -25 -56 -5 0 -11 10 -14 22 -10 35 27 66 39 34z"/>
<path fill="white" d="M4368 6700 c18 -4 42 -17 53 -29 24 -25 29 -26 29 -5 0 8 -4 12 -10
9 -5 -3 -10 0 -10 8 0 18 -22 27 -63 26 l-32 -1 33 -8z"/>
<path fill="white" d="M4073 6136 c-7 -33 -13 -69 -13 -80 0 -18 1 -19 16 -5 11 12 14 32
12 80 l-3 64 -12 -59z"/>
<path fill="white" d="M5488 7893 c7 -3 16 -2 19 1 4 3 -2 6 -13 5 -11 0 -14 -3 -6 -6z"/>
<path fill="white" d="M4915 7760 c-3 -5 3 -10 14 -10 12 0 21 5 21 10 0 6 -6 10 -14 10 -8
0 -18 -4 -21 -10z"/>
<path fill="white" d="M4370 7610 c0 -5 16 -10 35 -10 19 0 35 5 35 10 0 6 -16 10 -35 10
-19 0 -35 -4 -35 -10z"/>
<path fill="white" d="M4362 7558 c3 -7 23 -14 46 -16 34 -3 41 0 36 12 -8 20 -88 23 -82 4z"/>
<path fill="white" d="M4335 7460 c-3 -5 -15 -10 -26 -10 -10 0 -19 -4 -19 -10 0 -13 16
-13 60 0 22 6 46 6 69 0 42 -11 52 -5 25 15 -22 16 -100 20 -109 5z"/>
<path fill="white" d="M4465 5430 c-4 -12 -5 -24 -2 -27 3 -2 8 5 12 17 4 12 5 24 2 27 -3
2 -8 -5 -12 -17z"/>
<path fill="white" d="M4430 5314 c-6 -14 -10 -38 -10 -54 0 -16 -4 -32 -10 -35 -12 -7 -14
-142 -2 -149 4 -2 6 24 4 60 -3 41 0 69 8 79 6 8 13 30 15 49 2 20 6 44 10 56
9 29 -4 25 -15 -6z"/>
<path fill="white" d="M4430 5025 c0 -23 16 -52 25 -44 3 3 -1 19 -10 35 -12 23 -15 25 -15
9z"/>
<path fill="white" d="M4466 4870 c3 -25 9 -189 13 -365 4 -240 9 -325 19 -340 l14 -20 -8
20 c-5 11 -11 175 -14 365 -4 257 -9 350 -18 365 -12 17 -12 14 -6 -25z"/>
<path fill="white" d="M4511 4108 c0 -10 -10 -27 -21 -38 -11 -11 -20 -21 -20 -23 0 -2 19
-4 43 -4 37 0 48 -6 101 -57 43 -40 62 -53 68 -44 5 9 1 14 -12 16 -12 2 -20
11 -20 22 0 14 -5 18 -17 13 -9 -4 -14 -2 -10 3 3 6 2 16 -4 24 -5 10 -9 11
-9 3 0 -7 -7 -10 -15 -7 -8 4 -13 10 -10 14 6 9 -40 60 -54 60 -5 0 -12 8 -14
18 -4 16 -5 16 -6 0z"/>
<path fill="white" d="M4540 3955 c0 -8 5 -15 10 -15 6 0 10 7 10 15 0 8 -4 15 -10 15 -5 0
-10 -7 -10 -15z"/>
<path fill="white" d="M4699 3908 c10 -29 -16 -83 -46 -97 -28 -13 -29 -21 -2 -49 23 -25
18 -42 -12 -42 -20 0 -85 62 -94 90 -3 8 -14 21 -25 27 -16 11 -18 10 -14 -2
4 -8 9 -15 13 -15 3 0 12 -12 18 -27 16 -35 91 -113 108 -113 16 0 59 50 82
94 16 29 17 52 8 101 -2 11 -4 22 -4 25 -1 3 -10 11 -21 17 -17 12 -18 11 -11
-9z"/>
<path fill="white" d="M4290 3859 c-19 -4 -36 -12 -38 -18 -2 -6 -9 -11 -16 -11 -42 0 -106
-97 -106 -159 0 -53 46 -131 77 -131 7 0 44 -31 82 -70 73 -75 88 -81 162 -60
37 11 61 36 72 78 8 32 -32 187 -55 212 -10 11 -17 20 -14 20 3 0 -5 21 -16
47 -33 75 -83 106 -148 92z m91 -50 c35 -37 35 -42 8 -78 -17 -24 -19 -32 -9
-50 8 -15 17 -20 30 -16 11 3 28 1 39 -4 17 -9 19 -20 17 -66 -2 -30 -9 -62
-16 -70 -14 -17 -80 -21 -80 -5 0 6 -11 15 -24 20 -14 5 -26 19 -28 32 -2 13
-10 23 -18 23 -8 0 -14 -6 -13 -12 4 -16 -39 -27 -71 -19 -33 8 -66 65 -66
112 0 61 37 106 120 146 53 25 78 22 111 -13z m93 -346 c-20 -15 -36 -13 -42
5 -2 7 3 12 11 12 8 0 21 7 28 17 13 15 14 15 18 -2 2 -10 -5 -25 -15 -32z
m-116 6 c-2 -6 -8 -10 -13 -10 -5 0 -11 4 -13 10 -2 6 4 11 13 11 9 0 15 -5
13 -11z"/>
<path fill="white" d="M4307 3667 c-3 -7 -3 -26 0 -41 5 -24 9 -26 35 -21 22 5 33 2 42 -11
9 -12 15 -14 20 -5 13 21 -2 43 -24 36 -14 -4 -20 -2 -20 8 0 13 -30 47 -42
47 -3 0 -8 -6 -11 -13z"/>
<path fill="white" d="M666 8426 c-14 -23 -16 -82 -16 -560 0 -294 3 -541 6 -550 6 -14 63
-16 550 -16 l544 0 5 23 c9 35 1 1104 -8 1114 -5 4 -246 9 -537 11 l-527 3
-17 -25z m1044 -72 c6 -15 10 -214 10 -495 0 -456 -1 -470 -20 -489 -19 -19
-33 -20 -491 -20 -305 0 -477 4 -490 10 -18 10 -19 27 -19 503 0 370 3 496 12
505 9 9 134 12 500 12 l488 0 10 -26z"/>
<path fill="white" d="M1166 8309 c-25 -20 -28 -20 -51 -5 -51 34 -71 3 -31 -48 33 -44 86
-204 86 -262 0 -73 -11 -84 -80 -84 -79 0 -232 51 -270 90 -24 24 -30 27 -40
15 -9 -11 -9 -23 0 -51 8 -23 9 -39 3 -43 -26 -17 -18 -132 8 -116 15 10 10
-17 -7 -36 -19 -21 -12 -49 11 -49 9 0 31 11 48 24 51 39 115 57 219 63 l97 6
7 -28 c16 -66 -31 -247 -79 -302 -24 -27 -19 -59 8 -55 11 2 22 8 23 13 7 17
32 9 48 -16 20 -30 63 -34 71 -7 2 10 13 24 25 31 16 10 23 10 37 -3 24 -22
51 -20 51 3 0 11 -5 23 -10 26 -26 16 -78 164 -87 246 -9 85 0 94 88 90 96 -4
249 -55 249 -82 0 -5 11 -9 25 -9 29 0 34 24 9 51 -15 17 -14 20 5 48 25 35
27 78 5 102 -15 16 -14 20 2 48 16 28 17 33 3 46 -19 19 -45 11 -52 -16 -3
-10 -13 -22 -24 -25 -10 -3 -33 -13 -51 -21 -36 -16 -63 -20 -185 -30 l-79 -6
7 79 c3 43 11 84 16 91 6 6 8 16 5 22 -3 5 4 31 16 58 12 26 22 52 22 56 1 5
8 14 16 20 35 28 42 44 25 61 -15 15 -19 15 -45 -4 l-29 -20 -37 25 c-45 30
-45 30 -78 4z m50 -374 c6 -31 10 -35 38 -35 18 0 35 -3 39 -6 10 -11 -5 -34
-22 -34 -21 0 -46 -43 -36 -60 9 -14 -11 -30 -37 -30 -13 0 -18 8 -18 28 0 36
-10 49 -40 53 -14 2 -26 12 -28 22 -3 13 3 17 27 17 19 0 31 5 31 13 0 18 23
67 32 67 4 0 10 -16 14 -35z"/>
<path fill="white" d="M6890 7893 c0 -296 -3 -548 -6 -560 l-6 -23 546 0 546 0 0 554 c0
496 -2 554 -16 560 -9 3 -252 6 -540 6 l-524 0 0 -537z m1019 463 c8 -9 10
-149 9 -502 l-3 -489 -495 0 -495 0 -3 490 c-1 270 0 496 3 503 7 19 968 18
984 -2z"/>
<path fill="white" d="M7286 8313 c-14 -14 -5 -54 19 -79 48 -52 92 -254 66 -302 -10 -19
-21 -22 -67 -22 -98 0 -247 49 -272 89 -14 25 -35 27 -52 6 -9 -11 -8 -20 9
-44 l21 -30 -20 -14 c-27 -18 -23 -65 7 -96 27 -27 30 -49 8 -57 -21 -8 -19
-44 2 -44 9 0 24 6 32 13 9 8 49 28 89 45 61 27 84 32 150 32 47 0 83 -5 90
-12 32 -32 -10 -232 -64 -305 -39 -52 -27 -89 18 -54 16 13 29 17 39 10 8 -5
10 -9 5 -9 -5 0 -1 -9 9 -20 26 -29 57 -25 77 10 19 34 34 37 66 14 12 -8 27
-12 32 -9 13 8 13 45 0 45 -13 0 -60 102 -60 130 0 11 -7 50 -16 86 -13 50
-14 71 -6 90 11 22 17 24 79 24 38 -1 86 -7 108 -15 22 -8 47 -15 56 -15 9 0
35 -13 57 -30 23 -16 48 -30 56 -30 25 0 28 18 7 39 -20 20 -20 20 10 57 36
46 37 67 2 92 -28 20 -28 21 -11 50 13 22 14 32 6 40 -18 18 -36 14 -48 -8 -6
-11 -17 -20 -25 -20 -9 0 -23 -4 -33 -9 -65 -33 -133 -51 -194 -51 -74 0 -83
11 -75 96 10 103 46 203 89 247 25 26 26 29 11 46 -18 22 -39 18 -54 -10 -13
-25 -32 -24 -44 4 -8 17 -20 23 -53 25 -37 3 -44 0 -49 -17 -5 -21 -33 -30
-33 -11 0 12 -35 31 -44 23z m154 -444 c0 -4 -9 -13 -19 -18 -15 -9 -20 -7
-24 9 -3 10 -3 21 0 23 7 7 43 -4 43 -14z"/>
<path fill="white" d="M2440 2921 c-14 -27 -14 -895 0 -922 11 -19 42 -19 1903 -19 1459 0
1896 3 1905 12 9 9 12 126 12 464 0 249 -3 459 -6 468 -6 15 -183 16 -1905 16
-1867 0 -1898 0 -1909 -19z m864 -56 c13 -13 15 -69 15 -399 0 -308 -3 -387
-14 -402 -13 -18 -34 -19 -403 -19 -309 0 -392 3 -405 13 -14 12 -16 58 -16
400 1 336 3 389 17 405 14 16 46 17 403 17 334 0 390 -2 403 -15z m954 6 c17
-10 19 -798 2 -815 -14 -14 -748 -20 -784 -6 l-26 10 0 404 c0 314 3 405 13
409 21 9 781 7 795 -2z m956 3 c14 -5 16 -51 16 -415 l0 -409 -407 2 -408 3
-3 399 c-1 286 1 403 9 412 9 11 83 14 394 14 211 0 390 -3 399 -6z m975 -7
c7 -9 11 -135 11 -404 -1 -350 -2 -392 -17 -404 -13 -11 -89 -13 -402 -11
-212 2 -389 6 -393 9 -5 2 -8 186 -8 408 0 313 3 404 13 408 6 3 186 6 398 6
309 1 389 -2 398 -12z m-1831 -9 c-6 -18 -28 -21 -28 -4 0 9 7 16 16 16 9 0
14 -5 12 -12z m972 -794 c0 -14 -3 -15 -17 -3 -10 7 -20 15 -22 16 -2 2 5 3
17 3 14 0 22 -6 22 -16z"/>
<path fill="white" d="M2780 2819 c0 -5 4 -7 10 -4 5 3 7 0 4 -8 -3 -8 6 -31 20 -51 34 -51
63 -211 43 -243 -10 -15 -79 -24 -94 -12 -7 6 -20 9 -28 5 -20 -7 -122 31
-146 55 -29 29 -52 14 -44 -28 5 -26 2 -40 -11 -54 -13 -15 -14 -22 -5 -33 7
-8 20 -12 29 -9 10 3 13 1 7 -4 -12 -9 -14 -78 -2 -89 4 -4 21 2 37 14 16 12
35 22 43 22 7 0 18 5 24 11 13 13 152 19 176 7 36 -19 5 -191 -45 -245 -30
-32 -17 -56 25 -48 26 5 36 3 40 -9 8 -19 53 -21 64 -3 10 17 51 28 59 16 9
-15 24 0 24 26 0 12 -6 25 -14 28 -32 13 -70 230 -42 240 6 2 41 3 77 2 68 -3
132 -19 159 -41 31 -26 43 -21 45 19 1 22 8 43 15 47 11 7 12 16 2 46 -6 20
-9 41 -6 46 9 14 -7 48 -22 48 -8 0 -17 -7 -20 -15 -4 -8 -14 -15 -24 -15 -9
0 -31 -7 -48 -16 -18 -8 -36 -13 -42 -9 -5 3 -20 0 -32 -6 -28 -15 -86 -13
-103 4 -29 29 4 217 42 240 7 4 13 19 13 32 0 22 -4 25 -40 25 -22 0 -40 4
-40 9 0 10 -51 8 -68 -2 -5 -4 -22 -3 -37 3 -34 13 -45 13 -45 -1z m145 -359
c0 -21 -4 -25 -29 -23 -37 3 -40 7 -26 33 16 30 55 24 55 -10z"/>
<path fill="white" d="M3822 2818 c-6 -6 -22 -10 -36 -10 -29 0 -32 -11 -13 -48 23 -45 46
-134 49 -198 3 -34 1 -57 -2 -51 -5 7 -9 6 -13 -3 -4 -12 -16 -13 -54 -7 -126
21 -185 38 -198 58 -5 9 -45 16 -45 8 0 -1 4 -16 9 -34 7 -24 6 -33 -5 -37
-16 -6 -20 -66 -4 -66 16 0 23 -49 10 -65 -19 -23 16 -32 41 -9 30 27 86 45
164 54 74 8 95 2 95 -31 0 -11 4 -19 9 -19 13 0 -27 -159 -49 -196 -26 -41
-26 -64 0 -57 11 3 31 -2 45 -11 32 -21 40 -20 64 5 15 16 27 20 46 15 40 -10
48 2 26 37 -11 18 -22 49 -26 69 -4 21 -10 36 -14 34 -3 -2 -7 8 -8 22 -2 15
-5 51 -9 80 l-6 52 74 0 c45 0 84 -6 102 -15 15 -8 35 -15 44 -15 9 0 26 -10
38 -21 14 -13 29 -19 40 -15 15 6 15 9 -5 30 -20 21 -22 32 -18 78 2 30 12 66
22 81 16 25 16 27 1 33 -11 4 -26 -2 -40 -15 -26 -24 -111 -44 -196 -45 l-55
-1 1 55 c1 79 21 160 49 200 29 40 20 56 -20 38 -24 -11 -29 -10 -41 7 -15 21
-57 28 -72 13z m53 -381 c-8 -4 -15 -16 -15 -25 0 -11 -5 -8 -14 9 -11 21 -11
35 -3 61 l11 35 18 -36 c16 -31 16 -36 3 -44z"/>
<path fill="white" d="M4819 2820 c-14 -4 -43 -7 -63 -5 -42 2 -46 -11 -16 -59 44 -72 66
-231 34 -257 -30 -25 -201 16 -266 63 -26 19 -31 4 -14 -46 16 -46 13 -131 -5
-142 -15 -9 -10 -34 7 -34 9 0 27 9 41 20 14 11 33 20 42 20 9 0 25 7 35 15
29 22 162 21 170 -1 9 -25 7 -75 -6 -119 -6 -22 -11 -45 -9 -52 1 -7 -10 -30
-24 -52 -30 -49 -34 -87 -7 -76 39 17 52 17 58 1 9 -25 40 -19 66 12 23 27 24
27 42 10 42 -39 43 6 2 67 -27 39 -52 170 -41 212 4 15 10 22 12 16 3 -8 24
-13 56 -12 40 0 47 3 32 10 -15 7 -11 7 15 3 19 -3 48 -12 64 -20 16 -8 33
-14 38 -14 5 0 22 -10 37 -21 16 -12 34 -19 39 -15 12 7 16 226 4 226 -5 0
-35 -14 -67 -31 -64 -34 -203 -56 -217 -35 -24 36 2 205 39 249 13 16 23 35
23 43 0 16 -26 19 -35 4 -9 -15 -22 -12 -42 9 -13 13 -25 16 -44 11z m24 -406
c-3 -24 -9 -44 -12 -44 -15 0 -31 25 -31 47 0 14 -6 23 -15 23 -22 0 -18 17
10 42 14 12 25 29 26 37 0 9 7 -1 14 -22 9 -24 12 -55 8 -83z"/>
<path fill="white" d="M5758 2823 c-14 -14 -22 -15 -43 -5 -32 15 -45 15 -45 1 0 -5 4 -8 9
-5 5 4 7 -3 4 -13 -3 -11 4 -32 15 -48 33 -45 53 -130 44 -188 l-7 -50 -76 0
c-41 1 -90 7 -109 15 -19 8 -43 13 -52 12 -10 -2 -18 1 -18 6 0 6 -7 13 -16
16 -13 5 -15 1 -12 -25 4 -24 1 -33 -13 -36 -14 -4 -17 -12 -12 -37 3 -17 12
-35 20 -39 17 -11 17 -41 -2 -57 -11 -9 -12 -16 -3 -30 11 -18 13 -17 34 6 46
49 175 81 242 59 23 -7 26 -27 22 -115 -2 -44 -30 -122 -47 -133 -7 -4 -13
-19 -13 -32 0 -21 3 -23 34 -18 19 3 36 1 40 -6 9 -14 53 -14 61 0 4 6 22 9
41 7 46 -4 59 12 36 43 -30 41 -55 105 -47 128 3 12 3 21 -2 21 -4 0 -8 23 -9
50 0 46 2 51 25 57 43 12 106 7 141 -10 18 -10 38 -17 45 -17 7 0 22 -9 35
-20 35 -30 58 -23 39 13 -8 14 -8 18 0 13 7 -5 11 2 11 18 0 14 5 26 10 26 15
0 11 52 -5 74 -8 11 -12 29 -9 43 7 26 -10 31 -35 10 -25 -21 -99 -47 -116
-41 -8 3 -15 1 -15 -5 0 -7 -21 -11 -55 -11 -66 0 -70 6 -70 107 0 40 -3 73
-7 73 -5 0 -8 20 -8 45 0 36 3 45 18 45 15 0 15 2 2 11 -11 8 -4 9 28 6 28 -3
42 -1 42 6 0 7 -20 13 -47 15 -29 1 -51 8 -56 17 -11 20 -29 19 -49 -2z m39 1
c-3 -3 -12 -4 -19 -1 -8 3 -5 6 6 6 11 1 17 -2 13 -5z m19 -358 c12 -27 3 -36
-36 -36 -24 0 -33 15 -25 40 9 29 47 26 61 -4z"/>
<path fill="white" d="M3582 1868 c-9 -9 -12 -184 -12 -736 0 -614 2 -726 14 -738 12 -12
127 -14 760 -14 l745 0 -2 747 -2 748 -745 3 c-572 2 -749 -1 -758 -10z m1448
-67 c6 -13 10 -242 10 -675 0 -639 0 -656 -19 -666 -29 -15 -1359 -14 -1377 1
-19 16 -21 1328 -2 1347 9 9 177 12 695 12 664 0 683 -1 693 -19z"/>
<path fill="white" d="M4145 1747 c-77 -27 -89 -35 -87 -52 2 -11 5 -22 7 -23 5 -5 77 20
90 30 5 4 24 8 41 8 23 0 38 7 48 22 9 12 16 17 16 10 0 -15 36 -16 46 -1 4 8
9 8 17 0 6 -6 27 -11 47 -11 20 0 41 -5 48 -12 8 -8 15 -8 27 2 12 10 15 10
15 0 0 -8 10 -11 30 -8 20 3 30 0 30 -8 0 -7 16 -18 36 -23 20 -6 45 -18 55
-27 15 -14 21 -15 34 -4 13 11 15 10 10 -1 -3 -8 10 -26 32 -43 21 -17 42 -36
46 -43 4 -7 14 -13 21 -13 8 0 21 -11 30 -25 9 -14 14 -25 10 -25 -3 0 6 -14
20 -31 15 -17 33 -47 41 -65 8 -19 19 -34 25 -34 6 0 9 -4 6 -9 -3 -5 1 -26
10 -47 21 -49 24 -267 5 -334 -16 -54 -59 -149 -78 -170 -32 -36 -83 -102 -83
-109 0 -3 -14 -12 -30 -19 -17 -8 -36 -19 -43 -25 -29 -28 -128 -67 -197 -78
-81 -13 -146 -14 -255 -4 -38 3 -80 6 -92 6 -11 0 -24 6 -27 14 -3 8 -15 15
-27 15 -11 0 -34 10 -51 23 -44 32 -145 133 -158 157 -6 11 -16 19 -23 17 -7
-1 -11 7 -9 19 1 12 -4 27 -13 34 -8 7 -15 20 -15 29 0 9 -7 29 -15 44 -8 16
-16 55 -17 88 -1 32 -6 59 -10 59 -10 0 -11 134 -1 144 4 3 8 14 9 24 13 89
18 109 31 124 9 10 13 24 10 33 -4 8 -1 14 5 12 7 -1 14 7 16 17 2 11 14 27
25 37 19 15 20 19 7 35 -14 18 -14 18 3 5 16 -13 19 -12 23 5 3 10 25 35 49
53 24 19 42 38 39 43 -3 4 1 5 9 3 7 -3 22 3 32 15 10 11 25 20 33 20 9 0 12
6 8 16 -3 9 -6 20 -6 25 0 28 -56 -9 -151 -99 -69 -66 -118 -149 -158 -269
-17 -51 -21 -87 -21 -198 0 -127 2 -141 30 -213 16 -43 47 -105 69 -137 38
-60 116 -145 132 -145 4 0 12 -6 16 -13 12 -19 28 -27 178 -98 11 -5 41 -11
66 -13 26 -2 51 -6 55 -8 19 -10 254 11 254 23 0 5 7 9 16 9 21 0 124 51 124
62 0 4 7 8 16 8 8 0 51 36 95 80 128 128 180 257 182 450 1 87 -8 170 -23 205
-44 113 -83 176 -151 245 -134 139 -254 191 -444 196 -90 2 -109 -1 -190 -29z"/>
<path fill="white" d="M4223 1563 c-14 -7 -34 -14 -46 -16 -35 -6 -77 -26 -77 -36 0 -5 -6
-11 -14 -13 -16 -4 -106 -107 -106 -122 0 -6 16 7 35 29 18 22 37 43 42 47 4
4 18 16 29 26 12 11 38 25 59 32 33 11 40 10 63 -7 35 -26 67 -112 81 -212 14
-107 8 -115 -69 -108 -157 16 -218 38 -256 94 l-21 31 -17 -47 c-25 -70 -23
-210 4 -260 5 -11 10 -29 10 -40 0 -12 5 -21 10 -21 6 0 10 10 10 23 1 47 55
81 185 115 75 20 110 21 132 4 21 -16 21 -21 12 -102 -18 -150 -57 -219 -126
-225 -25 -2 -38 3 -46 16 -7 11 -17 19 -23 19 -16 0 -90 74 -114 113 -13 21
-20 26 -20 15 0 -25 96 -124 164 -170 43 -29 68 -39 87 -36 16 3 26 1 23 -3
-7 -12 61 -22 103 -15 21 3 53 6 71 6 21 -1 31 3 27 10 -4 6 4 6 20 -2 23 -10
29 -9 48 14 12 14 39 33 60 42 20 9 37 21 37 26 0 6 5 10 10 10 16 0 82 78
101 119 34 73 44 127 44 242 0 97 -3 120 -17 136 -10 11 -18 26 -18 34 0 8 -7
23 -15 33 -13 17 -15 17 -15 4 0 -9 5 -20 10 -23 14 -9 12 -32 -7 -72 -18 -38
-57 -61 -128 -74 -22 -4 -66 -12 -97 -18 -101 -21 -115 5 -82 152 24 105 38
129 101 173 18 13 25 13 44 2 40 -23 51 -32 101 -80 26 -27 48 -46 48 -43 0 8
-23 48 -35 60 -25 26 -103 85 -114 85 -6 0 -11 5 -11 10 0 6 -15 10 -33 10
-18 0 -38 5 -45 12 -16 16 -189 17 -219 1z m134 -370 c6 -26 15 -39 28 -41 42
-7 48 -11 35 -27 -7 -8 -23 -15 -36 -15 -17 0 -24 -6 -24 -19 0 -25 -10 -51
-20 -51 -4 0 -11 11 -14 24 -8 34 -33 56 -63 56 -34 0 -24 22 15 32 23 6 34
16 38 36 14 55 28 57 41 5z m190 -124 c28 -8 55 -17 59 -22 4 -4 17 -7 29 -7
36 0 89 -80 64 -96 -5 -3 -9 -13 -9 -23 0 -20 -101 -131 -137 -149 -35 -19
-77 -14 -99 11 -27 31 -44 64 -44 84 0 10 -7 36 -15 58 -15 42 -20 147 -8 159
10 10 95 2 160 -15z"/>
<path fill="white" d="M3965 1349 c-4 -6 -5 -12 -2 -15 2 -3 7 2 10 11 7 17 1 20 -8 4z"/>
</g>
</svg>
