<?xml version="1.0" standalone="no"?>
<!DOCTYPE svg PUBLIC "-//W3C//DTD SVG 20010904//EN"
 "http://www.w3.org/TR/2001/REC-SVG-20010904/DTD/svg10.dtd">
<svg version="1.0" xmlns="http://www.w3.org/2000/svg"
 width="2400.000000pt" height="1080.000000pt" viewBox="0 0 2400.000000 1080.000000"
 preserveAspectRatio="xMidYMid meet">

<g transform="translate(0.000000,1080.000000) scale(0.100000,-0.100000)"
fill="#000000" stroke="none">
<path fill="white" d="M1567 9403 c-4 -3 -7 -200 -7 -438 0 -322 3 -434 12 -443 9 -9 105
-12 370 -12 l358 0 10 -26 c11 -27 14 -1113 4 -1151 l-6 -23 -1032 -2 -1031
-3 -3 -549 c-1 -397 1 -553 9 -562 10 -12 185 -14 1044 -14 933 0 1033 -2
1039 -16 8 -20 8 -3052 0 -3081 l-6 -22 -369 -3 c-355 -3 -369 -4 -383 -23
-13 -17 -15 -79 -13 -455 l2 -435 377 -5 c207 -3 380 -9 385 -13 4 -5 10 -284
13 -620 l5 -612 660 0 660 0 3 610 c2 559 3 611 19 623 13 9 108 12 394 12
344 0 377 1 383 17 4 9 6 205 6 436 -1 338 -4 425 -16 453 l-14 34 -383 0
c-210 0 -388 4 -395 8 -10 7 -12 323 -10 1548 l3 1539 1033 3 1032 2 0 565 0
565 -1012 2 -1013 3 0 585 0 585 382 3 383 2 5 23 c3 12 4 218 3 457 l-3 435
-1446 3 c-795 1 -1449 -1 -1452 -5z m2863 -22 c16 -31 14 -816 -3 -829 -9 -8
-136 -12 -384 -14 -296 -2 -373 -6 -387 -17 -15 -12 -16 -66 -14 -630 l3 -616
1009 -3 c729 -1 1013 -5 1023 -13 11 -10 13 -102 11 -523 l-3 -511 -1030 -5
-1030 -5 0 -1595 0 -1595 397 -5 c218 -3 400 -9 405 -13 4 -5 8 -194 8 -420
l0 -412 -385 -3 c-348 -2 -386 -4 -397 -19 -10 -13 -13 -149 -13 -599 0 -539
-1 -583 -17 -603 l-18 -21 -610 2 -610 3 -10 22 c-5 13 -13 23 -17 23 -5 0 -8
263 -8 584 0 475 -2 586 -13 595 -9 7 -129 12 -378 13 l-364 3 -3 407 c-2 360
0 408 14 422 13 14 61 16 378 16 268 0 365 3 374 12 17 17 17 3159 0 3176 -9
9 -255 12 -1044 12 l-1032 0 -6 23 c-10 38 -7 974 4 1001 l10 26 1030 0 1030
0 -2 633 -3 632 -368 5 c-312 4 -369 7 -377 20 -6 9 -10 179 -10 412 0 347 2
399 16 412 14 14 156 16 1414 16 1373 0 1399 0 1410 -19z"/>
<path fill="white" d="M1655 9317 c-3 -6 -4 -172 -3 -367 l3 -355 1344 -3 c1240 -2 1346 -1
1363 15 17 15 18 39 18 358 0 252 -3 344 -12 353 -18 18 -2707 17 -2713 -1z
m613 -346 c2 -223 -1 -318 -9 -327 -9 -11 -65 -14 -279 -14 -148 0 -275 3
-284 6 -14 5 -16 43 -16 323 0 175 3 321 7 324 4 4 135 6 292 5 l286 -3 3
-314z m696 296 c9 -38 6 -586 -4 -612 l-9 -24 -285 0 -286 0 -16 31 c-15 28
-16 63 -9 313 4 154 11 288 16 298 9 16 34 17 298 17 l289 0 6 -23z m690 7 c3
-9 6 -147 6 -308 0 -245 -2 -295 -15 -313 -15 -22 -19 -22 -289 -21 -151 0
-279 4 -286 8 -9 6 -12 77 -11 295 1 183 -2 291 -8 299 -7 9 -6 19 5 34 15 22
18 22 303 22 254 0 290 -2 295 -16z m686 -3 c6 -12 10 -130 10 -312 0 -258 -2
-295 -17 -311 -15 -17 -37 -18 -290 -18 -266 0 -274 1 -295 22 -21 21 -21 24
-15 303 3 155 11 293 16 308 l11 27 284 0 c272 0 286 -1 296 -19z"/>
<path fill="white" d="M1957 9245 c-4 -8 -15 -15 -25 -15 -30 0 -32 -10 -12 -51 11 -21 20
-47 20 -58 0 -11 5 -31 11 -45 10 -20 9 -30 -5 -51 -14 -22 -23 -25 -74 -25
-38 0 -71 7 -97 20 -38 19 -40 19 -44 3 -2 -10 -8 -23 -13 -30 -6 -8 -6 -24 2
-48 7 -20 9 -42 6 -50 -9 -24 5 -21 81 19 17 9 52 16 77 16 38 0 48 -4 62 -25
14 -22 15 -32 4 -73 -7 -26 -18 -61 -26 -79 -8 -17 -14 -35 -14 -41 0 -14 56
-23 100 -16 l37 6 -29 70 c-32 80 -34 104 -12 136 12 17 25 22 59 22 41 0 116
-26 123 -42 6 -14 32 -8 26 5 -3 8 -1 25 5 38 5 14 7 46 4 71 l-5 47 -47 -24
c-68 -35 -132 -47 -150 -30 -28 27 -13 150 27 228 2 4 -9 7 -24 7 -15 0 -35 7
-44 15 -16 14 -18 14 -23 0z m29 -292 c-3 -3 -13 -3 -22 1 -16 6 -15 8 2 21
16 12 19 12 22 -1 2 -9 1 -18 -2 -21z"/>
<path fill="white" d="M2632 9235 c-34 -18 -35 -21 -18 -54 9 -16 16 -43 16 -60 0 -16 5
-33 10 -36 14 -9 12 -47 -4 -67 -20 -27 -124 -25 -171 3 -20 12 -37 20 -39 18
-1 -2 -8 -23 -15 -47 -10 -35 -10 -49 1 -73 7 -16 16 -29 19 -29 4 0 27 9 53
21 31 13 62 19 94 17 l47 -3 3 -68 c2 -55 -1 -76 -18 -103 -26 -45 -25 -54 3
-54 12 0 33 -7 45 -16 17 -12 22 -12 22 -2 0 7 5 20 10 28 8 13 11 13 19 1 17
-26 31 -8 17 24 -20 47 -46 163 -40 180 8 20 111 20 138 0 11 -8 28 -15 38
-15 10 0 18 -4 18 -10 0 -5 7 -10 15 -10 9 0 12 6 9 15 -4 8 1 27 11 41 16 24
16 26 -1 38 -11 9 -15 21 -12 39 6 32 0 33 -47 7 -25 -14 -54 -20 -100 -20
-62 0 -65 1 -71 27 -4 14 -2 34 4 44 7 10 15 37 18 61 4 24 13 52 20 63 21 29
17 35 -19 35 -18 0 -37 4 -42 8 -6 5 -20 4 -33 -3z m58 -275 c0 -3 -9 -16 -19
-30 l-19 -25 -7 28 c-4 15 -4 39 0 54 l7 28 19 -25 c10 -14 19 -27 19 -30z"/>
<path fill="white" d="M3340 9245 c-7 -8 -22 -15 -35 -15 -34 0 -36 -10 -10 -45 14 -18 25
-45 25 -63 0 -17 5 -34 10 -37 15 -9 12 -37 -6 -74 -12 -24 -19 -30 -27 -22
-6 6 -31 11 -56 11 -26 1 -57 7 -71 15 -43 24 -57 19 -62 -22 -3 -21 -2 -51 2
-68 5 -27 9 -30 40 -27 19 2 45 10 58 18 14 9 40 14 65 12 l42 -3 3 -59 c2
-32 -2 -64 -7 -69 -6 -6 -11 -20 -11 -32 0 -12 -5 -26 -12 -33 -22 -22 9 -37
73 -36 33 1 62 4 66 7 3 4 -2 18 -11 31 -9 14 -16 36 -16 50 0 14 -4 28 -10
31 -5 3 -10 31 -10 61 l0 54 54 0 c32 0 72 -8 97 -20 27 -11 48 -15 53 -10 10
10 14 125 5 135 -4 3 -23 -3 -43 -15 -27 -14 -55 -20 -102 -20 l-66 0 6 43
c14 110 19 133 32 152 20 28 17 38 -10 31 -18 -4 -25 -1 -29 14 -6 24 -20 26
-37 5z m22 -272 c8 -64 -9 -85 -28 -35 -11 29 -2 72 15 72 5 0 11 -17 13 -37z"/>
<path fill="white" d="M4010 9237 c-14 -6 -26 -12 -28 -13 -1 0 7 -23 18 -50 16 -35 21 -65
18 -105 -3 -55 -3 -56 25 -56 24 0 27 4 27 33 0 18 5 36 10 39 6 3 10 26 10
50 0 24 5 47 10 50 6 3 10 19 10 36 0 27 -2 28 -20 17 -15 -10 -22 -10 -32 0
-14 14 -15 14 -48 -1z"/>
<path fill="white" d="M3800 9019 c-10 -35 -2 -89 17 -118 1 -2 14 4 27 13 14 9 43 16 65
16 22 0 43 5 46 10 3 6 17 10 31 10 27 0 28 -6 24 -99 -1 -29 -8 -68 -16 -87
-25 -61 -22 -64 61 -64 80 0 93 10 56 44 -12 11 -21 36 -25 69 -13 130 -16
137 -47 137 -24 0 -29 4 -29 25 0 23 -3 25 -50 25 -27 0 -50 4 -50 9 0 5 -16
12 -35 15 -19 4 -35 11 -35 15 0 5 -7 11 -15 15 -10 4 -17 -6 -25 -35z"/>
<path fill="white" d="M4225 9032 c-58 -30 -65 -32 -104 -32 -22 0 -42 -4 -45 -9 -11 -17 6
-41 29 -41 13 0 27 -4 30 -10 3 -5 23 -10 44 -10 24 0 49 -9 71 -25 19 -14 36
-25 38 -25 2 0 1 14 -3 30 -4 18 -2 36 4 44 9 10 8 24 -1 55 -14 45 -19 47
-63 23z"/>
<path fill="white" d="M2472 8528 c-9 -17 -13 -199 -15 -683 l-2 -660 -619 -3 c-559 -2
-621 -4 -638 -19 -17 -15 -18 -42 -18 -408 0 -381 1 -393 21 -419 l20 -26 627
-2 627 -3 5 -1620 c3 -891 9 -1626 13 -1632 6 -10 117 -13 498 -13 l489 0 0
1623 c0 892 4 1628 8 1634 6 10 151 13 648 15 l639 3 3 432 2 433 -627 2 -628
3 -3 669 c-1 474 -5 673 -13 683 -9 10 -106 13 -519 13 l-507 0 -11 -22z m995
-253 c2 -115 0 -215 -5 -221 -5 -7 -50 -8 -142 -3 -77 4 -139 3 -144 -2 -16
-15 -652 -11 -663 4 -6 6 -11 107 -12 225 l-2 212 483 -2 483 -3 2 -210z m1
-681 c2 -392 3 -422 20 -437 17 -15 80 -17 638 -19 l619 -3 3 -370 c1 -203 0
-380 -3 -392 l-5 -23 -643 -2 -642 -3 -5 -1630 -5 -1630 -462 -3 -463 -2 -2
1632 -3 1633 -645 5 -645 5 0 390 0 390 631 3 631 2 7 38 c3 20 6 215 6 433 0
218 3 399 7 402 3 4 221 6 482 5 l476 -3 3 -421z"/>
<path fill="white" d="M2588 8338 c-2 -28 -9 -35 -38 -45 -27 -9 -30 -12 -12 -12 14 -1 26
-9 31 -23 l8 -22 5 22 c7 26 53 31 62 6 10 -25 7 -74 -4 -74 -5 0 -10 -11 -10
-24 0 -13 -7 -27 -16 -30 -8 -3 -12 -11 -9 -16 9 -15 35 7 35 29 1 41 70 75
70 34 0 -13 3 -14 12 -5 9 9 9 17 -1 35 -27 50 2 84 38 46 17 -18 21 -36 21
-85 0 -35 5 -66 11 -69 21 -14 38 29 39 97 0 37 5 70 10 73 14 9 12 45 -2 45
-7 -1 -22 -11 -32 -24 -19 -23 -20 -23 -49 -6 -20 13 -40 17 -63 13 -39 -6
-74 17 -74 49 0 33 -29 20 -32 -14z m222 -135 c0 -41 -3 -54 -10 -43 -11 17
-13 61 -4 84 11 28 14 18 14 -41z"/>
<path fill="white" d="M3198 8326 c-24 -40 -25 -46 -11 -57 12 -11 17 -10 24 3 6 10 17 14
29 11 16 -4 19 -2 14 13 -4 11 -10 24 -14 29 -5 6 -9 18 -11 28 -3 13 -11 6
-31 -27z"/>
<path fill="white" d="M2930 8309 c0 -11 10 -23 24 -28 41 -16 47 -57 14 -101 -17 -23 -19
-33 -10 -42 8 -8 14 -5 21 16 9 21 15 25 34 20 17 -4 26 -1 31 11 8 23 26 9
26 -21 0 -17 -5 -24 -20 -24 -11 0 -20 -7 -20 -15 0 -11 6 -12 23 -6 20 7 22
16 25 90 3 84 -1 92 -38 69 -15 -10 -22 -9 -38 5 -10 9 -24 17 -30 17 -7 0
-12 4 -12 9 0 5 -7 11 -15 15 -10 4 -15 -1 -15 -15z"/>
<path fill="white" d="M3273 8288 c-12 -16 -16 -128 -4 -128 4 0 18 -9 31 -20 25 -21 50
-26 50 -10 0 6 -6 10 -14 10 -16 0 -26 22 -26 58 0 45 11 74 27 68 11 -4 11
-1 3 14 -12 22 -52 27 -67 8z"/>
<path fill="white" d="M2861 8203 c-1 -59 2 -73 14 -73 11 0 15 11 15 43 0 24 -4 47 -9 53
-5 5 -11 18 -14 29 -3 11 -5 -13 -6 -52z"/>
<path fill="white" d="M2555 7778 c3 -84 7 -274 8 -423 l2 -270 -625 -3 c-573 -2 -626 -3
-637 -19 -19 -25 -18 -626 0 -642 10 -8 197 -12 638 -13 l624 -3 5 -1625 5
-1625 354 -3 c230 -1 358 1 365 8 5 5 29 10 52 10 29 0 44 5 48 16 3 9 6 737
6 1619 l0 1603 23 6 c12 3 302 6 643 6 558 0 622 2 628 16 10 27 7 432 -4 439
-5 3 -11 5 -12 3 0 -2 -4 -94 -7 -206 -5 -157 -9 -205 -20 -211 -7 -5 -287 -6
-621 -3 -334 3 -619 2 -633 -2 l-27 -6 0 -1595 c0 -1011 -4 -1603 -10 -1619
l-10 -26 -253 0 c-161 0 -257 -4 -263 -10 -7 -7 -54 -10 -120 -8 l-109 3 -3
1627 -2 1628 -638 2 -637 3 -3 279 c-2 197 1 283 9 292 9 12 118 14 628 14
467 0 620 3 629 12 17 17 17 665 0 755 -10 54 -9 66 3 74 12 7 785 14 791 7 1
-2 5 -192 8 -423 l5 -420 625 -2 c623 -3 625 -3 643 -24 9 -12 17 -33 18 -48
l0 -26 10 25 c6 13 9 42 7 65 l-3 40 -635 5 -635 5 -3 423 -2 422 -436 0 -435
0 6 -152z"/>
<path fill="white" d="M2687 7823 c-4 -3 -7 -12 -7 -20 0 -10 58 -13 305 -13 298 0 305 0
305 20 0 20 -7 20 -298 20 -164 0 -302 -3 -305 -7z"/>
<path fill="white" d="M2676 7684 c-4 -10 1 -25 10 -35 16 -18 37 -19 304 -19 308 0 320 2
305 50 -6 20 -13 20 -310 20 -272 0 -304 -2 -309 -16z"/>
<path fill="white" d="M2932 7385 c-12 -15 -30 -25 -46 -25 -14 0 -26 -4 -26 -9 0 -12 74
-1 78 11 5 12 132 10 132 -2 0 -5 11 -10 24 -10 14 0 27 -4 31 -9 5 -9 62 -41
72 -41 2 0 -1 9 -7 20 -6 11 -17 20 -25 20 -8 0 -15 5 -15 10 0 6 -11 10 -25
10 -17 0 -29 8 -37 25 -10 23 -17 25 -74 25 -55 0 -65 -3 -82 -25z"/>
<path fill="white" d="M2828 7323 c7 -3 16 -2 19 1 4 3 -2 6 -13 5 -11 0 -14 -3 -6 -6z"/>
<path fill="white" d="M3260 7243 c1 -14 30 -48 30 -34 0 7 -7 19 -15 27 -8 9 -15 12 -15 7z"/>
<path fill="white" d="M2682 7100 c-16 -26 -15 -108 2 -139 12 -21 13 -13 15 68 1 50 0 91
-1 91 -2 0 -9 -9 -16 -20z"/>
<path fill="white" d="M2999 7111 c61 -7 76 -24 34 -39 -26 -10 -25 -10 20 -11 26 -1 47 1
47 3 0 3 -11 16 -24 30 -20 22 -31 26 -77 24 l-54 -1 54 -6z"/>
<path fill="white" d="M2860 7090 c0 -5 14 -7 33 -3 45 8 47 13 4 13 -20 0 -37 -4 -37 -10z"/>
<path fill="white" d="M2840 7054 c0 -9 -9 -27 -20 -41 -21 -27 -27 -116 -11 -158 5 -11 6
-26 4 -32 -7 -18 -63 -17 -63 1 0 7 -6 19 -14 26 -8 6 -12 18 -9 26 3 8 -1 14
-9 14 -10 0 -13 -11 -10 -40 4 -39 3 -40 -26 -40 -17 0 -32 -6 -36 -15 -3 -8
-1 -15 4 -15 6 0 10 5 10 10 0 6 31 10 74 10 41 0 78 -4 81 -10 3 -5 24 -10
46 -10 42 0 52 17 24 40 -8 7 -15 20 -15 29 0 9 -5 22 -12 29 -8 8 -4 18 19
39 16 15 35 38 42 51 15 29 71 30 118 1 l34 -21 -3 -117 -3 -116 -35 0 c-31 0
-35 3 -32 24 1 13 10 30 20 37 16 12 15 13 -5 14 -16 0 -23 -6 -23 -20 0 -10
-7 -23 -16 -28 -34 -19 24 -81 84 -89 35 -5 41 -2 59 23 12 17 23 53 26 86 3
32 8 62 12 67 9 15 33 2 41 -21 3 -11 17 -36 30 -55 l24 -36 0 31 c0 36 21 51
72 53 25 1 27 3 10 6 -15 3 -29 17 -37 36 -8 18 -14 26 -15 20 0 -8 -14 -13
-33 -13 -27 0 -36 6 -46 28 -8 15 -17 35 -22 44 -5 10 -9 35 -9 55 0 32 -5 41
-30 55 -30 17 -30 17 -30 -7 0 -23 -4 -25 -45 -25 -25 0 -48 -1 -52 -2 -5 -2
-9 9 -11 25 -3 24 -7 27 -43 27 -21 0 -39 -5 -39 -11 0 -6 -14 -9 -32 -7 -24
2 -33 8 -32 21 1 9 -2 17 -7 17 -5 0 -9 -7 -9 -16z m310 -99 c0 -29 -3 -30
-35 -9 -29 19 -24 34 11 34 19 0 24 -5 24 -25z"/>
<path fill="white" d="M3322 7030 c0 -19 2 -27 5 -17 2 9 2 25 0 35 -3 9 -5 1 -5 -18z"/>
<path fill="white" d="M4682 6915 c0 -16 2 -22 5 -12 2 9 2 23 0 30 -3 6 -5 -1 -5 -18z"/>
<path fill="white" d="M1564 6862 c13 -26 13 -30 -10 -59 -13 -17 -35 -34 -49 -37 -20 -5
-25 -12 -25 -39 0 -44 15 -57 66 -57 31 0 51 7 72 25 27 22 29 30 25 65 -5 36
-4 40 17 40 20 0 22 -4 16 -32 l-6 -32 23 22 c27 25 73 28 101 7 12 -9 39 -14
70 -13 51 1 51 2 9 5 -34 3 -43 8 -43 22 0 16 -6 18 -47 13 -41 -4 -46 -3 -40
12 4 10 7 20 7 22 0 10 48 3 66 -11 15 -11 56 -14 191 -15 103 0 174 -4 178
-10 10 -17 23 -11 19 8 -5 15 -20 17 -169 14 -144 -3 -165 -1 -165 13 0 12
-12 15 -60 15 -44 0 -61 4 -68 16 -5 10 -15 14 -21 10 -9 -6 -9 -11 0 -22 9
-11 8 -15 -5 -19 -9 -3 -23 -7 -31 -10 -9 -2 -18 2 -21 9 -3 8 -16 17 -29 20
-17 4 -22 11 -18 22 5 12 15 15 44 11 22 -3 39 -1 39 4 0 5 -34 9 -75 9 l-76
0 15 -28z"/>
<path fill="white" d="M4385 6883 c17 -3 34 -8 39 -13 12 -12 -25 -59 -49 -61 -13 -1 -10
-4 10 -8 23 -5 32 -3 39 11 5 10 18 18 28 18 16 0 19 -6 16 -32 -2 -20 -9 -33
-17 -33 -7 0 -17 -10 -22 -22 -6 -18 -2 -27 22 -48 17 -14 39 -25 50 -25 11 0
28 -5 38 -12 22 -13 38 -1 59 46 11 25 10 30 -5 43 -10 7 -30 19 -45 24 -15 6
-34 24 -42 40 -14 29 -14 30 10 39 14 6 32 10 40 10 8 0 14 7 14 15 0 12 -18
15 -107 14 -60 -1 -94 -4 -78 -6z"/>
<path fill="white" d="M2933 6873 c-18 -6 -16 -43 1 -43 16 0 30 30 19 40 -4 4 -14 5 -20 3z"/>
<path fill="white" d="M4140 6830 c0 -5 -11 -10 -23 -10 -13 0 -32 -9 -42 -20 -18 -20 -17
-20 18 -20 20 0 39 5 42 10 3 6 18 10 32 10 19 0 24 4 19 16 -3 9 -6 18 -6 20
0 2 -9 4 -20 4 -11 0 -20 -4 -20 -10z"/>
<path fill="white" d="M4223 6833 c9 -2 25 -2 35 0 9 3 1 5 -18 5 -19 0 -27 -2 -17 -5z"/>
<path fill="white" d="M2240 6781 c0 -5 7 -14 15 -21 11 -9 15 -27 13 -54 l-3 -41 -49 -3
-48 -3 36 -20 c33 -17 57 -19 266 -19 202 0 234 -2 258 -17 29 -19 63 -57 74
-82 4 -11 7 -8 7 11 1 14 -2 28 -6 30 -5 2 -19 24 -32 50 l-24 48 -225 2
c-246 3 -252 5 -238 61 l6 27 118 0 c112 0 142 7 142 32 0 15 -60 8 -66 -7 -5
-12 -26 -15 -99 -15 -73 0 -94 3 -99 15 -6 16 -46 21 -46 6z"/>
<path fill="white" d="M3358 6783 c6 -2 18 -2 25 0 6 3 1 5 -13 5 -14 0 -19 -2 -12 -5z"/>
<path fill="white" d="M3509 6770 c20 -18 39 -20 145 -20 82 0 126 -4 134 -12 9 -9 12 -8
12 5 0 15 -13 17 -115 17 -96 0 -115 3 -115 15 0 11 -11 15 -42 15 l-43 -1 24
-19z"/>
<path fill="white" d="M3930 6776 c0 -9 -13 -16 -32 -19 l-33 -4 35 -1 c26 -2 39 4 48 18
10 17 10 20 -3 20 -8 0 -15 -6 -15 -14z"/>
<path fill="white" d="M4282 6774 c-6 -11 -17 -15 -32 -11 -28 7 -50 -1 -50 -19 0 -16 26
-19 35 -4 3 6 34 10 68 11 34 0 55 3 47 6 -8 3 -19 12 -23 19 -11 19 -34 17
-45 -2z"/>
<path fill="white" d="M4136 6725 c-3 -8 -17 -15 -31 -15 -14 0 -28 -7 -31 -15 -4 -9 -19
-15 -35 -15 -16 0 -29 -4 -29 -9 0 -5 -8 -12 -17 -14 -14 -4 -13 -5 4 -6 12 0
25 4 28 9 3 6 17 10 29 10 13 0 29 7 36 15 7 8 23 15 36 15 13 0 24 5 24 10 0
6 8 10 18 10 14 0 15 2 2 10 -21 13 -27 12 -34 -5z"/>
<path fill="white" d="M2013 6703 c9 -2 23 -2 30 0 6 3 -1 5 -18 5 -16 0 -22 -2 -12 -5z"/>
<path fill="white" d="M3268 6703 c7 -3 16 -2 19 1 4 3 -2 6 -13 5 -11 0 -14 -3 -6 -6z"/>
<path fill="white" d="M3393 6641 c-13 -11 -23 -24 -23 -30 0 -14 27 -14 35 -1 4 6 72 10
170 10 98 0 166 -4 170 -10 8 -13 58 -13 71 -1 5 6 41 12 79 14 39 1 -48 4
-192 5 -226 2 -263 4 -263 17 0 20 -20 18 -47 -4z"/>
<path fill="white" d="M2817 6468 c3 -18 9 -43 15 -54 10 -22 9 -43 -12 -179 -6 -38 -13
-94 -16 -122 -3 -29 -10 -53 -15 -53 -5 0 -9 -15 -9 -34 0 -19 -4 -37 -9 -40
-5 -3 -11 -18 -14 -33 -3 -16 -8 -39 -12 -53 -6 -20 -5 -23 5 -13 12 11 25 56
37 131 3 18 9 35 14 38 5 3 9 21 9 40 0 27 4 34 19 34 11 0 23 5 26 10 3 6 10
10 16 10 12 0 12 -57 -1 -65 -5 -3 -10 -26 -10 -50 0 -24 -4 -47 -10 -50 -5
-3 -10 -37 -10 -76 l0 -69 38 0 c21 0 44 -6 50 -12 24 -24 42 30 22 62 -8 13
-10 13 -10 -2 0 -9 -8 -21 -17 -26 -13 -8 -20 -3 -35 24 -10 19 -18 46 -18 62
0 35 26 72 51 72 16 0 19 -7 19 -45 0 -25 5 -45 10 -45 6 0 10 8 10 18 0 33
34 54 81 50 43 -3 44 -4 49 -43 l6 -40 7 50 c9 68 10 74 2 121 -6 31 -3 48 10
68 34 51 80 21 69 -46 l-5 -33 16 28 c9 15 15 42 13 60 -3 28 -6 32 -29 29
-16 -2 -29 3 -32 12 -5 12 -10 12 -41 -2 -26 -12 -33 -19 -25 -28 5 -7 9 -39
7 -71 l-3 -58 -50 0 c-49 0 -50 1 -53 33 -4 43 -22 41 -22 -3 0 -45 -28 -48
-53 -6 -22 37 -22 56 1 73 9 7 24 22 32 32 14 18 13 19 -12 14 -25 -5 -28 -2
-34 30 -4 19 -3 42 3 51 14 24 4 49 -20 53 -17 2 -23 11 -25 37 -4 41 11 60
33 41 12 -10 18 -10 30 0 21 17 9 30 -27 30 -32 0 -57 22 -58 53 0 9 -4 17 -8
17 -5 0 -7 -15 -5 -32z"/>
<path fill="white" d="M3038 6493 c6 -2 18 -2 25 0 6 3 1 5 -13 5 -14 0 -19 -2 -12 -5z"/>
<path fill="white" d="M3247 6430 c-18 -18 -18 -19 2 -30 19 -10 21 -8 21 20 0 35 1 34 -23
10z"/>
<path fill="white" d="M3142 6405 c-11 -13 -7 -15 25 -14 21 1 30 3 21 6 -10 2 -18 9 -18
14 0 13 -13 10 -28 -6z"/>
<path fill="white" d="M3238 6368 c-5 -13 -18 -18 -43 -18 -19 0 -35 -5 -35 -11 0 -5 8 -9
18 -7 27 4 40 -9 34 -37 -3 -20 -11 -25 -36 -26 -30 -2 -30 -2 -4 -6 15 -2 35
-14 43 -26 14 -21 15 -20 15 19 0 22 5 45 11 51 6 6 9 26 7 44 -2 25 -5 29
-10 17z"/>
<path fill="white" d="M2993 6223 c-17 -12 -19 -19 -13 -49 10 -42 20 -56 20 -27 0 21 29
53 48 53 20 0 13 14 -11 26 -18 8 -29 7 -44 -3z"/>
<path fill="white" d="M3038 5843 c7 -3 16 -2 19 1 4 3 -2 6 -13 5 -11 0 -14 -3 -6 -6z"/>
<path fill="white" d="M2727 5833 c-4 -3 -7 -11 -7 -17 0 -6 5 -5 12 2 6 6 9 14 7 17 -3 3
-9 2 -12 -2z"/>
<path fill="white" d="M3169 5793 c-16 -33 -16 -33 8 -33 29 0 39 23 21 48 -12 18 -14 17
-29 -15z"/>
<path fill="white" d="M2702 5715 c-13 -28 -6 -55 12 -55 7 0 19 -11 26 -25 12 -23 11 -28
-15 -55 -15 -16 -37 -30 -49 -32 -20 -3 -21 -8 -22 -188 0 -102 1 -146 3 -98
4 85 17 119 43 103 12 -8 14 -235 1 -235 -5 0 -12 -21 -15 -47 -9 -66 -16
-164 -9 -133 3 14 10 28 15 31 14 9 29 119 37 289 10 195 26 240 86 240 39 0
44 -11 46 -88 2 -48 3 -51 8 -22 8 47 35 84 55 77 9 -4 16 -15 16 -26 0 -11 8
-36 17 -56 13 -27 14 -43 7 -72 -8 -33 -13 -38 -41 -41 -49 -5 -73 13 -73 53
0 18 -4 37 -10 40 -5 3 -11 21 -11 38 -1 21 -3 25 -6 12 -3 -11 -9 -24 -14
-29 -5 -6 -9 -40 -9 -76 0 -41 -5 -73 -14 -86 -18 -26 -24 -170 -8 -186 21
-21 13 -44 -38 -99 -52 -56 -61 -89 -39 -132 15 -28 50 -67 61 -67 4 0 8 46 8
102 0 97 1 103 27 130 15 15 33 28 40 28 9 0 13 17 13 60 0 35 -4 60 -10 60
-7 0 -8 -13 -4 -35 5 -27 3 -36 -11 -41 -24 -9 -42 11 -26 30 9 11 10 20 2 35
-14 25 -14 71 -1 71 5 0 10 35 12 78 4 92 22 103 26 15 3 -62 3 -63 32 -63 37
0 41 -29 9 -59 -13 -12 -17 -21 -10 -26 6 -3 12 -41 12 -83 1 -42 4 -63 6 -47
2 17 11 44 19 62 7 17 14 40 14 52 0 13 6 21 16 21 9 0 28 9 42 21 l27 21 -26
-7 c-37 -9 -44 16 -19 65 15 29 20 59 20 119 0 44 -4 83 -10 86 -18 11 -11 47
10 52 11 3 20 14 20 24 0 26 22 24 54 -6 18 -17 26 -20 26 -10 0 8 -4 15 -10
15 -5 0 -10 14 -10 30 0 29 2 30 44 30 42 0 44 -1 61 -47 15 -38 16 -52 6 -78
-14 -41 -15 -199 0 -190 6 4 17 -1 24 -11 13 -17 14 -12 15 47 0 58 3 67 20
72 27 7 29 69 3 65 -28 -5 -31 57 -4 72 28 14 28 56 0 63 -27 7 -23 53 4 50
15 -1 17 3 12 20 -4 12 -9 34 -12 50 -5 25 -33 40 -33 17 0 -5 -8 -10 -17 -10
-9 0 -24 -7 -33 -15 -18 -16 -60 -9 -60 10 0 8 8 16 18 18 11 3 7 5 -10 6 -15
0 -30 -3 -33 -9 -3 -5 -39 -10 -78 -11 -56 0 -67 -2 -48 -10 16 -6 22 -15 18
-28 -3 -12 1 -22 9 -25 27 -11 9 -116 -20 -116 -3 0 -6 23 -6 50 0 54 -8 62
-28 30 -7 -11 -21 -20 -32 -20 -17 0 -19 4 -14 28 4 15 11 35 16 45 8 15 3 17
-49 17 -82 0 -103 8 -103 36 0 33 -15 38 -28 9z m145 -97 c-3 -8 -6 -5 -6 6
-1 11 2 17 5 13 3 -3 4 -12 1 -19z m69 -99 c3 -6 2 -15 -2 -19 -12 -12 -38 5
-30 19 9 14 23 14 32 0z m-212 -77 c2 -4 -4 -19 -14 -32 -17 -22 -19 -23 -25
-7 -4 9 -5 24 -1 32 6 16 31 20 40 7z m236 -198 c0 -24 -3 -25 -27 -19 -35 8
-37 11 -30 30 4 8 18 15 32 15 20 0 25 -5 25 -26z m-210 -394 c0 -10 -4 -21
-9 -24 -12 -8 -22 20 -15 39 8 19 24 9 24 -15z"/>
<path fill="white" d="M3031 5444 c0 -11 3 -14 6 -6 3 7 2 16 -1 19 -3 4 -6 -2 -5 -13z"/>
<path fill="white" d="M3051 5364 c0 -11 3 -14 6 -6 3 7 2 16 -1 19 -3 4 -6 -2 -5 -13z"/>
<path fill="white" d="M3242 5285 c-1 -34 3 -66 9 -72 14 -14 2 -53 -17 -53 -22 0 -16 -14
11 -27 l25 -11 0 67 c0 37 -4 71 -9 77 -5 5 -11 25 -14 44 -2 23 -4 14 -5 -25z"/>
<path fill="white" d="M3150 5231 c0 -18 -6 -21 -49 -21 -40 0 -50 -3 -54 -20 -5 -18 0 -20
45 -20 41 0 51 -3 55 -20 6 -24 19 -26 27 -5 3 8 12 15 21 15 8 0 15 5 15 10
0 6 -9 10 -20 10 -15 0 -20 7 -20 29 0 17 -4 33 -10 36 -5 3 -10 -3 -10 -14z"/>
<path fill="white" d="M2653 5090 c0 -25 2 -35 4 -22 2 12 2 32 0 45 -2 12 -4 2 -4 -23z"/>
<path fill="white" d="M3147 5089 c-9 -34 -9 -79 1 -79 8 0 52 54 52 65 0 3 -5 5 -11 5 -7
0 -17 7 -24 16 -11 15 -13 14 -18 -7z"/>
<path fill="white" d="M3210 5085 c0 -8 5 -15 10 -15 6 0 10 7 10 15 0 8 -4 15 -10 15 -5 0
-10 -7 -10 -15z"/>
<path fill="white" d="M3092 4870 c0 -14 2 -19 5 -12 2 6 2 18 0 25 -3 6 -5 1 -5 -13z"/>
<path fill="white" d="M3072 4780 c0 -19 2 -27 5 -17 2 9 2 25 0 35 -3 9 -5 1 -5 -18z"/>
<path fill="white" d="M3053 4680 c0 -36 2 -50 4 -32 2 17 2 47 0 65 -2 17 -4 3 -4 -33z"/>
<path fill="white" d="M2898 4633 c2 -32 10 -69 18 -83 12 -23 13 -19 14 46 0 63 -10 94
-30 94 -4 0 -5 -26 -2 -57z"/>
<path fill="white" d="M2801 4580 c-1 -8 8 -29 18 -46 11 -18 21 -42 24 -55 3 -17 5 -14 6
12 0 22 -6 43 -17 55 -11 11 -22 26 -25 34 -5 13 -6 13 -6 0z"/>
<path fill="white" d="M3071 4564 c0 -11 3 -14 6 -6 3 7 2 16 -1 19 -3 4 -6 -2 -5 -13z"/>
<path fill="white" d="M3092 4244 c-2 -242 1 -297 13 -320 18 -35 21 -8 3 31 -9 19 -9 28 0
37 15 15 17 379 3 394 -6 5 -12 41 -14 79 -1 39 -4 -61 -5 -221z"/>
<path fill="white" d="M2861 4399 c0 -15 6 -42 14 -60 l14 -34 1 38 c0 20 -4 37 -9 37 -5 0
-12 10 -14 23 -4 20 -4 19 -6 -4z"/>
<path fill="white" d="M2930 4388 c0 -13 4 -29 9 -37 13 -20 24 4 17 35 -8 30 -26 32 -26 2z"/>
<path fill="white" d="M2940 4275 c0 -37 18 -85 32 -85 12 0 10 63 -4 93 -18 37 -28 34 -28
-8z"/>
<path fill="white" d="M2992 4140 c-4 -44 -14 -71 -26 -67 -9 4 -10 -7 -3 -42 14 -63 3
-109 -36 -152 -17 -20 -43 -51 -57 -67 -14 -17 -29 -31 -34 -32 -33 -1 -50
-95 -19 -107 9 -4 19 -1 21 5 2 7 11 12 21 12 18 0 41 18 41 32 0 16 -29 8
-34 -9 -2 -10 -2 0 1 22 4 26 20 59 47 93 37 47 55 76 76 122 4 8 13 15 21 15
11 0 14 -21 13 -97 0 -54 3 -98 8 -98 12 0 10 218 -2 225 -5 3 -10 21 -10 39
0 17 -4 36 -9 42 -5 5 -11 27 -14 49 -2 22 -4 29 -5 15z m8 -115 c0 -8 -4 -15
-10 -15 -5 0 -10 7 -10 15 0 8 5 15 10 15 6 0 10 -7 10 -15z"/>
<path fill="white" d="M3110 3866 c0 -25 18 -49 51 -66 15 -9 18 -8 12 7 -3 10 -19 33 -35
51 -28 32 -28 32 -28 8z"/>
<path fill="white" d="M2960 3765 c0 -9 6 -12 15 -9 8 4 15 10 15 15 0 5 -7 9 -15 9 -8 0
-15 -7 -15 -15z"/>
<path fill="white" d="M3070 3743 c1 -14 30 -48 30 -34 0 7 -7 19 -15 27 -8 9 -15 12 -15 7z"/>
<path fill="white" d="M3260 3677 c0 -13 -8 -31 -18 -40 -13 -12 -17 -27 -14 -57 2 -22 8
-40 13 -40 5 0 9 6 9 13 0 6 9 23 20 37 24 31 28 110 5 110 -9 0 -15 -9 -15
-23z"/>
<path fill="white" d="M2976 3655 c-4 -12 2 -15 27 -14 18 1 24 3 15 6 -10 2 -18 9 -18 14
0 15 -17 10 -24 -6z"/>
<path fill="white" d="M2920 3630 c-6 -11 -8 -20 -5 -20 3 0 14 9 25 20 15 15 16 20 5 20
-8 0 -19 -9 -25 -20z"/>
<path fill="white" d="M3050 3612 c0 -32 -26 -79 -50 -92 -11 -6 -20 -19 -20 -29 0 -22 -28
-48 -57 -53 -20 -3 -19 -7 22 -49 24 -26 59 -56 78 -68 30 -18 36 -19 41 -6 3
8 11 15 17 15 6 0 20 10 31 22 16 19 18 31 12 73 -7 57 -73 223 -74 187z m40
-162 c0 -27 -4 -52 -10 -55 -5 -3 -30 4 -55 15 -45 20 -45 21 -29 45 12 19 20
23 29 15 9 -8 14 -3 19 20 5 27 8 30 26 20 16 -8 20 -21 20 -60z"/>
<path fill="white" d="M2858 3541 c-2 -16 -1 -37 3 -47 5 -13 8 -3 8 29 1 53 -5 62 -11 18z"/>
<path fill="white" d="M375 7167 c-3 -6 -4 -201 -3 -432 l3 -420 388 -3 387 -2 0 435 0 435
-385 0 c-299 0 -387 -3 -390 -13z m740 -422 l0 -390 -355 0 -355 0 -3 380 c-1
209 0 386 3 393 3 10 80 12 357 10 l353 -3 0 -390z"/>
<path fill="white" d="M730 7085 c-8 -9 -21 -13 -36 -9 -28 7 -32 -11 -9 -42 8 -10 15 -29
15 -41 0 -12 5 -25 10 -28 6 -3 10 -44 10 -91 l0 -84 -69 0 c-73 0 -137 21
-178 60 -29 26 -28 35 -19 -172 1 -29 14 -34 44 -19 75 38 90 42 152 39 l65
-3 3 -74 c2 -42 -2 -79 -8 -85 -5 -5 -10 -20 -10 -32 0 -12 -7 -34 -14 -50
-17 -32 -11 -51 11 -32 13 10 18 9 33 -10 23 -28 31 -28 60 3 16 17 27 22 34
15 14 -14 36 -13 36 3 0 6 -9 23 -20 37 -11 14 -20 37 -20 52 0 15 -4 30 -10
33 -13 8 -13 152 -1 160 5 3 12 1 16 -5 3 -5 30 -10 59 -10 51 0 138 -29 151
-50 3 -5 13 -6 21 -3 11 4 12 9 5 16 -14 14 -14 54 -2 62 12 7 12 145 0 145
-5 0 -14 -9 -21 -21 -22 -34 -93 -59 -169 -59 l-69 0 0 79 c0 44 5 83 10 86 6
3 10 14 10 24 0 10 9 30 20 44 11 14 20 32 20 41 0 18 -25 22 -35 6 -4 -6 -17
-3 -35 10 -34 24 -44 25 -60 5z m33 -285 c3 -11 18 -25 34 -31 l28 -11 -22
-15 c-13 -9 -23 -21 -23 -28 0 -6 -9 -20 -20 -30 -20 -18 -20 -17 -20 13 0 19
-7 36 -20 45 -19 13 -19 13 0 30 11 9 20 24 20 32 0 22 17 18 23 -5z"/>
<path fill="white" d="M4836 7164 c-3 -8 -6 -30 -5 -47 1 -30 1 -30 8 -7 l7 25 357 3 357 2
5 -22 c3 -13 4 -189 3 -393 l-3 -370 -360 0 -360 0 -6 30 c-6 28 -7 27 -8 -10
0 -23 4 -46 11 -53 9 -9 106 -12 375 -12 349 0 363 1 373 20 7 12 9 159 8 432
l-3 413 -376 3 c-337 2 -377 1 -383 -14z"/>
<path fill="white" d="M5193 7089 c-5 -5 -23 -12 -39 -14 -16 -2 -31 -4 -33 -4 -2 -1 4 -13
14 -27 28 -42 54 -136 55 -190 0 -45 -3 -54 -27 -69 -23 -16 -33 -16 -70 -7
-24 7 -52 12 -62 12 -10 0 -24 7 -31 15 -7 8 -20 15 -29 15 -9 0 -22 9 -29 20
-16 27 -35 15 -29 -18 3 -14 1 -38 -5 -53 -7 -20 -5 -35 7 -59 9 -18 14 -38
11 -46 -9 -23 5 -20 81 20 43 22 168 23 177 0 9 -23 7 -90 -3 -116 -5 -13 -19
-46 -30 -75 -27 -66 -26 -71 3 -66 18 4 26 0 31 -16 9 -28 23 -26 51 6 21 24
26 26 44 15 26 -16 27 3 4 56 -9 20 -20 53 -25 72 -4 19 -11 47 -15 62 -3 15
-3 39 0 53 6 23 10 25 69 25 55 0 143 -23 163 -43 13 -13 34 -7 28 8 -3 8 4
31 16 50 l22 36 -22 21 c-15 14 -20 27 -16 44 8 29 -3 30 -50 4 -20 -12 -65
-28 -101 -36 -59 -14 -67 -13 -90 1 -23 15 -24 21 -20 73 6 78 20 126 51 173
22 33 24 40 11 45 -8 4 -22 1 -30 -6 -13 -11 -20 -9 -38 9 -27 24 -29 25 -44
10z"/>
<path fill="white" d="M4833 6790 c0 -47 2 -66 4 -42 2 23 2 61 0 85 -2 23 -4 4 -4 -43z"/>
<path fill="white" d="M1990 2950 l-335 -5 -3 -353 -2 -352 26 -10 c17 -7 380 -9 1022 -7
1558 5 1628 6 1656 17 l26 10 0 339 c0 270 -3 341 -13 350 -15 12 -1763 20
-2377 11z m280 -359 c0 -282 -2 -320 -16 -325 -20 -8 -248 -8 -268 0 -36 14
-4 54 43 54 26 0 28 26 4 52 -18 20 -29 111 -19 153 6 22 11 25 53 25 27 0 65
-9 90 -21 23 -11 47 -18 53 -14 12 7 14 145 2 145 -5 0 -27 -9 -50 -20 -24
-12 -61 -20 -90 -20 -43 0 -50 3 -56 23 -11 43 -6 106 13 150 20 46 19 57 -7
57 -8 0 -21 8 -27 17 -13 17 -14 17 -32 0 -23 -20 -49 -22 -56 -4 -4 8 -6 7
-6 -3 -1 -8 8 -30 19 -48 17 -28 20 -48 18 -110 l-3 -77 -62 -3 c-39 -2 -63 1
-63 8 0 5 -7 10 -16 10 -9 0 -22 7 -29 17 -7 9 -19 14 -27 10 -19 -7 -31 -73
-18 -98 6 -10 10 -26 10 -37 0 -11 7 -22 15 -26 8 -3 15 -2 15 2 0 18 78 43
125 40 l50 -3 3 -59 c2 -43 -2 -70 -18 -103 -24 -52 -21 -70 12 -75 33 -4 29
-32 -7 -39 -50 -11 -205 -10 -226 1 -18 10 -19 25 -19 325 l0 315 295 0 295 0
0 -319z m690 295 c9 -25 13 -545 3 -583 -5 -22 -8 -23 -143 -23 -77 0 -141 4
-144 9 -3 4 1 16 8 27 12 15 16 16 30 5 14 -12 16 -10 16 13 0 14 -4 34 -9 44
-19 37 -42 134 -36 152 5 17 15 20 64 20 31 0 61 -4 67 -9 16 -15 73 -30 79
-21 3 5 1 11 -4 14 -10 7 -3 82 11 109 6 12 5 17 -6 17 -8 0 -18 -4 -21 -10
-3 -5 -21 -10 -40 -10 -19 0 -37 -4 -40 -10 -3 -5 -28 -10 -55 -10 -48 0 -49
1 -55 33 -6 32 24 147 46 173 11 14 1 24 -23 24 -10 0 -27 6 -38 12 -15 10
-22 10 -32 0 -6 -6 -20 -12 -30 -12 -23 0 -23 -8 2 -66 15 -34 20 -64 18 -103
l-3 -56 -42 -3 c-24 -2 -43 1 -43 6 0 6 -19 12 -42 14 -24 3 -51 8 -60 12 -14
6 -18 4 -18 -11 0 -10 -5 -24 -12 -31 -9 -9 -9 -18 0 -37 7 -14 12 -35 12 -46
0 -18 4 -20 33 -14 17 4 36 11 41 16 5 4 21 5 36 2 15 -3 31 0 34 6 4 6 18 11
31 11 31 0 64 -45 46 -63 -6 -6 -11 -21 -11 -34 0 -21 -10 -51 -33 -102 -9
-19 -8 -25 6 -36 39 -28 19 -35 -107 -35 -104 0 -125 3 -130 16 -8 20 -8 578
0 598 5 14 41 16 295 16 l289 0 10 -24z m678 -285 c2 -216 -1 -308 -9 -317 -8
-10 -40 -14 -118 -14 -125 0 -151 6 -151 31 0 20 28 39 48 32 14 -5 17 23 2
32 -5 3 -10 19 -10 34 0 15 -5 32 -11 38 -5 5 -9 32 -7 59 l3 49 57 3 c43 2
67 -2 98 -18 57 -29 70 -17 70 66 0 79 -1 80 -98 31 -34 -17 -87 -22 -116 -11
-30 11 -18 121 20 196 14 25 13 27 -18 42 -21 11 -35 13 -42 6 -14 -14 -63
-13 -70 3 -3 6 -3 1 0 -13 3 -14 12 -38 20 -54 8 -17 14 -60 14 -103 l0 -73
-58 0 c-32 0 -62 3 -66 7 -10 10 -80 33 -85 28 -2 -3 1 -21 7 -42 8 -25 8 -42
1 -55 -6 -11 -8 -26 -5 -34 5 -14 17 -11 82 18 11 5 42 8 70 6 l49 -3 3 -73
c2 -61 0 -77 -18 -103 -18 -24 -19 -33 -10 -44 7 -8 21 -15 32 -15 13 0 18 -6
16 -17 -3 -14 -18 -16 -133 -14 -71 1 -133 5 -137 7 -10 6 -11 608 -1 617 4 4
133 6 287 5 l281 -3 3 -304z m706 293 c3 -9 6 -145 6 -303 0 -233 -3 -291 -14
-307 -14 -18 -27 -19 -293 -15 -193 2 -280 7 -285 15 -9 13 -11 587 -2 610 5
14 41 16 294 16 253 0 289 -2 294 -16z m-1664 -316 c0 -4 -7 -8 -15 -8 -10 0
-15 10 -15 28 1 26 1 26 15 8 8 -11 15 -23 15 -28z m680 3 c0 -22 -3 -42 -8
-45 -13 -8 -29 40 -21 62 13 35 29 25 29 -17z m-1370 -1 c0 -5 -7 -10 -15 -10
-8 0 -15 5 -15 10 0 6 7 10 15 10 8 0 15 -4 15 -10z"/>
<path fill="white" d="M3950 2862 c0 -4 13 -26 29 -48 32 -42 47 -113 36 -163 -6 -29 -9
-31 -54 -31 -26 0 -51 4 -56 9 -6 4 -31 11 -57 15 -43 5 -48 3 -48 -13 0 -11
-5 -21 -11 -23 -9 -3 -9 -9 0 -25 6 -12 11 -36 11 -53 l0 -30 47 25 c35 18 63
25 105 25 l58 0 -4 -72 c-2 -40 -9 -90 -15 -111 -7 -20 -9 -42 -6 -47 8 -13
122 -13 130 0 4 6 0 22 -9 35 -9 13 -16 42 -16 63 0 21 -5 43 -11 49 -6 6 -9
26 -7 44 3 33 4 34 52 37 28 2 61 -3 80 -12 50 -23 70 -24 74 -1 2 11 8 30 14
43 9 17 9 25 0 34 -7 7 -12 20 -12 30 0 19 -15 24 -25 8 -3 -5 -16 -10 -29
-10 -12 0 -27 -5 -33 -11 -5 -5 -34 -9 -64 -7 l-54 3 -1 87 c-1 73 2 91 18
108 19 20 19 20 -11 26 -17 4 -31 10 -31 15 0 13 -34 11 -48 -3 -9 -9 -12 -9
-12 0 0 7 -9 12 -20 12 -11 0 -20 -4 -20 -8z m110 -272 c9 -18 8 -20 -15 -20
-24 0 -34 18 -18 33 11 12 22 8 33 -13z"/>
<path fill="white" d="M2473 2143 c-18 -7 -19 -1113 -1 -1131 9 -9 141 -12 534 -12 467 0
523 2 528 16 3 9 6 262 6 563 0 412 -3 550 -12 559 -9 9 -139 12 -528 11 -283
0 -521 -3 -527 -6z m552 -42 c50 1 175 3 278 3 157 1 189 -1 197 -14 6 -9 10
-220 10 -521 0 -441 -2 -508 -15 -519 -12 -10 -124 -13 -494 -13 -263 0 -483
3 -489 7 -9 5 -12 145 -12 531 0 490 1 524 18 528 9 3 107 3 217 1 110 -3 241
-4 290 -3z"/>
<path fill="white" d="M2927 2060 c-14 -11 -33 -20 -44 -20 -10 0 -27 -7 -37 -15 -11 -8
-28 -15 -38 -15 -10 0 -18 -4 -18 -10 0 -5 -5 -10 -11 -10 -7 0 -24 -12 -39
-27 -15 -16 -38 -37 -51 -49 -32 -28 -59 -62 -59 -74 0 -6 -4 -18 -9 -28 -5
-9 -13 -28 -19 -42 -5 -14 -15 -38 -22 -55 -7 -17 -11 -81 -11 -158 0 -134 14
-197 61 -267 10 -14 19 -30 21 -36 7 -19 136 -124 153 -124 8 0 21 -6 28 -13
19 -20 149 -34 223 -26 73 9 157 47 214 96 22 18 43 33 49 33 5 0 22 24 37 53
16 28 37 67 47 85 10 18 18 41 18 51 0 11 5 21 11 23 13 4 15 253 2 271 -5 7
-15 30 -22 52 -8 22 -22 52 -32 67 -11 14 -19 34 -19 43 0 9 -8 19 -17 22 -10
3 -36 27 -58 53 -22 27 -45 49 -51 49 -6 1 -17 8 -24 16 -7 8 -23 15 -36 15
-13 0 -24 4 -24 9 0 5 -15 12 -34 15 -19 4 -39 13 -46 21 -19 23 -111 20 -143
-5z m167 -46 c34 -9 79 -25 101 -35 54 -25 137 -114 182 -195 l36 -66 -1 -143
c-1 -79 -7 -156 -12 -172 -19 -49 -111 -182 -131 -188 -10 -4 -19 -11 -19 -16
0 -5 -9 -9 -19 -9 -11 0 -27 -7 -36 -16 -9 -9 -27 -16 -41 -16 -13 0 -24 -4
-24 -9 0 -5 -65 -9 -145 -9 -80 0 -145 4 -145 9 0 5 -13 11 -28 14 -16 3 -40
17 -53 31 -13 14 -30 26 -36 26 -7 0 -13 6 -13 14 0 8 -8 21 -18 28 -18 12
-37 42 -63 98 -6 14 -15 33 -20 42 -5 10 -9 40 -9 67 0 28 -4 53 -10 56 -5 3
-10 31 -10 61 0 30 5 54 10 54 6 0 10 20 10 45 0 53 6 66 78 178 20 32 47 60
59 63 12 3 30 15 40 26 20 23 45 35 123 59 72 22 120 23 194 3z"/>
<path fill="white" d="M2945 1904 c-16 -8 -42 -16 -57 -16 -17 -1 -28 -8 -31 -19 -6 -21 3
-25 19 -9 18 18 42 0 65 -46 26 -54 34 -108 24 -170 l-7 -47 -66 6 c-70 5
-149 37 -159 62 -8 23 -23 18 -23 -8 0 -13 -3 -27 -7 -31 -12 -12 -13 -40 -1
-101 11 -63 27 -105 28 -74 0 27 34 49 106 69 86 25 111 25 124 1 26 -50 -4
-217 -41 -230 -8 -2 -19 -11 -25 -19 -9 -13 -12 -13 -17 2 -7 18 -27 22 -27 6
0 -6 12 -15 28 -21 15 -6 39 -17 54 -25 34 -18 72 -18 88 1 10 12 15 12 35 -1
29 -19 65 -10 65 17 0 10 -9 24 -21 31 -35 22 -59 91 -59 174 0 86 8 95 74 75
23 -6 56 -16 74 -21 49 -12 72 -37 73 -79 1 -20 3 -27 6 -16 2 11 8 29 12 40
18 44 31 93 31 115 0 28 -20 101 -32 115 -4 5 -8 22 -8 38 0 16 -8 36 -17 45
-16 16 -16 16 -8 -3 15 -35 18 -95 5 -110 -24 -29 -76 -47 -147 -52 -71 -6
-72 -5 -79 21 -3 14 -3 39 1 54 3 15 9 43 12 62 7 54 54 115 87 115 41 -1 29
29 -14 33 -18 2 -43 10 -54 18 -27 18 -74 18 -111 -2z m83 -314 c32 -14 44
-40 18 -40 -8 0 -16 -7 -20 -15 -3 -8 -12 -15 -21 -15 -9 0 -18 7 -21 15 -4 8
-15 15 -25 15 -10 0 -19 3 -19 6 0 9 44 52 50 50 3 -2 20 -9 38 -16z"/>
<path fill="white" d="M2796 1824 c-16 -19 -25 -38 -22 -42 7 -7 65 56 66 71 0 15 -16 4
-44 -29z"/>
<path fill="white" d="M3190 1820 c0 -5 5 -10 10 -10 6 0 10 5 10 10 0 6 -4 10 -10 10 -5 0
-10 -4 -10 -10z"/>
<path fill="white" d="M2790 1334 c0 -3 9 -17 19 -30 13 -16 22 -21 26 -14 4 7 -2 20 -14
31 -21 19 -31 24 -31 13z"/>
<path fill="white" d="M6270 9273 c-82 -9 -164 -74 -193 -153 -42 -113 5 -205 137 -270 35
-16 66 -30 70 -30 27 0 160 -76 180 -103 66 -88 47 -208 -44 -270 -31 -21
-130 -23 -169 -2 -73 37 -131 160 -131 276 0 27 -3 30 -27 27 l-28 -3 0 -155
c0 -139 2 -155 17 -158 10 -2 25 3 33 12 14 13 21 12 67 -17 46 -29 60 -32
143 -35 131 -5 188 24 265 137 34 49 34 163 0 212 -45 66 -66 79 -280 177 -38
17 -80 45 -98 66 -48 55 -45 134 7 199 43 53 152 64 210 20 50 -38 58 -50 72
-115 11 -50 16 -58 36 -58 23 0 23 2 23 120 l0 120 -24 0 c-19 0 -23 -4 -19
-19 8 -31 -13 -33 -64 -8 -49 25 -121 37 -183 30z"/>
<path fill="white" d="M8345 9271 c-139 -20 -247 -127 -304 -302 -6 -19 -11 -80 -11 -134 0
-105 6 -133 51 -232 34 -75 101 -142 179 -181 51 -25 64 -27 176 -27 115 0
124 2 179 30 134 70 209 215 209 405 0 59 -5 123 -13 145 -42 130 -116 222
-213 268 -59 27 -169 40 -253 28z m181 -63 c56 -26 106 -89 143 -180 32 -78
41 -249 20 -350 -36 -166 -120 -248 -253 -248 -142 0 -235 92 -272 270 -43
203 34 445 164 514 43 22 144 20 198 -6z"/>
<path fill="white" d="M8370 9007 c0 -7 9 -21 21 -30 12 -11 19 -27 17 -40 -2 -18 -11 -23
-41 -25 -21 -2 -45 2 -53 8 -25 21 -44 4 -44 -40 0 -45 25 -67 42 -37 6 11 22
17 48 17 34 0 41 -4 46 -26 5 -18 0 -31 -16 -49 -29 -31 -18 -45 36 -45 36 0
44 3 44 19 0 10 -7 24 -16 31 -8 8 -14 25 -12 39 3 22 9 26 42 29 21 2 43 -1
49 -7 6 -6 19 -11 29 -11 14 0 18 8 18 40 0 44 -19 61 -44 40 -8 -6 -32 -10
-53 -8 -33 3 -38 7 -41 31 -2 18 2 29 12 33 9 3 16 15 16 25 0 16 -8 19 -50
19 -34 0 -50 -4 -50 -13z"/>
<path fill="white" d="M14363 9268 c-6 -7 -20 -44 -32 -83 -12 -38 -26 -79 -30 -90 -5 -11
-41 -119 -80 -240 -40 -121 -76 -228 -81 -237 -6 -10 -10 -25 -10 -33 0 -8 -4
-23 -9 -33 -5 -9 -17 -36 -26 -59 -18 -42 -19 -43 -67 -43 -45 0 -49 -2 -46
-22 3 -22 7 -23 136 -26 l132 -3 0 28 c0 27 -1 28 -46 24 l-46 -3 4 33 c6 37
72 262 83 279 9 15 230 13 243 -2 5 -7 24 -56 41 -108 18 -52 36 -104 40 -115
31 -73 31 -76 16 -81 -8 -4 -29 -4 -45 -2 -27 4 -30 2 -30 -24 l0 -28 283 2
282 3 3 23 c3 19 -1 22 -30 22 -19 0 -39 5 -46 12 -9 9 -12 106 -12 375 l0
363 25 16 c21 14 32 14 77 4 67 -16 97 -31 129 -67 48 -53 62 -85 67 -153 9
-129 -51 -201 -180 -217 l-63 -8 0 -70 0 -70 33 -3 c33 -3 43 13 21 35 -6 6
-9 23 -7 39 3 27 7 30 68 40 90 16 132 36 188 92 61 60 72 86 73 175 0 84 23
152 59 178 27 19 141 42 165 32 13 -4 15 -61 15 -377 0 -204 -4 -377 -9 -385
-6 -9 -21 -12 -45 -9 -34 4 -36 2 -36 -24 l0 -29 148 3 147 3 0 24 c0 22 -4
25 -40 25 l-40 1 -3 381 c-2 329 0 383 12 387 9 4 41 2 73 -3 32 -6 61 -10 65
-10 3 0 20 -12 37 -26 21 -18 33 -38 37 -65 8 -47 38 -89 53 -74 6 7 6 28 0
64 -14 76 -6 101 31 101 24 0 33 -6 40 -26 15 -38 13 -676 -2 -709 -10 -22
-17 -26 -47 -23 -33 3 -36 0 -36 -22 l0 -25 145 0 145 0 0 25 c0 22 -3 25 -36
22 -30 -3 -37 1 -47 23 -15 33 -17 671 -2 709 8 22 16 26 50 26 33 0 40 3 40
19 0 19 -9 20 -142 23 -79 2 -295 2 -481 0 l-338 -3 7 -48 c8 -60 -6 -71 -43
-36 -57 52 -127 76 -247 84 -61 4 -155 5 -208 3 -88 -4 -98 -6 -98 -23 0 -15
7 -19 33 -19 18 0 38 -5 45 -12 17 -17 17 -724 0 -734 -7 -5 -42 -9 -79 -10
l-66 -3 -68 207 c-37 114 -71 216 -75 227 -5 11 -20 58 -35 105 -15 47 -30 94
-35 105 -4 11 -18 51 -30 90 -12 38 -26 75 -32 82 -13 17 -73 17 -85 1z m17
-186 c0 -10 3 -22 7 -25 11 -12 82 -231 77 -239 -3 -4 -48 -8 -100 -8 -87 0
-94 2 -94 20 0 10 4 29 9 42 6 13 22 64 37 113 15 50 32 96 37 103 14 18 27
15 27 -6z"/>
<path fill="white" d="M16574 9271 c-129 -21 -218 -146 -191 -268 18 -76 77 -127 218 -186
63 -26 132 -61 152 -78 67 -55 84 -133 46 -215 -33 -68 -73 -94 -148 -94 -62
0 -87 9 -129 45 -46 39 -82 137 -82 223 0 51 0 52 -30 52 l-30 0 0 -160 c0
-143 2 -160 17 -160 9 0 25 7 35 17 17 15 20 15 41 -3 46 -39 73 -48 163 -52
76 -4 97 -1 136 17 50 22 111 78 134 123 21 41 28 116 15 164 -20 73 -62 109
-231 192 -172 85 -200 111 -200 185 0 51 34 112 77 137 48 28 130 27 173 -2
40 -27 79 -100 80 -145 0 -28 4 -33 25 -33 l25 0 0 120 c0 113 -1 120 -20 120
-13 0 -20 -7 -20 -19 0 -31 -12 -32 -66 -7 -55 26 -129 37 -190 27z"/>
<path fill="white" d="M20509 9253 c-6 -15 -15 -36 -20 -45 -5 -10 -9 -25 -9 -33 0 -8 -4
-23 -10 -33 -5 -9 -57 -160 -115 -336 -58 -175 -110 -327 -116 -337 -7 -14
-21 -19 -51 -19 -33 0 -46 6 -72 33 -33 36 -35 38 -94 167 -21 47 -53 102 -72
123 -32 37 -32 38 -12 44 44 11 108 52 136 87 26 31 29 43 29 105 0 106 -35
161 -133 212 -42 22 -59 24 -280 29 -129 3 -290 4 -357 2 -115 -2 -123 -4
-123 -22 0 -16 7 -20 30 -20 17 0 30 -5 30 -12 0 -6 -55 -68 -122 -137 -68
-68 -141 -143 -162 -165 -36 -37 -40 -38 -47 -21 -11 29 -11 279 1 309 8 22
16 26 50 26 33 0 40 3 40 19 0 19 -9 20 -147 23 -82 2 -212 2 -290 0 -134 -3
-143 -4 -143 -23 0 -16 7 -19 51 -19 38 0 55 -5 65 -17 17 -23 19 -465 3 -545
-31 -158 -92 -218 -219 -218 -86 0 -154 42 -191 117 -23 46 -24 58 -27 332 -2
155 -1 294 2 307 5 20 13 24 46 24 33 0 40 3 40 20 0 19 -7 20 -145 20 -138 0
-145 -1 -145 -20 0 -16 7 -20 33 -20 18 0 38 -5 45 -12 9 -9 12 -89 12 -298 0
-291 4 -324 41 -380 31 -47 57 -70 105 -97 41 -22 65 -27 147 -31 117 -5 165
9 226 68 36 35 47 54 80 133 7 19 11 122 11 311 0 219 3 286 13 294 7 6 47 11
90 11 65 0 78 -3 87 -19 6 -11 10 -150 10 -362 -1 -380 -1 -384 -59 -376 -24
3 -32 0 -37 -15 -3 -10 -2 -23 3 -28 5 -5 72 -8 149 -7 l139 3 0 25 c0 22 -3
25 -36 22 -51 -5 -59 20 -59 183 l0 134 50 53 50 53 25 -30 c60 -72 256 -375
250 -385 -4 -6 -23 -10 -44 -8 -33 3 -36 1 -36 -22 l0 -25 279 -3 c160 -1 284
2 289 7 5 5 6 17 3 28 -5 15 -14 18 -49 15 -73 -6 -77 4 -77 179 l0 149 43 0
c50 0 112 -27 149 -64 15 -15 41 -62 58 -104 58 -139 69 -159 107 -192 l37
-33 104 7 c58 3 134 6 169 6 62 0 63 0 63 28 0 26 -2 27 -45 24 -40 -4 -45 -2
-45 17 0 25 79 271 93 289 6 8 44 12 122 12 131 0 114 16 174 -165 22 -66 43
-128 47 -139 6 -16 3 -18 -39 -15 -45 4 -47 3 -47 -23 l0 -28 425 0 425 0 0
28 c0 26 -2 27 -45 24 -78 -7 -75 -19 -75 334 0 173 3 314 8 314 7 -1 30 -31
94 -125 36 -52 62 -90 251 -359 133 -189 162 -226 183 -226 l24 0 0 399 c0
315 3 401 13 409 18 15 179 14 189 -1 14 -21 10 -721 -4 -735 -7 -7 -27 -12
-46 -12 -29 0 -33 -3 -30 -22 l3 -23 258 -3 257 -2 0 27 c0 27 -1 28 -46 24
l-46 -3 4 33 c6 37 72 262 83 279 10 16 230 13 243 -3 6 -7 25 -55 42 -107 17
-52 35 -104 39 -115 31 -74 31 -76 16 -81 -8 -4 -29 -4 -45 -2 -27 4 -30 2
-30 -24 l0 -28 265 0 265 0 0 29 c0 28 -1 28 -48 23 -84 -8 -82 -17 -82 333 0
180 4 306 9 310 6 3 29 -22 53 -56 24 -34 57 -81 73 -104 17 -23 109 -155 205
-293 156 -224 178 -251 203 -252 l27 0 0 394 c0 217 3 401 6 410 4 12 20 16
55 16 42 0 49 3 49 20 0 19 -7 20 -140 20 -132 0 -140 -1 -140 -19 0 -17 8
-20 53 -23 l52 -3 3 -287 c1 -159 -1 -288 -5 -288 -5 1 -38 44 -76 98 -37 53
-107 152 -155 218 -48 67 -116 163 -152 213 l-65 91 -107 0 c-101 0 -108 -1
-108 -20 0 -17 7 -20 43 -20 24 0 48 -5 55 -12 17 -17 17 -724 0 -734 -6 -4
-37 -9 -68 -10 l-57 -3 -67 207 c-38 114 -72 216 -76 227 -5 11 -34 99 -65
195 -31 96 -61 180 -67 187 -13 17 -73 17 -85 1 -5 -7 -60 -166 -122 -353 -61
-187 -115 -349 -120 -360 -5 -11 -16 -39 -26 -62 l-17 -41 -63 2 c-34 2 -67 6
-74 10 -16 10 -16 717 1 734 7 7 27 12 45 12 26 0 33 4 33 19 0 19 -9 20 -147
23 -82 2 -212 2 -290 0 -134 -3 -143 -4 -143 -23 0 -16 7 -19 48 -19 26 0 53
-5 60 -12 14 -14 17 -553 3 -562 -5 -3 -32 27 -60 67 -28 39 -90 127 -138 193
-49 67 -125 174 -171 237 l-83 116 -102 3 c-56 2 -168 1 -249 0 -138 -4 -148
-5 -148 -23 0 -15 7 -19 39 -19 26 0 41 -5 45 -16 3 -9 6 -174 6 -369 0 -270
-3 -355 -12 -362 -7 -5 -42 -9 -78 -8 l-65 0 -125 376 c-69 207 -130 392 -135
410 -9 31 -14 34 -52 37 -39 3 -44 1 -54 -25z m-695 -39 c102 -18 166 -99 166
-211 0 -100 -48 -152 -164 -178 -40 -9 -89 -15 -107 -13 l-34 3 -3 180 c-1 99
0 190 3 202 8 32 35 35 139 17z m-262 -17 c4 -7 8 -173 8 -370 l0 -357 -26
-10 c-14 -6 -40 -7 -57 -2 -28 6 -50 35 -164 207 -73 110 -133 201 -133 203 0
2 -11 18 -25 36 -14 18 -25 42 -25 52 0 19 179 204 229 237 30 20 181 23 193
4z m1778 -7 c6 -11 10 -151 10 -363 0 -401 7 -375 -105 -374 -38 0 -76 4 -82
10 -17 13 -19 717 -2 734 6 6 46 11 90 11 67 1 80 -2 89 -18z m-781 -157 c12
-38 26 -77 31 -88 21 -50 40 -107 40 -120 0 -12 -18 -15 -100 -15 -83 0 -100
3 -100 15 0 14 77 250 87 268 10 17 21 3 42 -60z m2214 -70 c25 -75 44 -140
41 -145 -3 -4 -48 -8 -100 -8 -87 0 -94 2 -94 20 0 10 4 29 9 42 6 13 22 64
37 113 27 88 39 115 53 115 4 0 28 -62 54 -137z"/>
<path fill="white" d="M9568 9253 c-128 -3 -138 -5 -138 -23 0 -15 8 -19 43 -22 l42 -3 3
-117 c2 -98 0 -122 -16 -150 -25 -45 -75 -69 -137 -66 l-50 3 -3 73 -3 72 -39
0 c-45 0 -52 -16 -20 -45 13 -12 20 -31 20 -55 0 -42 -25 -60 -85 -60 -19 0
-45 -5 -59 -11 -49 -23 -52 -15 -44 157 10 208 9 204 58 204 33 0 40 3 40 20
0 19 -7 20 -145 20 -138 0 -145 -1 -145 -20 0 -16 7 -20 33 -20 18 0 38 -5 45
-12 17 -17 17 -719 0 -736 -7 -7 -27 -12 -45 -12 -29 0 -33 -3 -33 -25 l0 -26
143 3 c139 3 142 4 145 26 3 19 -1 22 -31 22 -55 0 -59 13 -55 162 3 110 6
138 22 161 27 40 66 57 130 57 l55 0 3 -72 c3 -72 3 -73 32 -76 42 -5 53 11
27 44 -37 47 -23 104 26 104 13 0 50 7 83 17 33 9 63 13 67 10 3 -4 1 -64 -6
-134 -6 -71 -11 -156 -11 -189 0 -71 -13 -89 -60 -82 -27 4 -30 2 -30 -24 l0
-28 285 0 285 0 0 29 c0 28 -1 28 -44 24 -23 -3 -53 0 -65 6 -21 12 -21 15
-21 321 0 179 4 311 9 315 10 6 41 -37 366 -504 124 -178 143 -201 168 -201
l27 0 0 394 c0 217 3 401 6 410 4 12 20 16 55 16 42 0 49 3 49 20 0 19 -7 20
-140 20 -132 0 -140 -1 -140 -19 0 -17 8 -20 53 -23 l52 -3 3 -287 c1 -159 -1
-288 -5 -288 -5 0 -21 19 -36 43 -35 51 -71 102 -100 141 -12 15 -58 79 -102
141 -44 61 -109 153 -145 203 l-65 92 -90 0 c-49 0 -99 2 -110 3 -11 2 -82 1
-157 0z m240 -55 c18 -15 18 -721 -1 -736 -7 -6 -46 -10 -87 -9 l-75 2 -3 365
c-1 201 0 370 2 377 6 14 146 15 164 1z"/>
<path fill="white" d="M11170 9253 l-325 -3 3 -65 c2 -36 -1 -80 -7 -97 -6 -18 -7 -36 -3
-40 18 -18 40 6 56 62 10 37 26 66 41 78 26 21 163 48 177 34 4 -4 7 -179 6
-388 l-3 -379 -43 0 c-40 0 -43 -2 -40 -25 l3 -25 145 0 c142 0 145 1 148 22
3 19 -2 22 -40 25 l-43 3 -3 381 c-2 329 0 383 12 387 18 7 121 -8 158 -24 28
-11 54 -55 64 -108 4 -17 12 -35 19 -41 16 -14 49 -2 37 14 -12 15 -22 97 -15
124 6 25 50 31 71 10 17 -17 17 -719 0 -736 -7 -7 -27 -12 -45 -12 -29 0 -33
-3 -33 -25 l0 -26 143 3 c139 3 142 4 145 26 3 19 -1 22 -31 22 -55 0 -59 13
-55 162 3 110 6 138 22 161 27 40 66 57 131 57 l55 0 0 -75 0 -75 34 0 c44 0
53 13 26 40 -20 20 -26 63 -14 94 4 10 18 16 37 16 16 0 54 8 84 17 33 10 57
13 62 7 5 -5 5 -56 0 -114 -4 -58 -8 -142 -8 -186 -1 -92 -11 -109 -61 -102
-27 4 -30 2 -30 -24 l0 -28 150 0 150 0 0 28 c0 27 -2 29 -42 28 l-43 -1 -3
378 -2 377 45 0 c38 0 45 3 45 20 0 19 -7 20 -150 20 -142 0 -150 -1 -150 -19
0 -16 8 -20 43 -23 l42 -3 3 -112 c2 -91 -1 -119 -15 -150 -23 -50 -71 -74
-138 -71 l-50 3 -3 73 -3 72 -39 0 c-45 0 -52 -16 -20 -45 13 -12 20 -31 20
-55 0 -30 -5 -39 -25 -48 -14 -7 -40 -12 -57 -12 -17 0 -47 -5 -65 -12 -21 -8
-36 -8 -41 -3 -9 11 2 321 13 348 5 12 18 17 46 17 32 0 39 3 39 20 0 19 -7
20 -124 20 -68 0 -136 1 -152 3 -16 2 -175 2 -354 0z"/>
<path fill="white" d="M6608 9148 c-3 -57 -3 -105 -1 -108 12 -14 39 24 56 77 22 70 43 86
133 102 102 19 94 51 94 -373 0 -204 -4 -377 -9 -385 -6 -9 -21 -12 -45 -9
-34 4 -36 2 -36 -24 l0 -28 144 0 c87 0 147 4 151 10 3 6 4 18 1 28 -5 14 -14
17 -36 14 -61 -9 -60 -15 -60 384 0 323 2 364 16 379 10 9 26 14 38 11 12 -2
42 -8 69 -11 64 -10 94 -36 112 -98 19 -66 29 -81 48 -74 11 4 13 15 6 59 -5
29 -6 74 -3 101 l7 47 -341 0 -340 0 -4 -102z"/>
<path fill="white" d="M7670 9230 c0 -16 7 -20 33 -20 18 0 38 -5 45 -12 9 -9 12 -106 12
-373 0 -310 -2 -364 -16 -383 -8 -12 -24 -22 -35 -22 -18 0 -19 5 -13 78 7 87
3 96 -65 119 -46 16 -51 16 -51 -2 0 -9 12 -20 26 -25 14 -6 23 -13 21 -17
-43 -84 -44 -124 -2 -163 21 -19 32 -22 87 -18 73 4 117 29 146 81 15 29 17
64 14 364 -2 182 -1 341 3 352 5 17 15 21 46 21 32 0 39 3 39 20 0 19 -7 20
-145 20 -138 0 -145 -1 -145 -20z"/>
<path fill="white" d="M12370 9230 c0 -16 7 -20 33 -20 18 0 38 -5 45 -12 17 -17 17 -719 0
-736 -7 -7 -27 -12 -45 -12 -29 0 -33 -3 -33 -25 l0 -25 318 2 317 3 3 117 c2
87 6 119 17 128 21 17 19 30 -4 30 -26 0 -36 -15 -61 -92 -24 -74 -40 -98 -86
-121 -42 -22 -178 -32 -230 -18 -63 17 -69 36 -69 235 l0 171 105 0 105 0 3
-29 c2 -16 -1 -33 -7 -39 -6 -6 -11 -19 -11 -29 0 -13 8 -18 30 -18 l30 0 0
140 0 140 -30 0 c-23 0 -30 -4 -30 -20 0 -11 5 -20 10 -20 6 0 10 -16 10 -35
l0 -35 -111 0 -111 0 3 129 c4 147 11 162 83 180 53 13 170 -3 206 -29 16 -11
30 -36 38 -66 18 -66 26 -79 48 -79 16 0 18 5 14 30 -3 17 -5 63 -5 103 l0 72
-292 0 c-286 0 -293 0 -293 -20z"/>
<path fill="white" d="M13370 9231 c0 -18 6 -21 39 -21 26 0 41 -5 45 -16 3 -9 6 -174 6
-368 0 -260 -3 -355 -12 -364 -7 -7 -27 -12 -46 -12 -29 0 -33 -3 -30 -22 3
-23 6 -23 158 -26 246 -5 351 20 436 103 37 37 53 62 62 97 32 124 -8 199
-135 258 l-58 27 30 16 c39 20 81 65 94 100 25 65 5 147 -45 186 -65 51 -85
55 -321 59 -221 4 -223 3 -223 -17z m355 -15 c108 -28 135 -63 135 -171 -1
-99 -33 -135 -124 -135 -46 0 -46 0 -46 35 0 19 5 35 10 35 6 0 10 9 10 20 0
16 -7 20 -30 20 l-30 0 0 -140 0 -140 30 0 c22 0 30 5 30 18 0 10 -5 23 -11
29 -6 6 -9 23 -7 39 3 28 4 29 60 27 63 -2 116 -29 141 -73 21 -37 29 -111 17
-164 -21 -97 -81 -151 -185 -169 -86 -15 -126 -2 -142 43 -17 51 -18 704 0
718 10 9 26 13 82 20 6 1 33 -4 60 -12z"/>
<path fill="white" d="M16928 9185 c2 -36 -1 -80 -7 -97 -6 -18 -7 -36 -3 -40 18 -18 40 6
56 62 10 37 26 66 41 78 26 21 163 48 177 34 4 -4 7 -179 6 -388 l-3 -379 -43
0 c-40 0 -43 -2 -40 -25 l3 -25 145 0 c143 0 145 0 148 23 3 19 -1 22 -30 22
-19 0 -39 5 -46 12 -9 9 -12 108 -12 384 0 310 2 373 14 377 8 3 46 1 85 -5
85 -12 114 -36 132 -109 14 -55 29 -72 53 -63 12 5 13 10 5 26 -6 11 -11 56
-11 99 l1 79 -337 0 -337 0 3 -65z"/>
<path fill="white" d="M6355 7697 c-69 -26 -134 -77 -179 -140 -25 -35 -46 -71 -46 -79 0
-8 -3 -18 -7 -22 -16 -16 -32 -106 -32 -181 -2 -266 168 -455 409 -455 181 0
295 89 371 290 21 54 18 262 -4 325 -42 117 -112 199 -207 244 -48 23 -70 26
-165 28 -64 1 -123 -3 -140 -10z m234 -51 c112 -58 171 -197 171 -401 0 -168
-40 -276 -127 -343 -32 -23 -47 -27 -119 -31 -71 -3 -89 0 -130 20 -46 24
-100 81 -121 129 -27 63 -33 83 -43 160 -15 109 1 224 43 320 19 43 76 117
104 136 57 37 160 41 222 10z"/>
<path fill="white" d="M6440 7440 c0 -10 7 -23 16 -28 10 -6 14 -19 12 -38 -3 -26 -7 -29
-45 -32 -26 -2 -43 1 -43 7 0 6 -11 11 -25 11 -23 0 -25 -4 -25 -45 0 -38 3
-45 20 -45 10 0 23 7 28 16 6 11 20 14 48 12 35 -3 39 -6 42 -34 2 -19 -3 -36
-12 -44 -31 -25 -19 -40 34 -40 52 0 62 10 36 39 -15 17 -19 33 -17 64 1 23
79 25 87 2 4 -8 15 -15 25 -15 16 0 19 8 19 45 0 38 -3 45 -19 45 -11 0 -23
-4 -26 -10 -7 -11 -54 -13 -79 -4 -22 8 -20 36 4 67 31 39 25 47 -30 47 -43 0
-50 -3 -50 -20z"/>
<path fill="white" d="M9405 7697 c-69 -26 -134 -77 -179 -140 -25 -35 -46 -70 -46 -76 0
-6 -4 -19 -9 -29 -38 -75 -43 -233 -10 -333 30 -90 51 -128 101 -181 169 -176
477 -152 600 47 57 94 73 151 73 280 0 77 -5 132 -14 155 -51 134 -118 215
-211 259 -48 22 -70 26 -165 28 -64 1 -123 -3 -140 -10z m234 -52 c37 -19 92
-77 112 -117 49 -100 59 -147 59 -280 0 -186 -51 -307 -152 -359 -52 -26 -164
-26 -223 1 -123 56 -201 274 -165 462 35 178 105 283 205 309 40 11 130 2 164
-16z"/>
<path fill="white" d="M9485 7450 c-3 -5 3 -18 15 -30 24 -24 26 -65 4 -74 -25 -10 -74 -7
-74 4 0 6 -11 10 -25 10 -23 0 -25 -4 -25 -45 0 -38 3 -45 20 -45 10 0 23 7
28 16 6 11 20 14 48 12 34 -3 39 -7 42 -30 2 -17 -4 -33 -18 -46 -30 -28 -18
-42 35 -42 49 0 64 13 42 38 -16 17 -20 34 -18 65 1 23 79 25 87 2 4 -8 15
-15 25 -15 16 0 19 8 19 45 0 38 -3 45 -19 45 -11 0 -23 -4 -26 -10 -7 -11
-54 -13 -79 -4 -22 8 -20 36 4 67 11 14 20 30 20 36 0 14 -96 15 -105 1z"/>
<path fill="white" d="M11145 7697 c-69 -26 -134 -77 -179 -140 -25 -35 -46 -70 -46 -76 0
-6 -4 -19 -9 -29 -32 -64 -42 -223 -20 -306 57 -206 203 -326 398 -326 130 0
248 62 313 165 52 83 72 161 73 280 0 65 -6 126 -13 150 -41 125 -116 218
-212 264 -48 23 -69 26 -165 28 -64 1 -123 -3 -140 -10z m234 -52 c71 -36 130
-127 161 -245 13 -53 9 -266 -7 -322 -26 -90 -74 -158 -135 -189 -52 -26 -164
-26 -223 1 -78 35 -138 130 -162 255 -16 84 -16 136 -3 207 35 178 105 283
205 309 40 11 130 2 164 -16z"/>
<path fill="white" d="M11225 7450 c-3 -5 3 -18 15 -30 24 -24 26 -65 4 -74 -25 -10 -74 -7
-74 4 0 6 -11 10 -25 10 -23 0 -25 -4 -25 -45 0 -38 3 -45 20 -45 10 0 23 7
28 16 6 11 20 14 48 12 34 -3 39 -7 42 -30 2 -17 -4 -33 -18 -46 -30 -28 -18
-42 35 -42 49 0 64 13 42 38 -16 17 -20 34 -18 65 1 23 79 25 87 2 4 -8 15
-15 25 -15 16 0 19 8 19 45 0 38 -3 45 -19 45 -11 0 -23 -4 -26 -10 -7 -11
-54 -13 -79 -4 -22 8 -20 36 4 67 11 14 20 30 20 36 0 14 -96 15 -105 1z"/>
<path fill="white" d="M13038 7690 c-68 -26 -109 -54 -161 -108 -121 -130 -150 -350 -68
-516 40 -82 79 -126 151 -175 129 -85 270 -93 420 -22 87 41 100 57 111 141 5
41 17 90 26 108 18 37 16 44 -14 36 -20 -6 -34 -31 -69 -126 -19 -55 -69 -110
-124 -138 -62 -32 -172 -28 -241 8 -63 32 -118 100 -151 182 -19 47 -22 75
-23 190 0 120 3 142 24 195 33 82 67 127 125 167 45 30 55 33 125 33 67 0 84
-4 131 -31 66 -37 125 -111 134 -165 5 -33 10 -39 31 -39 l25 0 0 130 c0 123
-1 130 -20 130 -11 0 -20 -4 -20 -8 0 -5 -6 -16 -13 -26 -12 -16 -17 -17 -36
-6 -13 6 -53 23 -90 36 -82 30 -201 32 -273 4z"/>
<path fill="white" d="M16248 7690 c-194 -74 -298 -263 -269 -491 26 -206 213 -378 408
-379 95 0 225 46 282 99 25 23 30 37 36 101 4 41 13 85 21 97 27 43 13 57 -25
26 -12 -10 -33 -49 -46 -87 -32 -89 -60 -125 -124 -160 -48 -25 -60 -28 -135
-24 -71 3 -90 7 -132 33 -144 89 -205 331 -137 545 23 74 34 92 83 142 66 65
115 84 198 74 117 -14 217 -99 236 -198 6 -32 11 -38 31 -38 l25 0 0 130 c0
123 -1 130 -20 130 -11 0 -20 -4 -20 -8 0 -5 -6 -16 -12 -25 -12 -15 -20 -14
-98 18 -75 31 -95 35 -170 34 -56 -1 -101 -7 -132 -19z"/>
<path fill="white" d="M20360 7682 c-62 -31 -103 -83 -122 -154 -16 -64 8 -143 57 -187 30
-26 154 -91 174 -91 4 0 34 -13 67 -29 111 -55 154 -127 131 -224 -43 -187
-290 -177 -350 14 -9 29 -20 82 -23 117 -7 61 -8 63 -33 60 l-26 -3 -3 -156
c-2 -139 -1 -157 14 -163 10 -4 25 1 36 11 18 16 20 16 46 -1 104 -67 238 -74
332 -17 83 51 123 121 123 211 0 114 -43 164 -208 240 -147 68 -165 78 -197
113 -53 58 -29 179 43 221 38 22 131 26 166 8 36 -20 72 -75 86 -131 10 -43
15 -51 35 -51 22 0 23 1 20 118 -3 109 -4 117 -23 117 -14 0 -19 -6 -17 -18 5
-28 -21 -29 -75 -2 -74 36 -177 35 -253 -3z"/>
<path fill="white" d="M21127 7668 c-9 -24 -68 -200 -132 -393 -64 -192 -123 -361 -132
-374 -13 -21 -20 -23 -59 -17 -42 5 -44 4 -44 -19 l0 -25 135 0 135 0 0 24 c0
23 -4 25 -42 23 -34 -2 -43 2 -46 17 -4 17 18 95 67 241 l17 50 121 3 120 3
12 -28 c6 -15 31 -86 55 -156 38 -109 42 -129 29 -134 -9 -4 -29 -1 -44 4 -28
11 -29 10 -29 -18 l0 -29 155 0 155 0 0 30 c0 28 -2 30 -20 20 -12 -6 -33 -10
-48 -8 -23 3 -29 12 -53 78 -14 41 -28 82 -31 90 -4 8 -53 159 -111 335 l-104
320 -45 3 c-45 3 -45 3 -61 -40z m71 -256 c24 -70 46 -135 49 -144 5 -16 -4
-18 -96 -18 -90 0 -101 2 -101 18 0 9 16 62 35 117 19 55 35 107 35 116 0 15
19 39 30 39 3 0 25 -58 48 -128z"/>
<path fill="white" d="M6952 7668 c2 -19 8 -22 31 -20 58 7 57 13 57 -384 0 -337 -1 -364
-18 -373 -9 -5 -30 -7 -45 -4 -24 5 -27 2 -27 -21 l0 -26 166 0 165 0 -3 23
c-2 17 -9 22 -28 20 -37 -3 -67 5 -84 23 -13 13 -16 42 -16 160 0 166 -1 164
84 145 94 -21 132 -67 205 -253 23 -58 59 -103 98 -125 34 -19 115 -16 169 7
33 14 51 17 58 10 6 -6 68 -10 153 -10 l143 0 0 26 c0 23 -3 25 -28 19 -21 -4
-33 -1 -45 13 -16 17 -17 52 -15 388 l3 369 72 -1 c94 -2 131 -22 151 -84 27
-82 31 -90 52 -90 17 0 19 4 12 33 -20 94 2 158 46 131 16 -10 17 -41 20 -375
3 -402 4 -395 -59 -382 -26 5 -29 3 -29 -21 l0 -26 151 0 c150 0 150 0 147 23
-2 17 -10 22 -34 22 -61 1 -66 14 -62 155 2 104 6 131 23 160 27 45 83 72 143
68 l47 -3 5 -75 c5 -73 6 -75 33 -78 28 -3 50 23 30 37 -15 9 -33 47 -33 69 0
30 31 49 92 57 32 3 60 11 63 16 4 5 15 9 26 9 16 0 19 -7 19 -52 0 -107 -21
-342 -32 -355 -5 -7 -24 -12 -42 -10 -25 2 -32 -2 -34 -20 -3 -23 -3 -23 147
-23 l151 0 0 30 c0 28 -2 29 -26 20 -17 -7 -32 -7 -45 0 -18 10 -19 25 -19
374 0 400 -1 395 60 382 27 -5 30 -3 30 20 l0 25 -147 -3 c-140 -3 -148 -4
-148 -23 0 -14 6 -19 20 -18 11 2 30 0 43 -2 21 -5 22 -9 22 -128 0 -163 -21
-197 -128 -212 -73 -10 -82 0 -82 86 l0 69 -35 0 c-28 0 -35 -4 -35 -19 0 -10
7 -24 15 -31 9 -8 15 -29 15 -56 0 -42 -1 -43 -37 -49 -21 -3 -62 -13 -91 -21
-30 -9 -55 -14 -57 -12 -1 2 0 81 3 176 5 187 12 208 58 199 30 -5 48 7 41 27
-6 14 -55 16 -482 16 l-475 0 0 -72 0 -73 -37 41 c-80 87 -144 104 -396 104
l-198 0 3 -22z m365 -24 c87 -29 143 -109 143 -203 0 -123 -73 -182 -228 -185
l-77 -1 -3 189 c-2 130 1 193 9 202 16 19 97 18 156 -2z m541 -361 c2 -331 0
-373 -14 -388 -17 -17 -49 -13 -73 11 -12 11 -19 9 -45 -12 -24 -21 -37 -25
-64 -20 -46 7 -75 36 -111 110 -16 34 -46 96 -66 139 -20 42 -49 86 -63 97
-14 11 -23 22 -21 23 2 2 28 14 58 27 75 34 117 86 126 156 3 29 10 54 14 54
11 0 31 47 31 73 0 58 84 108 175 104 l50 -2 3 -372z"/>
<path fill="white" d="M10002 7668 c2 -19 8 -22 31 -20 58 7 57 12 57 -379 0 -395 0 -395
-60 -382 -27 5 -30 3 -30 -21 l0 -26 206 0 c287 0 341 16 451 132 48 51 70 89
104 177 18 47 18 215 0 271 -30 94 -110 189 -191 228 -80 38 -110 42 -342 42
l-229 0 3 -22z m454 -39 c64 -31 132 -103 168 -179 28 -61 30 -73 30 -185 0
-118 0 -121 -37 -197 -61 -126 -146 -180 -290 -186 -137 -6 -127 -37 -127 380
0 222 4 356 10 369 9 17 22 19 105 19 76 0 104 -4 141 -21z"/>
<path fill="white" d="M10360 7446 c0 -7 7 -19 15 -26 22 -18 21 -177 -1 -201 -23 -26 -9
-39 42 -39 47 0 58 16 29 40 -11 9 -15 35 -15 102 0 70 3 90 15 94 8 4 15 15
15 25 0 16 -8 19 -50 19 -36 0 -50 -4 -50 -14z"/>
<path fill="white" d="M11652 7668 c2 -19 8 -22 36 -20 26 3 38 -3 62 -28 17 -18 30 -38 30
-46 0 -8 5 -14 10 -14 6 0 10 -4 10 -9 0 -6 35 -68 78 -139 44 -71 81 -136 85
-145 6 -17 -213 -366 -240 -381 -9 -5 -29 -4 -49 2 -33 10 -34 9 -34 -19 l0
-29 140 0 140 0 0 26 c0 24 -2 25 -42 19 -24 -3 -50 -1 -58 4 -13 9 -12 14 5
43 52 89 167 258 175 258 8 0 50 -52 50 -63 0 -2 29 -53 65 -112 36 -59 65
-110 65 -115 0 -13 -29 -20 -60 -13 -27 5 -30 3 -30 -21 l0 -26 161 0 160 0
-3 23 c-2 16 -10 22 -28 22 -44 1 -67 15 -94 55 -14 22 -26 41 -26 43 0 2 -43
75 -95 162 -67 111 -93 164 -89 178 3 10 50 87 103 170 l97 152 45 1 c37 0 44
4 47 22 3 22 1 22 -133 22 -134 0 -136 0 -133 -22 3 -18 10 -22 48 -22 32 -1
46 -5 48 -16 3 -15 -114 -208 -148 -244 -18 -18 -18 -18 -33 5 -91 147 -137
233 -133 246 4 10 17 13 38 11 28 -2 34 1 36 20 l3 22 -156 0 -156 0 3 -22z"/>
<path fill="white" d="M13532 7668 c2 -19 8 -22 31 -20 58 7 57 13 57 -384 0 -392 2 -378
-55 -379 -23 0 -31 -5 -33 -22 -3 -23 -3 -23 148 -23 151 0 151 0 148 23 -2
18 -9 22 -37 22 -55 1 -63 22 -59 155 2 91 7 124 23 155 25 51 78 77 143 73
l47 -3 5 -75 c5 -73 6 -75 33 -78 33 -4 46 21 24 46 -46 51 -24 112 42 112 20
1 54 7 76 15 22 8 44 15 48 15 5 0 6 -84 2 -187 -8 -213 -15 -239 -66 -228
-26 6 -29 4 -29 -19 l0 -26 145 0 145 0 0 30 c0 28 -2 29 -26 20 -32 -13 -30
-13 -48 6 -14 13 -16 61 -16 373 0 395 -2 385 62 379 28 -2 34 1 36 20 3 22 3
22 -147 22 l-151 0 0 -25 c0 -22 3 -24 28 -19 49 10 62 -14 62 -114 0 -157
-34 -214 -135 -227 -76 -9 -85 0 -85 86 l0 69 -35 0 c-29 0 -35 -4 -35 -20 0
-11 7 -23 15 -26 10 -4 15 -21 15 -55 0 -45 -2 -49 -27 -54 -16 -3 -57 -12
-92 -20 -35 -8 -65 -14 -66 -13 -1 2 1 83 4 181 7 194 8 200 66 195 24 -2 30
1 30 17 0 19 -8 20 -148 23 l-148 3 3 -23z"/>
<path fill="white" d="M14392 7668 c2 -19 8 -22 34 -20 62 6 64 -7 64 -329 0 -319 1 -327
67 -400 96 -106 272 -131 408 -57 41 22 73 61 104 127 26 56 26 57 29 346 2
164 8 295 13 302 12 14 148 14 167 0 9 -7 12 -94 12 -373 0 -337 -1 -364 -18
-373 -9 -5 -30 -7 -45 -4 -24 5 -27 2 -27 -21 l0 -26 166 0 165 0 -3 23 c-2
18 -9 22 -33 20 -42 -4 -84 16 -91 41 -2 11 -3 82 -2 156 3 134 3 135 27 138
38 6 106 -18 145 -50 30 -24 96 -137 96 -163 0 -4 14 -35 31 -70 39 -81 86
-115 159 -115 63 0 160 42 160 69 0 30 -12 31 -42 6 -32 -27 -58 -31 -91 -14
-44 23 -61 49 -142 221 -25 53 -56 106 -70 116 -14 11 -25 22 -25 24 0 3 19
11 43 19 62 20 132 93 141 147 15 97 -29 194 -106 233 -91 46 -115 49 -470 49
l-338 0 0 -24 c0 -22 3 -24 39 -19 21 3 48 0 60 -7 l23 -12 -4 -296 c-3 -285
-4 -299 -26 -342 -48 -95 -89 -121 -192 -121 -75 0 -110 13 -151 58 -65 69
-79 153 -79 456 0 243 5 262 60 262 28 1 36 5 38 23 3 22 2 22 -148 22 -151 0
-151 0 -148 -22z m1174 -23 c87 -25 144 -105 144 -201 0 -128 -66 -184 -222
-187 l-83 -2 -3 189 c-2 130 1 193 9 202 15 18 92 18 155 -1z"/>
<path fill="white" d="M16742 7668 c2 -19 8 -22 35 -20 25 3 35 -2 48 -21 14 -22 15 -67 13
-370 -2 -263 -6 -349 -16 -359 -7 -7 -27 -12 -45 -13 -25 0 -33 -5 -35 -22 -3
-23 -3 -23 148 -23 151 0 151 0 148 23 -2 17 -10 22 -35 22 -53 1 -58 13 -58
148 1 98 5 130 19 160 25 50 80 79 144 75 l47 -3 5 -75 c5 -70 7 -75 29 -78
40 -6 46 12 21 62 -21 44 -21 48 -6 71 13 19 25 25 54 25 20 1 55 7 77 15 22
8 44 15 49 15 4 0 5 -87 1 -192 -8 -214 -13 -232 -66 -221 -26 5 -29 3 -29
-21 l0 -26 150 0 c157 0 160 1 144 44 -4 11 -11 13 -31 5 -31 -12 -29 -12 -47
7 -14 13 -16 61 -16 365 0 230 4 357 11 370 8 16 19 20 47 17 31 -3 37 0 37
17 0 19 -8 20 -147 23 l-148 3 0 -25 c0 -23 3 -25 28 -20 50 10 62 -14 62
-118 0 -157 -32 -210 -138 -224 -72 -9 -82 1 -82 87 l0 69 -35 0 c-38 0 -48
-23 -20 -44 9 -6 18 -27 21 -47 7 -43 -14 -69 -55 -69 -15 0 -50 -7 -77 -15
-27 -8 -52 -15 -55 -15 -3 0 -4 75 -1 168 5 192 12 215 65 210 26 -2 32 1 32
17 0 19 -8 20 -148 23 l-148 3 3 -23z"/>
<path fill="white" d="M17944 7675 c-9 -23 5 -35 35 -29 18 4 33 0 44 -11 15 -15 17 -53 17
-364 0 -385 0 -385 -61 -386 -28 0 -35 -4 -37 -22 l-3 -23 290 0 291 0 0 24
c0 22 -4 24 -48 23 -85 -3 -82 -17 -82 334 0 169 4 310 9 313 4 3 87 -108 184
-247 175 -251 219 -313 235 -332 4 -5 27 -38 51 -73 33 -49 47 -63 64 -60 l22
3 3 399 c2 292 5 403 14 414 9 10 25 13 55 9 40 -4 43 -3 43 19 l0 24 -140 0
c-133 0 -140 -1 -140 -20 0 -17 7 -20 43 -20 24 0 48 -5 55 -12 14 -14 18
-568 5 -568 -5 0 -37 41 -73 91 -36 50 -99 137 -140 194 -41 57 -112 155 -158
219 l-83 116 -245 0 c-205 0 -246 -2 -250 -15z m384 -38 c9 -6 12 -91 12 -367
l0 -360 -25 -16 c-21 -14 -30 -14 -54 -4 -22 9 -34 9 -50 0 -15 -8 -27 -8 -41
0 -19 10 -20 21 -20 373 0 240 4 367 10 373 12 12 149 13 168 1z"/>
<path fill="white" d="M19420 7665 c0 -22 3 -24 28 -19 19 4 34 0 45 -11 15 -15 17 -49 17
-301 0 -319 3 -342 64 -411 124 -141 380 -138 485 7 55 76 61 119 61 423 0
305 0 303 65 295 31 -4 35 -1 35 19 0 23 -1 23 -141 23 -140 0 -140 0 -137
-22 3 -20 8 -23 40 -20 20 2 46 -2 58 -8 21 -11 21 -14 18 -308 -3 -296 -3
-297 -29 -353 -32 -68 -72 -99 -142 -108 -113 -14 -182 17 -235 109 l-27 45
-3 298 c-4 327 -3 331 52 325 26 -2 32 1 34 20 3 22 3 22 -142 22 l-146 0 0
-25z"/>
<path fill="white" d="M7376 5083 c-15 -49 -32 -97 -36 -108 -5 -11 -20 -58 -35 -105 -15
-47 -31 -94 -36 -105 -4 -11 -33 -96 -64 -190 -32 -93 -61 -175 -67 -182 -5
-7 -33 -11 -70 -9 -50 1 -63 5 -69 21 -11 30 -11 649 1 679 8 21 16 26 45 26
28 0 35 4 35 20 0 20 -7 20 -390 20 -383 0 -390 0 -390 -20 0 -17 7 -20 39
-20 32 0 40 -4 45 -22 10 -41 7 -668 -4 -689 -8 -13 -21 -19 -45 -19 -28 0
-35 -4 -35 -20 0 -19 7 -20 145 -20 137 0 145 1 145 19 0 16 -8 20 -42 23
l-43 3 -3 342 -2 342 27 18 c40 26 286 26 326 0 l27 -18 -2 -342 -3 -342 -37
-3 c-30 -3 -38 -7 -38 -23 0 -18 9 -19 255 -19 246 0 255 1 255 19 0 17 -8 20
-47 23 -48 3 -48 3 -45 36 4 57 68 252 86 264 6 4 57 8 113 8 119 0 107 10
153 -132 17 -51 35 -102 40 -113 22 -47 17 -60 -22 -63 -30 -3 -38 -7 -38 -23
0 -18 9 -19 270 -19 261 0 270 1 270 19 0 16 -8 20 -37 23 l-38 3 0 365 0 365
67 -2 c56 -1 73 -6 106 -29 116 -84 139 -235 49 -329 -35 -36 -50 -44 -92 -50
-101 -13 -95 -7 -95 -85 l0 -70 35 0 c34 0 49 20 25 35 -5 3 -10 21 -10 39 0
33 1 33 54 39 104 11 205 77 245 162 28 59 26 95 -5 160 -29 63 -67 98 -144
133 -51 24 -68 26 -247 30 -189 4 -193 4 -193 -16 0 -17 7 -21 38 -24 l37 -3
0 -359 0 -360 -66 -3 -67 -2 -17 47 c-24 68 -31 88 -60 182 -14 47 -30 94 -34
105 -5 11 -36 106 -70 210 -87 266 -76 245 -125 245 l-41 0 -29 -87z m82 -195
c22 -68 44 -131 47 -140 7 -16 -2 -18 -94 -18 -56 0 -101 2 -101 5 0 2 4 14 9
27 6 13 22 61 36 108 32 106 45 140 55 140 3 0 25 -55 48 -122z"/>
<path fill="white" d="M8696 5058 c-20 -62 -41 -122 -46 -133 -5 -11 -21 -58 -35 -105 -14
-47 -30 -93 -35 -102 -6 -10 -10 -25 -10 -33 0 -8 -4 -23 -9 -33 -5 -9 -22
-55 -37 -102 -26 -84 -40 -121 -54 -150 -4 -9 -25 -16 -54 -18 -38 -3 -46 -7
-46 -23 0 -18 8 -19 130 -19 123 0 130 1 130 20 0 17 -7 20 -46 20 l-47 0 7
38 c6 39 31 130 46 167 5 11 11 32 14 47 11 50 29 58 134 58 53 0 102 -4 109
-8 6 -4 19 -30 28 -57 9 -28 20 -59 25 -70 18 -41 50 -142 50 -158 0 -13 -9
-17 -40 -17 -33 0 -40 -3 -40 -20 0 -19 7 -20 150 -20 149 0 150 0 150 23 0
20 -5 22 -46 22 l-46 0 -24 75 c-14 41 -29 84 -33 95 -5 11 -53 154 -106 318
l-98 297 -42 0 -42 0 -37 -112z m62 -93 c5 -16 22 -61 35 -100 14 -38 28 -85
32 -102 l7 -33 -96 0 c-53 0 -96 3 -96 8 0 10 31 104 41 124 5 10 9 27 9 37 0
11 5 23 10 26 6 3 10 15 10 26 0 24 22 61 31 51 3 -4 11 -20 17 -37z"/>
<path fill="white" d="M11765 5154 c-181 -64 -276 -204 -277 -405 0 -93 6 -117 51 -207 61
-124 192 -213 323 -220 79 -5 164 15 237 55 68 38 78 54 86 136 4 40 14 81 21
92 19 26 18 35 -5 35 -26 0 -35 -14 -62 -93 -29 -84 -68 -133 -133 -163 -57
-27 -112 -30 -183 -12 -37 10 -62 27 -109 73 -80 79 -107 158 -106 309 2 235
112 384 277 374 112 -7 203 -73 235 -170 13 -40 22 -54 38 -56 22 -3 22 -1 22
122 0 117 -1 126 -19 126 -10 0 -21 -9 -24 -20 -6 -24 -27 -25 -70 -6 -104 47
-222 59 -302 30z"/>
<path fill="white" d="M14437 5066 c-20 -57 -37 -110 -37 -118 0 -8 -4 -18 -8 -23 -5 -6
-21 -50 -36 -100 -15 -49 -31 -98 -36 -107 -6 -10 -10 -26 -10 -36 0 -10 -4
-22 -8 -28 -5 -5 -21 -49 -36 -99 -27 -87 -40 -124 -56 -155 -4 -9 -25 -16
-54 -18 -38 -3 -46 -7 -46 -23 0 -18 8 -19 130 -19 123 0 130 1 130 20 0 17
-7 20 -44 20 -26 0 -46 5 -48 13 -4 11 31 140 52 192 5 11 11 32 14 47 11 50
29 58 134 58 53 0 102 -4 109 -8 6 -4 23 -43 38 -87 14 -44 30 -89 34 -100 44
-105 43 -115 -9 -115 -33 0 -40 -3 -40 -20 0 -20 7 -20 275 -20 268 0 275 0
275 20 0 17 -7 20 -40 20 -50 0 -53 10 -49 167 3 99 7 122 24 145 26 35 76 58
125 58 49 0 60 -18 60 -94 0 -55 0 -56 29 -56 39 0 45 12 21 40 -22 26 -27 79
-8 98 7 7 28 12 48 12 19 1 53 7 75 15 22 8 42 15 44 15 7 0 -6 -365 -13 -382
-6 -12 -19 -18 -42 -18 -27 0 -34 -4 -34 -20 0 -19 7 -20 250 -20 243 0 250 1
250 20 0 17 -7 20 -44 20 -25 0 -48 5 -51 10 -4 6 1 36 11 68 49 163 68 218
78 224 6 4 57 8 113 8 120 0 108 11 164 -155 59 -176 58 -158 10 -153 -37 3
-41 1 -41 -19 0 -23 1 -23 150 -23 143 0 150 1 150 20 0 17 -7 20 -44 20 -24
0 -48 6 -53 13 -5 6 -62 174 -127 372 -65 198 -122 370 -127 383 -8 20 -15 23
-52 20 l-42 -3 -101 -300 c-56 -165 -103 -307 -106 -315 -3 -8 -13 -40 -23
-71 -25 -86 -34 -94 -102 -94 -32 0 -61 4 -65 10 -9 12 -11 676 -2 699 4 11
19 16 45 16 32 0 39 3 39 20 0 19 -7 20 -140 20 -132 0 -140 -1 -140 -19 0
-16 8 -20 38 -23 l37 -3 3 -115 c2 -101 0 -119 -18 -148 -25 -40 -78 -64 -133
-60 l-42 3 -5 70 -5 70 -32 3 c-27 3 -33 0 -33 -16 0 -11 7 -22 15 -26 10 -4
15 -20 15 -50 0 -42 -2 -46 -27 -51 -16 -3 -54 -12 -85 -20 -32 -8 -61 -15
-64 -15 -9 0 3 319 12 343 4 12 18 17 45 17 32 0 39 3 39 20 0 19 -7 20 -140
20 -132 0 -140 -1 -140 -19 0 -16 8 -20 38 -23 l37 -3 3 -340 c1 -187 0 -350
-3 -361 -4 -19 -11 -21 -72 -20 l-67 1 -24 75 c-14 41 -28 84 -32 95 -5 11
-52 154 -105 318 l-98 297 -41 0 -42 0 -37 -104z m77 -151 c15 -44 31 -89 36
-100 5 -11 12 -35 15 -52 l7 -33 -96 0 c-53 0 -96 3 -96 8 0 13 50 166 60 184
6 10 10 25 10 33 0 21 23 56 31 47 4 -4 19 -43 33 -87z m1515 25 c12 -36 26
-74 31 -85 19 -45 40 -106 40 -115 0 -6 -42 -10 -101 -10 -92 0 -101 2 -94 18
12 30 65 197 65 205 0 9 32 59 35 55 1 -2 12 -32 24 -68z"/>
<path fill="white" d="M18975 5154 c-76 -27 -104 -45 -154 -93 -82 -80 -123 -182 -123 -311
-1 -122 41 -226 126 -311 129 -131 317 -155 485 -62 68 38 78 54 86 136 4 40
14 81 21 92 19 27 18 35 -6 35 -21 0 -60 -64 -60 -98 0 -27 -53 -106 -91 -134
-96 -72 -228 -63 -322 21 -79 72 -119 177 -119 317 -1 138 36 246 108 318 51
51 96 68 169 64 110 -7 201 -72 237 -170 15 -42 26 -58 39 -58 12 0 19 7 19
19 0 11 4 22 9 26 5 3 15 22 21 43 33 106 50 120 161 129 l69 6 0 -356 c0
-195 -3 -362 -6 -371 -4 -11 -19 -16 -45 -16 -32 0 -39 -3 -39 -20 0 -19 7
-20 145 -20 138 0 145 1 145 20 0 16 -7 20 -33 20 -18 0 -38 5 -45 12 -9 9
-12 105 -12 371 l0 360 75 -6 c107 -9 128 -26 154 -124 9 -32 17 -43 31 -43
18 0 19 5 13 48 -7 51 -7 55 -5 90 2 19 7 23 30 20 l27 -3 3 -340 c1 -187 0
-350 -3 -362 -4 -18 -12 -23 -40 -23 -28 0 -35 -4 -35 -20 0 -19 7 -20 140
-20 133 0 140 1 140 20 0 17 -7 20 -40 20 -34 0 -41 4 -46 25 -6 23 7 48 53
105 22 28 158 205 247 322 49 65 92 115 97 112 10 -6 12 -523 3 -548 -4 -10
-18 -16 -40 -16 -27 0 -34 -4 -34 -20 0 -19 7 -20 140 -20 133 0 140 1 140 20
0 17 -7 20 -39 20 -26 0 -41 5 -45 16 -8 20 -8 678 0 698 3 9 16 16 29 16 30
0 38 -32 25 -100 -6 -29 -10 -54 -10 -56 0 -2 9 -4 20 -4 15 0 23 12 36 57 22
77 50 100 129 108 36 4 71 5 80 1 13 -5 15 -52 15 -359 0 -261 -3 -356 -12
-365 -7 -7 -27 -12 -45 -12 -26 0 -33 -4 -33 -20 0 -19 7 -20 145 -20 138 0
145 1 145 20 0 17 -7 20 -39 20 -26 0 -41 5 -45 16 -3 9 -6 176 -6 371 l0 356
69 -6 c111 -9 128 -23 161 -129 8 -28 17 -38 32 -38 16 0 19 4 14 23 -25 86
-19 137 18 137 13 0 27 -7 30 -16 8 -20 8 -678 0 -698 -4 -11 -19 -16 -45 -16
-32 0 -39 -4 -39 -19 0 -18 14 -19 338 -23 328 -5 338 -4 382 17 38 18 49 31
79 90 38 76 43 89 59 150 29 105 50 247 60 405 7 90 8 95 32 101 38 11 151 10
189 -1 61 -17 60 -14 61 -367 0 -177 -3 -328 -6 -337 -4 -11 -19 -16 -45 -16
-32 0 -39 -4 -39 -19 0 -18 10 -20 153 -25 83 -3 180 -8 214 -11 62 -7 62 -6
102 32 30 29 46 58 71 128 17 50 42 106 55 126 30 46 104 83 165 84 l45 0 3
-144 c2 -97 -1 -148 -9 -157 -7 -8 -31 -14 -60 -14 -42 0 -49 -3 -49 -20 0
-19 7 -20 160 -20 153 0 160 1 160 20 0 17 -7 20 -39 20 -26 0 -41 5 -45 16
-8 20 -8 678 0 698 4 11 19 16 45 16 33 0 39 3 39 21 0 21 -2 21 -212 17 -209
-4 -214 -4 -271 -32 -70 -34 -108 -79 -123 -146 -22 -99 27 -188 122 -225 24
-9 44 -18 44 -19 0 -1 -19 -23 -42 -47 -32 -34 -54 -73 -83 -148 -60 -154
-104 -188 -181 -141 -21 13 -35 17 -39 10 -20 -33 -25 29 -25 340 0 186 3 345
6 354 4 10 18 16 40 16 27 0 34 4 34 20 0 20 -7 20 -315 20 -308 0 -315 0
-315 -20 0 -17 7 -20 45 -20 33 0 47 -5 52 -17 8 -20 -14 -327 -29 -403 -26
-135 -83 -256 -127 -267 -14 -3 -36 0 -50 8 -22 13 -26 23 -29 70 -2 41 1 59
13 69 20 17 19 30 -4 30 -24 0 -35 -15 -51 -65 -40 -132 -78 -159 -229 -160
-102 0 -114 4 -139 52 -13 23 -17 308 -6 337 5 13 21 16 78 15 94 -1 120 -9
124 -38 2 -13 -1 -28 -7 -34 -6 -6 -11 -19 -11 -29 0 -13 8 -18 30 -18 l30 0
0 135 0 135 -30 0 c-23 0 -30 -4 -30 -20 0 -11 5 -20 11 -20 6 0 9 -16 7 -37
l-3 -38 -94 -3 c-69 -2 -97 1 -103 10 -4 7 -8 63 -8 125 0 104 2 114 24 140
23 27 28 28 118 28 124 -1 150 -15 175 -99 15 -50 23 -62 42 -64 21 -3 23 -1
15 20 -4 12 -8 58 -8 101 l-1 77 -717 0 c-704 0 -718 0 -718 -19 0 -16 8 -20
38 -23 33 -3 37 -6 40 -33 2 -18 -4 -38 -15 -50 -10 -11 -45 -56 -78 -100 -33
-44 -65 -87 -72 -95 -84 -108 -164 -213 -188 -247 -17 -24 -34 -41 -40 -39
-11 3 -20 503 -10 544 4 18 12 22 45 22 33 0 40 3 40 20 0 20 -7 20 -470 20
-463 0 -470 0 -470 -20 0 -24 -32 -27 -73 -5 -86 44 -223 58 -302 29z m4343
-233 l2 -194 -77 6 c-128 9 -188 47 -211 132 -10 39 -10 55 4 101 32 110 98
155 224 151 l55 -2 3 -194z"/>
<path fill="white" d="M9470 5136 c0 -22 3 -24 33 -19 41 6 60 -13 55 -59 l-3 -33 -105 0
c-84 -1 -114 -5 -151 -22 -134 -60 -181 -272 -97 -428 43 -79 105 -106 248
-109 l105 -1 3 -33 c5 -46 -14 -65 -55 -59 -30 5 -33 3 -33 -19 l0 -24 140 0
140 0 0 24 c0 22 -3 24 -33 19 -41 -6 -60 13 -55 59 l3 33 106 2 c123 1 182
21 223 76 46 60 60 105 60 202 0 102 -19 159 -72 211 -54 55 -95 68 -212 69
l-105 1 -3 32 c-5 46 14 65 55 59 30 -5 33 -3 33 19 l0 24 -140 0 -140 0 0
-24z m81 -167 c5 -7 9 -112 9 -232 l0 -217 -27 -11 c-16 -6 -54 -9 -86 -6
-116 10 -170 88 -170 245 0 56 5 98 12 105 6 6 11 18 11 26 0 23 46 76 82 95
41 21 154 18 169 -5z m272 12 c87 -33 141 -170 117 -297 -14 -72 -55 -143 -96
-165 -38 -20 -161 -19 -174 1 -11 17 -13 430 -2 446 4 6 14 14 22 17 24 9 107
8 133 -2z"/>
<path fill="white" d="M10102 5133 c2 -12 14 -19 38 -21 19 -2 38 -9 42 -15 9 -14 11 -678
2 -701 -4 -11 -19 -16 -45 -16 -32 0 -39 -4 -39 -19 0 -19 10 -20 148 -25 81
-3 177 -8 214 -11 l66 -7 39 39 c26 26 46 61 62 108 56 161 90 202 184 225 94
22 92 25 95 -137 3 -164 -1 -173 -74 -173 -37 0 -44 -3 -44 -20 0 -19 7 -20
160 -20 152 0 160 1 160 19 0 16 -8 20 -42 23 l-43 3 0 360 0 360 43 3 c35 3
42 7 42 24 0 20 -4 20 -212 16 -236 -5 -266 -12 -341 -78 -49 -43 -74 -126
-58 -189 17 -65 45 -96 111 -128 33 -15 60 -30 60 -33 0 -3 -13 -14 -29 -25
-30 -19 -71 -92 -111 -194 -21 -54 -54 -109 -75 -123 -19 -14 -57 -8 -91 12
-21 13 -35 17 -39 10 -20 -33 -25 29 -25 340 0 186 3 345 6 354 4 11 19 16 45
16 32 0 39 3 39 20 0 19 -7 20 -146 20 -133 0 -145 -1 -142 -17z m796 -25 c8
-8 12 -66 12 -195 l0 -183 -58 0 c-122 0 -205 45 -231 127 -26 79 21 196 93
235 50 27 163 37 184 16z"/>
<path fill="white" d="M12220 5131 c0 -17 6 -21 35 -21 29 0 37 -5 45 -26 6 -14 10 -159 10
-339 0 -180 -4 -325 -10 -339 -8 -21 -16 -26 -45 -26 -29 0 -35 -4 -35 -21 0
-21 2 -21 208 -17 236 5 271 13 347 80 64 56 79 89 79 175 1 69 0 73 -34 108
-19 20 -58 47 -87 62 -29 14 -53 29 -53 34 0 5 14 16 31 24 41 22 89 99 89
144 0 60 -37 112 -105 146 -60 30 -60 30 -267 33 -206 4 -208 4 -208 -17z
m364 -22 c81 -22 128 -110 106 -197 -6 -25 -21 -54 -32 -64 -25 -21 -94 -42
-114 -34 -17 7 -19 67 -2 84 17 17 -3 35 -33 30 -24 -3 -24 -4 -24 -133 0
-129 0 -130 24 -133 30 -5 50 13 33 30 -7 7 -12 27 -12 45 0 32 2 33 39 33 86
0 141 -36 165 -108 25 -72 22 -99 -23 -190 -9 -19 -37 -46 -66 -64 -43 -26
-60 -31 -122 -32 -109 -2 -102 -25 -103 386 0 268 3 347 13 351 22 10 112 7
151 -4z"/>
<path fill="white" d="M13210 5131 c0 -16 8 -20 38 -23 l37 -3 0 -360 0 -360 -37 -3 c-30
-3 -38 -7 -38 -23 0 -18 8 -19 145 -19 138 0 145 1 145 20 0 17 -7 20 -40 20
-34 0 -42 4 -50 26 -11 28 -14 621 -4 673 6 29 9 31 50 31 37 0 44 3 44 20 0
19 -7 20 -145 20 -137 0 -145 -1 -145 -19z"/>
<path fill="white" d="M13510 5131 c0 -18 6 -21 39 -21 32 0 40 -4 45 -22 10 -41 7 -668 -4
-689 -8 -13 -21 -19 -45 -19 -29 0 -35 -4 -35 -21 0 -21 2 -21 213 -17 193 4
216 6 262 27 117 53 159 113 160 228 0 70 -1 73 -39 112 -21 22 -61 49 -87 61
-27 11 -49 24 -48 28 0 4 19 21 41 37 23 17 49 44 59 60 35 59 16 155 -38 193
-71 50 -97 55 -315 60 -206 4 -208 4 -208 -17z m363 -22 c21 -5 51 -22 67 -37
56 -52 65 -168 15 -217 -25 -26 -94 -49 -119 -39 -19 7 -22 64 -4 82 17 17 -3
35 -33 30 -24 -3 -24 -4 -24 -133 0 -129 0 -130 24 -133 31 -5 48 12 32 32 -7
8 -11 27 -9 43 2 23 9 29 33 31 37 5 104 -15 129 -36 25 -23 56 -97 56 -136 0
-50 -29 -123 -62 -156 -45 -46 -92 -63 -169 -64 -104 -1 -98 -23 -99 386 0
268 3 347 13 351 22 9 111 7 150 -4z"/>
<path fill="white" d="M16670 5130 c0 -17 7 -20 38 -20 25 0 45 -7 54 -17 9 -10 61 -94 117
-187 l102 -169 -40 -66 c-22 -36 -73 -115 -113 -176 l-73 -110 -48 0 c-42 0
-47 -2 -47 -22 0 -23 2 -23 135 -23 128 0 135 1 135 20 0 17 -7 20 -50 20 -68
0 -66 15 15 136 36 54 65 100 65 103 1 3 11 19 24 34 27 33 22 38 101 -93 111
-182 110 -180 44 -180 -32 0 -39 -3 -39 -20 0 -20 7 -20 290 -20 283 0 290 0
290 20 0 16 -7 20 -35 20 -28 0 -37 5 -44 23 -4 12 -6 178 -3 370 l5 347 41 0
c152 0 257 -127 231 -281 -11 -63 -77 -125 -141 -134 -100 -13 -94 -7 -94 -85
l0 -70 35 0 c39 0 43 9 19 45 -26 41 -11 61 50 68 113 11 230 97 255 188 28
100 -38 212 -157 267 -54 24 -68 26 -249 30 -189 4 -193 4 -193 -16 0 -17 7
-21 38 -24 l37 -3 0 -360 0 -360 -70 -2 c-59 -1 -74 2 -92 20 -13 11 -23 25
-23 30 0 5 -8 21 -19 35 -10 15 -30 47 -43 72 -14 25 -53 90 -86 144 -71 117
-76 86 54 288 l85 133 47 5 c34 4 48 10 50 23 3 15 -8 17 -132 17 -129 0 -136
-1 -136 -20 0 -17 7 -20 50 -20 38 0 50 -4 50 -15 0 -9 -35 -70 -78 -136 -59
-91 -81 -117 -89 -107 -22 28 -143 238 -143 248 0 5 20 10 45 10 38 0 45 3 45
20 0 19 -7 20 -155 20 -148 0 -155 -1 -155 -20z"/>
<path fill="white" d="M18012 5133 c2 -12 14 -19 38 -21 19 -2 38 -9 42 -15 9 -14 11 -678
2 -701 -4 -11 -19 -16 -45 -16 -32 0 -39 -3 -39 -20 0 -20 7 -20 310 -20 l310
0 0 109 c0 84 3 111 15 121 20 17 19 30 -4 30 -24 0 -35 -15 -51 -65 -40 -132
-78 -159 -229 -160 -102 0 -114 4 -139 52 -13 23 -17 308 -6 337 5 13 21 16
78 15 94 -1 120 -9 124 -38 2 -13 -1 -28 -7 -34 -6 -6 -11 -19 -11 -29 0 -13
8 -18 30 -18 l30 0 0 135 0 135 -30 0 c-23 0 -30 -4 -30 -20 0 -11 5 -20 11
-20 6 0 9 -16 7 -37 l-3 -38 -94 -3 c-69 -2 -97 1 -103 10 -4 7 -8 63 -8 125
0 104 2 114 24 140 23 27 28 28 118 28 124 -1 150 -15 175 -99 15 -50 23 -62
42 -64 21 -3 23 -1 15 20 -4 12 -8 58 -8 101 l-1 77 -283 0 c-265 0 -283 -1
-280 -17z"/>
<path fill="white" d="M9183 3807 c-50 -22 -30 -97 25 -97 35 0 52 16 52 51 0 41 -38 64
-77 46z"/>
<path fill="white" d="M8972 3798 c-18 -18 -15 -59 6 -74 37 -29 92 -6 92 38 0 32 -18 48
-55 48 -17 0 -36 -5 -43 -12z"/>
<path fill="white" d="M8561 3643 c-6 -16 -63 -185 -127 -378 -64 -192 -123 -358 -132 -368
-12 -14 -27 -18 -54 -15 -34 3 -38 1 -38 -19 0 -23 1 -23 130 -23 128 0 130 0
130 23 0 20 -4 22 -45 19 -61 -5 -61 -2 -10 160 51 162 37 149 168 146 l111
-3 49 -140 c26 -77 49 -144 50 -150 1 -5 -16 -10 -38 -11 -33 0 -41 -4 -43
-22 l-3 -22 280 0 c274 0 281 0 281 20 0 16 -7 20 -38 20 -21 0 -43 5 -50 12
-14 14 -18 684 -4 705 4 6 25 13 47 15 46 4 61 31 23 42 -35 9 -251 7 -267 -3
-25 -16 -4 -41 33 -41 22 0 36 -6 40 -16 3 -9 6 -168 6 -354 0 -246 -3 -341
-12 -346 -6 -4 -37 -8 -69 -10 l-58 -3 -25 67 c-14 37 -26 74 -26 83 0 8 -4
19 -8 25 -5 5 -19 43 -32 84 -34 115 -50 163 -59 185 -5 11 -33 93 -61 183
l-53 162 -42 0 c-37 0 -44 -4 -54 -27z m54 -233 c16 -47 32 -89 36 -95 3 -5 9
-27 13 -47 l7 -38 -96 0 c-52 0 -95 4 -95 9 0 12 78 250 86 263 10 16 19 -2
49 -92z"/>
<path fill="white" d="M10411 3654 c-104 -37 -175 -102 -225 -207 -60 -124 -59 -276 2 -397
32 -64 121 -157 177 -186 119 -61 266 -55 391 17 68 39 84 64 84 136 0 40 6
68 20 91 l20 32 -24 0 c-18 0 -28 -10 -44 -42 -11 -24 -23 -57 -26 -75 -9 -41
-75 -116 -123 -138 -56 -27 -169 -23 -229 7 -121 60 -184 216 -169 417 10 136
76 256 166 302 78 39 200 18 278 -47 29 -25 67 -91 76 -131 5 -26 12 -33 31
-33 l25 0 -3 128 c-3 119 -4 127 -23 127 -13 0 -21 -8 -23 -22 -4 -27 -21 -29
-65 -9 -105 48 -230 60 -316 30z"/>
<path fill="white" d="M12405 3286 c-70 -212 -133 -390 -138 -395 -16 -16 -54 -13 -83 5
-36 24 -69 86 -105 197 -36 111 -78 168 -153 206 -55 27 -58 18 51 131 40 41
84 90 99 108 38 45 85 72 128 72 32 0 36 3 36 25 l0 26 -122 -3 c-119 -3 -123
-4 -126 -25 -3 -20 1 -23 27 -23 17 0 31 -5 31 -11 0 -7 -35 -50 -77 -96 -43
-47 -98 -107 -123 -135 -38 -42 -50 -49 -75 -46 l-30 3 -3 143 -3 142 41 0
c37 0 41 2 38 23 -3 22 -6 22 -138 22 -132 0 -135 0 -138 -22 -3 -21 1 -23 37
-23 l41 0 -2 -362 -3 -363 -35 0 c-28 -1 -36 -5 -38 -23 -3 -22 -2 -22 137
-22 133 0 141 1 141 19 0 16 -8 20 -37 23 l-38 3 -3 198 -2 197 36 0 c77 0
128 -60 175 -202 34 -103 54 -140 96 -179 52 -48 100 -59 254 -59 139 0 140 0
137 22 -3 18 -10 22 -48 22 -45 1 -45 1 -42 34 2 32 38 154 67 232 l13 35 110
3 c105 2 112 1 123 -19 21 -40 97 -273 92 -282 -3 -5 -21 -7 -39 -5 -30 4 -34
1 -34 -19 0 -23 0 -23 151 -23 149 0 150 0 147 22 -3 18 -10 22 -47 22 -57 1
-43 -30 -180 391 -143 436 -124 395 -175 395 l-42 0 -129 -384z m180 107 c22
-65 43 -122 47 -128 24 -28 7 -35 -85 -35 -52 0 -96 3 -100 6 -3 3 -2 16 3 27
5 12 21 63 36 112 28 97 44 135 54 135 3 0 24 -53 45 -117z"/>
<path fill="white" d="M14965 3588 c-15 -46 -30 -92 -35 -103 -5 -11 -48 -137 -95 -280
-112 -336 -106 -325 -161 -325 -37 0 -44 -3 -44 -20 0 -19 7 -20 130 -20 129
0 130 0 130 23 0 20 -4 23 -35 19 -54 -6 -66 10 -50 61 8 23 24 76 36 117 12
41 28 88 36 103 l14 28 112 -3 112 -3 21 -62 c11 -34 23 -66 27 -69 4 -4 7
-17 7 -29 0 -12 3 -25 7 -28 14 -15 41 -107 32 -113 -5 -3 -24 -4 -42 -2 -27
2 -33 -1 -35 -20 l-4 -23 339 3 c320 3 341 4 391 25 115 47 172 119 173 220 1
62 -14 105 -47 135 -26 23 -92 58 -108 58 -29 0 -21 26 16 53 118 85 101 235
-33 290 -57 23 -203 39 -334 35 -115 -3 -120 -4 -123 -25 -3 -19 2 -22 35 -25
l38 -3 3 -349 c1 -214 -1 -353 -7 -359 -6 -6 -37 -11 -69 -13 l-59 -3 -15 37
c-8 20 -67 198 -133 395 l-118 357 -43 0 -42 0 -27 -82z m832 7 c44 -26 73
-82 73 -141 0 -71 -26 -108 -90 -129 -76 -25 -92 -5 -65 83 7 20 4 22 -24 22
l-31 0 0 -129 c0 -134 2 -141 46 -141 17 0 19 31 3 47 -6 6 -9 21 -7 34 3 21
9 24 51 27 134 9 209 -133 143 -274 -36 -78 -102 -117 -200 -118 -106 -2 -100
-23 -104 376 -2 187 0 348 3 356 8 22 159 12 202 -13z m-768 -160 c11 -33 31
-90 44 -127 14 -37 22 -69 19 -72 -9 -10 -192 -6 -192 3 0 12 78 250 86 263
10 15 21 -2 43 -67z"/>
<path fill="white" d="M16337 3653 c-91 -31 -176 -126 -216 -241 -31 -88 -32 -223 -1 -320
26 -83 91 -170 157 -212 144 -92 341 -77 455 34 73 71 113 164 123 286 9 96
-6 186 -45 267 -36 78 -88 133 -161 170 -47 24 -67 28 -159 30 -77 2 -118 -1
-153 -14z m232 -42 c64 -33 112 -97 148 -198 25 -70 24 -288 -1 -363 -23 -66
-65 -130 -101 -154 -37 -24 -120 -36 -183 -25 -93 14 -162 91 -202 222 -16 51
-16 231 0 287 32 115 85 196 149 230 49 26 139 26 190 1z"/>
<path fill="white" d="M16430 3416 c0 -7 7 -19 15 -26 18 -15 20 -51 3 -68 -17 -17 -54 -15
-72 3 -29 29 -46 19 -46 -30 0 -37 3 -45 19 -45 10 0 21 7 25 15 9 24 73 20
81 -5 7 -23 -2 -60 -16 -60 -5 0 -9 -9 -9 -20 0 -16 7 -20 38 -20 20 0 44 5
52 10 12 8 11 12 -8 30 -23 21 -27 37 -16 64 8 21 67 21 84 1 24 -29 40 -18
40 30 0 49 -17 59 -46 30 -18 -18 -55 -20 -72 -3 -19 19 -14 55 9 72 30 21 15
36 -37 36 -31 0 -44 -4 -44 -14z"/>
<path fill="white" d="M17223 3651 c-64 -23 -68 -26 -120 -68 -94 -75 -143 -188 -143 -328
0 -48 5 -106 12 -129 40 -136 152 -251 284 -291 87 -26 162 -19 282 28 l54 21
16 -21 c38 -47 137 -37 194 21 40 40 81 141 113 276 15 64 45 301 45 356 0 91
8 97 138 92 153 -5 142 24 142 -378 0 -360 1 -357 -60 -348 -26 4 -30 1 -30
-19 l0 -23 255 0 255 0 0 24 c0 22 -3 23 -45 18 -59 -6 -62 5 -30 104 14 43
30 95 36 114 6 19 15 47 21 63 l10 27 113 0 113 0 12 -32 c6 -18 16 -41 21
-50 5 -10 9 -25 9 -33 0 -8 4 -23 10 -33 12 -21 50 -137 50 -153 0 -8 -13 -10
-40 -6 -37 5 -40 3 -40 -19 l0 -24 304 0 c167 0 327 5 356 10 166 31 262 152
236 294 -11 56 -74 112 -158 140 -25 8 -22 21 6 39 109 72 128 188 44 263 -57
51 -196 77 -393 72 -126 -3 -130 -4 -133 -25 -3 -21 1 -23 36 -23 27 0 42 -5
46 -16 10 -25 7 -674 -3 -692 -7 -13 -23 -17 -73 -17 l-63 0 -113 345 c-63
190 -118 353 -123 362 -5 10 -9 26 -9 36 0 27 -20 42 -58 42 -37 0 -61 -21
-62 -53 0 -9 -4 -25 -10 -35 -5 -9 -41 -116 -81 -237 -39 -121 -75 -229 -80
-240 -4 -11 -20 -58 -35 -105 -36 -112 -42 -119 -109 -115 -30 2 -59 6 -65 10
-11 7 -15 670 -4 699 4 10 18 16 41 16 30 0 34 3 31 23 l-3 22 -310 0 -310 0
-3 -22 c-3 -20 2 -22 45 -25 l48 -3 0 -95 c-2 -278 -47 -480 -128 -568 -25
-27 -67 -24 -99 5 -16 14 -18 26 -12 77 3 34 12 71 20 83 18 29 18 33 -5 33
-24 0 -35 -15 -51 -65 -20 -62 -51 -122 -74 -144 -99 -91 -272 -85 -364 13
-70 74 -103 172 -103 306 0 139 34 242 103 311 53 53 91 69 160 69 114 0 228
-83 256 -184 9 -36 17 -46 32 -46 20 0 20 5 18 127 -3 112 -5 128 -20 131 -13
2 -18 -3 -18 -18 0 -32 -22 -33 -91 -4 -87 36 -220 43 -296 15z m2354 -67 c60
-49 79 -135 45 -204 -13 -26 -29 -39 -66 -52 -63 -24 -86 -17 -86 27 0 19 5
37 10 40 6 3 10 13 10 21 0 11 -9 14 -32 12 l-33 -3 -3 -127 -3 -127 25 -7
c14 -3 30 -3 35 1 14 8 14 35 1 35 -5 0 -10 16 -10 35 l0 35 50 0 c80 0 132
-36 157 -108 48 -138 -47 -272 -204 -288 -50 -5 -62 -3 -85 16 l-28 21 0 348
c0 191 3 351 8 355 4 5 44 6 89 4 74 -4 87 -8 120 -34z m-782 -150 c9 -27 20
-58 25 -69 13 -28 40 -114 40 -125 0 -6 -41 -10 -96 -10 l-96 0 7 33 c9 41 64
206 77 231 13 23 19 14 43 -60z"/>
<path fill="white" d="M20881 3473 c-36 -109 -68 -205 -72 -213 -4 -8 -31 -87 -59 -175 -68
-210 -66 -207 -138 -199 -31 4 -60 12 -64 18 -9 13 -11 667 -2 690 4 11 19 16
46 16 35 0 39 2 36 23 -3 22 -6 22 -138 22 -131 0 -135 -1 -138 -22 -3 -19 2
-22 35 -25 l38 -3 3 -115 c2 -98 0 -119 -17 -146 -25 -40 -80 -66 -134 -62
l-42 3 -5 70 -5 70 -32 3 c-36 4 -45 -16 -18 -38 9 -8 15 -29 15 -55 0 -47 -9
-55 -61 -55 -17 0 -38 -4 -47 -9 -9 -4 -30 -11 -46 -15 l-29 -7 6 163 c3 90 9
172 13 181 4 12 18 17 46 17 35 0 39 2 36 23 -3 22 -6 22 -138 22 -131 0 -135
-1 -138 -22 -3 -19 2 -22 35 -25 l38 -3 3 -340 c1 -187 0 -350 -3 -362 -4 -18
-12 -23 -40 -23 -28 0 -35 -4 -35 -20 0 -19 7 -20 140 -20 133 0 140 1 140 20
0 16 -7 20 -35 20 -47 0 -55 19 -55 142 0 107 9 159 32 182 27 27 78 46 121
46 53 0 57 -7 57 -91 0 -59 0 -59 29 -59 40 0 48 17 22 44 -23 24 -28 75 -9
94 7 7 26 12 44 12 17 0 51 7 74 15 23 8 45 15 47 15 8 0 -3 -363 -12 -382 -5
-12 -18 -18 -41 -18 -27 0 -34 -4 -34 -20 0 -19 7 -20 250 -20 l250 0 0 24 c0
22 -3 23 -44 19 -69 -8 -69 -12 4 217 l26 85 112 3 c107 3 111 2 124 -20 20
-37 97 -272 91 -281 -3 -5 -21 -7 -39 -5 -30 4 -34 1 -34 -19 0 -23 0 -23 150
-23 l150 0 0 24 c0 22 -3 23 -43 19 -53 -6 -56 -3 -91 112 -15 50 -31 99 -36
110 -5 11 -26 72 -45 135 -20 63 -40 124 -45 135 -4 11 -28 81 -52 155 l-44
135 -44 3 -45 3 -64 -198z m87 10 c19 -48 82 -238 82 -246 0 -4 -43 -7 -95 -7
-74 0 -95 3 -95 14 0 14 53 189 72 239 6 15 14 27 18 27 4 0 12 -12 18 -27z"/>
<path fill="white" d="M6280 3635 c0 -22 4 -25 39 -25 43 0 60 -17 96 -95 10 -22 44 -94 75
-160 32 -66 82 -169 111 -230 64 -136 68 -176 18 -217 -18 -15 -38 -28 -44
-28 -6 0 -31 20 -55 45 -45 46 -66 53 -101 35 -26 -14 -26 -71 0 -94 47 -43
180 -42 231 0 22 19 100 158 100 179 0 2 11 28 24 57 13 29 41 94 61 143 21
50 46 110 57 135 10 25 23 54 28 65 64 152 71 166 89 163 14 -3 16 -40 16
-363 l0 -360 -37 -3 c-30 -3 -38 -7 -38 -23 0 -18 8 -19 140 -19 133 0 140 1
140 20 0 16 -7 20 -35 20 -29 0 -37 5 -45 26 -11 27 -14 332 -4 358 8 21 67
21 102 0 33 -19 76 -77 91 -124 6 -19 18 -57 27 -85 32 -103 86 -169 162 -199
34 -13 79 -16 222 -16 173 0 180 1 180 20 0 16 -7 20 -35 20 -28 0 -37 5 -44
23 -4 12 -6 178 -3 369 5 395 -4 362 96 345 54 -9 89 -28 124 -67 44 -48 56
-82 56 -160 1 -63 -3 -81 -22 -107 -37 -52 -76 -74 -144 -81 l-63 -7 0 -70 c0
-66 1 -70 24 -73 30 -5 50 13 33 30 -7 7 -12 27 -12 44 0 32 1 33 57 40 120
15 226 94 251 187 26 99 -34 209 -141 260 -81 38 -192 49 -462 45 l-240 -3 -3
-22 c-3 -20 1 -23 28 -23 21 0 30 -4 28 -14 -3 -12 -118 -143 -210 -238 -40
-41 -90 -52 -102 -22 -8 21 -8 203 0 243 6 28 10 31 46 31 35 0 39 2 36 23 -3
22 -4 22 -200 25 l-198 2 0 -25 c0 -23 4 -25 45 -25 51 0 57 -13 31 -66 -13
-26 -145 -344 -167 -401 -10 -28 -30 -22 -46 15 -7 15 -21 47 -31 72 -11 25
-35 79 -55 120 -19 41 -44 98 -57 125 -12 28 -28 63 -36 79 -23 47 -18 56 27
56 36 0 40 2 37 23 -3 22 -6 22 -150 25 l-148 3 0 -26z m1448 -379 c1 -193 -2
-354 -6 -358 -5 -5 -32 -11 -60 -13 -40 -3 -56 1 -76 16 -28 22 -85 135 -106
209 -25 93 -71 152 -146 189 -30 16 -42 27 -37 35 15 26 214 231 245 253 27
19 43 22 107 20 l76 -2 3 -349z"/>
<path fill="white" d="M9287 3654 c-4 -4 -7 -16 -7 -26 0 -14 8 -18 40 -18 l40 0 -2 -362
-3 -363 -35 0 c-28 -1 -36 -5 -38 -23 -3 -22 -2 -22 137 -22 133 0 141 1 141
19 0 16 -8 20 -37 23 l-38 3 -3 141 c-2 139 -2 142 23 172 32 38 72 54 126 50
l44 -3 3 -72 3 -73 34 0 c40 0 43 11 15 47 -22 29 -26 73 -8 91 7 7 29 12 49
12 20 0 53 7 72 15 62 26 61 30 53 -147 -4 -90 -11 -179 -15 -198 -6 -32 -10
-35 -41 -35 -28 -1 -36 -5 -38 -23 -3 -22 -2 -22 138 -22 140 0 141 0 138 22
-2 18 -10 22 -38 23 l-35 0 -3 363 -2 362 41 0 c36 0 40 2 37 23 -3 22 -6 22
-138 22 -131 0 -135 -1 -138 -22 -3 -19 2 -22 35 -25 l38 -3 3 -121 c2 -111 1
-123 -19 -148 -27 -35 -76 -56 -128 -56 -46 0 -51 8 -51 91 l0 59 -35 0 c-40
0 -43 -11 -15 -47 42 -53 19 -103 -48 -103 -16 0 -46 -7 -65 -15 -62 -26 -61
-28 -54 113 4 70 10 151 13 180 l7 52 39 0 c35 0 39 2 36 23 -3 21 -7 22 -134
25 -71 1 -133 -1 -137 -4z"/>
<path fill="white" d="M10887 3653 c-4 -3 -7 -14 -7 -24 0 -13 9 -19 38 -21 l37 -3 3 -349
c2 -249 -1 -353 -9 -362 -6 -8 -24 -14 -40 -14 -22 0 -29 -5 -29 -20 0 -19 7
-20 178 -20 97 0 197 5 221 11 149 34 231 123 233 251 2 152 -96 228 -294 228
l-98 0 0 -70 c0 -66 1 -70 26 -76 38 -10 50 8 29 44 -31 52 -16 65 65 60 111
-8 148 -47 158 -165 11 -145 -78 -243 -225 -247 -103 -2 -97 -20 -101 362 -2
179 0 337 3 349 4 19 12 23 45 23 33 0 40 4 40 19 0 10 -7 22 -16 25 -21 8
-249 8 -257 -1z"/>
<path fill="white" d="M13267 3653 c-4 -3 -7 -15 -7 -25 0 -14 8 -18 39 -18 32 0 40 -4 45
-22 10 -39 7 -655 -4 -683 -8 -22 -15 -26 -43 -23 -27 2 -33 -1 -35 -19 -3
-23 -3 -23 142 -23 138 0 146 1 146 19 0 16 -8 20 -42 23 l-43 3 -3 341 c-2
336 -2 341 19 360 19 17 37 19 169 19 132 0 150 -2 169 -19 21 -19 21 -24 19
-360 l-3 -341 -38 0 c-32 0 -37 -3 -37 -22 0 -23 1 -23 141 -23 140 0 140 0
137 23 -2 18 -8 21 -35 19 -28 -3 -35 1 -43 23 -13 34 -13 645 0 679 8 21 16
26 45 26 32 0 36 3 33 23 l-3 22 -381 3 c-209 1 -383 -1 -387 -5z"/>
<path fill="white" d="M14077 3653 c-4 -3 -7 -14 -7 -24 0 -13 9 -19 38 -21 l37 -3 0 -360
0 -360 -35 0 c-28 -1 -36 -5 -38 -23 -3 -22 -2 -22 137 -22 133 0 141 1 141
19 0 16 -8 20 -37 23 l-38 3 -3 368 -2 367 22 2 c128 8 215 -53 253 -177 11
-39 12 -58 3 -95 -22 -91 -76 -138 -170 -148 l-63 -7 0 -70 0 -70 33 -3 c23
-2 32 1 32 12 0 8 -4 18 -10 21 -5 3 -10 21 -10 40 0 33 0 34 57 41 79 9 138
38 193 93 60 60 78 117 59 191 -26 102 -115 171 -254 196 -73 13 -327 19 -338
7z"/>
<path fill="white" d="M10089 2153 c-6 -15 -64 -190 -130 -388 -70 -210 -127 -365 -137
-373 -9 -7 -33 -12 -52 -10 -30 3 -35 0 -38 -20 l-3 -23 133 3 c125 3 133 4
133 23 0 17 -7 20 -42 20 -23 0 -45 3 -48 7 -4 4 -3 24 3 45 15 57 58 194 71
226 l11 27 114 0 c99 0 114 -2 119 -17 3 -10 26 -76 50 -148 25 -71 43 -134
40 -139 -3 -4 -21 -6 -39 -3 -31 5 -34 3 -34 -19 l0 -24 151 0 c150 0 150 0
147 23 -3 19 -8 22 -44 19 -25 -2 -44 2 -50 10 -6 7 -63 175 -128 373 -64 198
-123 371 -129 385 -10 19 -22 26 -50 28 -33 3 -38 0 -48 -25z m31 -185 c8 -24
16 -47 19 -53 14 -25 59 -171 54 -177 -6 -10 -180 -10 -187 0 -2 4 15 66 40
137 24 72 44 131 44 133 0 1 4 2 8 2 5 0 15 -19 22 -42z"/>
<path fill="white" d="M12503 2168 c-114 -13 -239 -102 -288 -205 -59 -124 -60 -288 -4
-409 22 -46 115 -149 159 -176 47 -28 146 -58 195 -58 52 0 85 9 180 47 102
41 125 73 125 174 0 25 7 54 15 65 20 27 18 36 -7 32 -24 -3 -57 -56 -58 -92
0 -35 -50 -105 -98 -138 -45 -32 -51 -33 -142 -33 -91 0 -97 1 -142 33 -111
76 -170 245 -146 416 19 137 63 221 144 275 41 27 56 31 114 31 130 0 225 -69
261 -188 8 -30 18 -42 31 -42 17 0 18 10 18 130 0 123 -1 130 -20 130 -13 0
-20 -7 -20 -19 0 -33 -18 -34 -83 -7 -78 32 -154 44 -234 34z"/>
<path fill="white" d="M14366 2172 c-3 -5 -17 -44 -31 -88 -14 -43 -30 -88 -34 -99 -5 -11
-46 -132 -91 -270 -82 -253 -106 -315 -122 -326 -13 -9 -119 -2 -129 8 -5 5
-8 164 -7 359 l3 349 38 3 c32 3 37 7 37 28 l0 25 -137 -3 c-130 -3 -138 -4
-138 -23 0 -16 8 -21 40 -25 l40 -5 3 -331 c3 -412 18 -378 -167 -382 l-131
-4 -10 27 c-11 29 -14 611 -4 664 6 28 10 31 45 31 35 0 39 3 39 25 l0 25
-140 0 -140 0 0 -25 c0 -22 4 -25 40 -25 l40 0 0 -355 0 -355 -24 -6 c-14 -3
-74 -4 -134 -2 -166 5 -153 -29 -150 377 l3 336 40 5 c32 4 40 9 40 25 0 19
-7 20 -140 20 -133 0 -140 -1 -140 -20 0 -16 8 -21 35 -23 19 -2 38 -9 42 -15
11 -17 9 -679 -2 -697 -5 -8 -24 -14 -42 -15 -26 0 -34 -4 -36 -22 l-3 -23
680 0 681 0 0 25 c0 24 -2 25 -40 19 -63 -10 -62 -9 2 206 6 19 17 50 25 68
l14 32 109 0 c125 0 117 6 151 -103 11 -34 24 -71 29 -82 19 -41 38 -110 33
-119 -3 -4 -21 -6 -39 -3 -31 5 -34 4 -34 -19 l0 -25 148 3 c139 3 147 4 147
23 0 17 -6 20 -41 17 -45 -4 -54 3 -73 63 -7 22 -16 49 -21 60 -4 11 -54 162
-111 335 -56 173 -106 321 -112 328 -10 13 -73 17 -81 4z m53 -284 c24 -68 44
-130 44 -138 2 -12 -15 -16 -87 -18 -49 -2 -93 1 -97 5 -12 12 75 273 91 273
3 0 25 -55 49 -122z"/>
<path fill="white" d="M6304 2146 c-9 -24 5 -36 41 -36 31 0 35 -3 40 -32 9 -49 1 -675 -8
-685 -5 -4 -23 -8 -40 -8 -26 0 -33 -5 -35 -22 l-3 -23 331 0 c407 0 386 7
432 -133 21 -65 31 -77 62 -77 17 0 17 2 3 24 -12 17 -17 54 -19 128 l-3 103
-32 0 c-18 1 -37 5 -43 11 -7 7 -9 130 -8 360 l3 349 40 5 c32 4 40 9 40 25 0
19 -7 20 -140 20 -133 0 -140 -1 -140 -20 0 -16 8 -21 37 -23 29 -3 39 -8 43
-25 4 -13 5 -165 3 -339 -3 -289 -5 -319 -21 -335 -16 -16 -38 -18 -181 -18
-148 0 -166 2 -185 19 -21 19 -21 24 -19 355 l3 336 40 5 c32 4 40 9 40 25 0
19 -8 20 -138 23 -114 2 -138 0 -143 -12z"/>
<path fill="white" d="M7164 2145 c-9 -23 5 -35 41 -35 21 0 35 -6 39 -16 10 -26 7 -678 -4
-694 -5 -8 -24 -14 -42 -15 -26 0 -33 -4 -33 -20 0 -20 7 -20 305 -20 l305 0
5 111 c3 73 10 117 19 128 12 14 11 16 -12 16 -21 0 -28 -8 -42 -47 -46 -133
-79 -163 -198 -177 -78 -10 -131 0 -162 31 l-25 26 2 171 3 171 70 3 c39 2 85
0 103 -3 27 -5 32 -10 32 -35 0 -16 -4 -32 -10 -35 -22 -14 -10 -35 20 -35
l30 0 0 130 0 130 -30 0 c-31 0 -39 -17 -19 -37 6 -6 9 -23 7 -39 l-3 -29
-102 -3 -103 -3 0 126 c0 119 1 127 24 150 34 34 101 41 184 21 37 -9 72 -22
79 -29 7 -6 20 -39 31 -72 14 -49 22 -61 41 -63 20 -3 22 -1 15 15 -4 10 -10
57 -12 106 l-3 87 -275 0 c-231 0 -276 -2 -280 -15z"/>
<path fill="white" d="M7810 2136 c0 -21 5 -25 38 -28 l37 -3 3 -357 c2 -282 0 -358 -10
-360 -7 -1 -24 -2 -38 -2 -18 -1 -26 -7 -28 -23 -3 -23 -3 -23 137 -23 l141 0
0 26 c0 23 -3 25 -24 20 -58 -14 -56 -26 -56 370 l0 364 25 6 c37 9 119 -14
165 -47 68 -49 107 -151 88 -228 -22 -91 -75 -136 -176 -149 l-57 -7 -3 -67
c-3 -65 -2 -68 23 -74 36 -9 52 9 36 39 -7 13 -11 35 -9 48 3 21 9 24 53 27
66 3 165 53 209 103 90 106 63 237 -66 325 -69 46 -162 64 -339 64 l-149 0 0
-24z"/>
<path fill="white" d="M8440 2136 c0 -21 5 -25 38 -28 l37 -3 3 -350 c2 -318 1 -351 -14
-362 -10 -7 -28 -10 -41 -7 -20 5 -23 2 -23 -20 l0 -26 140 0 140 0 0 26 c0
23 -3 25 -29 19 -55 -12 -61 6 -61 195 0 93 3 175 6 184 4 11 19 16 47 16 35
0 47 -6 86 -47 28 -29 52 -66 60 -93 36 -117 44 -138 66 -175 31 -54 61 -80
118 -104 44 -19 69 -21 257 -21 267 0 328 12 421 82 70 53 104 182 66 255 -19
37 -67 76 -119 98 -20 8 -39 19 -42 24 -3 5 12 21 34 36 55 38 80 82 80 140 0
91 -57 142 -189 170 -55 11 -140 15 -352 15 l-279 0 0 -25 c0 -21 5 -25 30
-25 17 0 30 -4 30 -8 0 -23 -238 -271 -267 -278 -45 -12 -53 8 -53 136 0 65 3
125 6 134 4 11 19 16 45 16 35 0 39 3 39 25 l0 25 -140 0 -140 0 0 -24z m1089
-38 c55 -28 80 -71 80 -143 1 -69 -25 -111 -79 -125 -62 -17 -84 -10 -88 24
-2 16 1 33 7 39 20 20 12 37 -19 37 l-30 0 0 -130 0 -130 30 0 c30 0 42 21 20
35 -17 10 -11 54 9 64 26 14 89 2 132 -25 89 -56 91 -221 5 -307 -51 -51 -161
-80 -216 -57 -48 20 -51 50 -48 410 l3 324 25 8 c40 12 119 0 169 -24z m-311
-345 c2 -328 1 -352 -15 -357 -27 -9 -108 -10 -121 -2 -27 17 -73 99 -98 177
-15 46 -31 94 -37 107 -20 43 -77 100 -122 122 -25 12 -45 25 -45 29 0 4 60
69 133 144 l132 137 85 -2 85 -3 3 -352z"/>
<path fill="white" d="M11143 2144 c-8 -21 6 -32 47 -36 l35 -3 3 -349 c1 -230 -1 -353 -8
-360 -6 -6 -25 -10 -43 -11 -25 0 -32 -4 -32 -20 0 -19 8 -20 173 -23 275 -4
386 37 443 163 25 55 25 141 -1 183 -19 31 -102 92 -126 92 -6 0 -17 6 -23 14
-9 10 -3 19 29 41 76 53 100 136 61 213 -40 79 -157 112 -397 112 -131 0 -156
-2 -161 -16z m391 -44 c114 -55 117 -240 6 -270 -62 -17 -84 -10 -88 24 -2 16
1 33 7 39 20 20 12 37 -19 37 l-30 0 0 -130 0 -130 30 0 c30 0 42 21 20 35 -5
3 -10 19 -10 36 0 20 5 29 18 30 50 4 100 -6 132 -26 102 -64 89 -256 -21
-327 -48 -31 -136 -52 -179 -43 -58 13 -61 28 -58 402 l3 337 25 8 c38 11 118
1 164 -22z"/>
</g>
</svg>
